<svg enable-background="new 0 0 1366 1555" viewBox="0 0 1366 1555" xmlns="http://www.w3.org/2000/svg">
<svg y="-200">
<path d="m470 1746.9h574.4v151.4h-574.4z" fill="none"/><g transform="translate(3962 1773)"><path d="m-2839.1-235.8c.1.2.2.5.3.7.3.9.7 1.9 1.2 2.8.7 1.4 1.5 2.7 2.3 4 1.9 2.9 3.4 6 4.5 9.3.7 2.5.9 5.1.6 7.7s-1.3 5.1-2.7 7.2c-1.9 2.8-4.6 5-7.7 6.4-3.1 1.3-6.4 2.3-9.7 2.8-24 4.4-49 7.3-71.1 9.9-2.6-17.7-4.9-37-7-59.1-2-20.4-3.6-41.1-5.1-59.3-.1-1.1-.6-2.2-1.5-2.9-.8-.6-1.8-1-2.8-1-1.1 0-2.1.4-2.8 1.1-.6.7-1 1.7-.8 2.7 1.6 20.3 3.2 40.2 5.2 59.8 2.2 22.2 4.5 41.7 7.1 59.5-3.3.4-8.3 1-13.4 1.6-3.3.4-6.6.9-9.9 1.3-8.8 1.2-17.8 2.5-26.7 2.5-1.8 0-3.6-.1-5.3-.2-5.1-.4-10.1-1.1-15.1-2-6.1-1-12.4-2.1-18.7-2.1-2.1 0-4.1.1-6.2.4-7.2.9-14.4 2.1-21.5 3.3-6.6 1.1-13.5 2.3-20.2 3.2-13 1.7-26.7 3-40.8 3.9-20.2 1.4-41.5 2-65.1 2-34.1 0-67.5-1.3-104.4-3-16.2-.7-29.5-1.8-42.1-3.3-7.4-1-14.8-1.6-22.3-1.7-5.5 0-11 .5-16.4 1.6-1 .2-1.9.4-3 .6-6.2 1.4-12.4 2.4-18.7 2.9-.9 0-97 3.1-98 3.1-4.9-.1-8.1-8.3-13-9l-40-14c-6.9-.8 10.4-72.4 1-73-4.1-12.2-34 40-118-3-16.9-18-24-50-19-68l1-32c.2-3.4 3.8-21.5 4-25l7-25c.8-15.6-4-22.2-3-38 1-14.7 9.4-17.5 10-32 .7-18 10.6-24.7 12-43 1.2-16 8.3-22.9 11-38 2.7-15.5 11.6-22.9 16-38 4.6-15.4 8.8-25.2 15-40 5.3-12.8 10.8-20 19-37l4-4 2-3c6.1-12.7 11.2-12 18.5-24.3 3.6-6.2 7.5-12.1 11.8-17.9 4.2-5.8 8.9-11.2 13.9-16.4 10.1-10 21.5-18.6 34-25.5 2.6-1.4 5.1-2.9 7.5-4.6s4.5-3.8 6.2-6.2c1-1.4 1.9-2.9 2.8-4.3 2.2-3.8 4.8-7.3 7.7-10.5 2.4-2.4 5.3-4.3 8.5-5.6 3.2-1.2 6.5-2.1 9.9-2.4 2.5-.3 5-1 7.3-2.1 2.2-1.2 4.3-2.8 6-4.7.7-.7 1.5-1.5 2.2-2.2 3.4-3.5 6.9-7.1 11.1-9.9 6.3-4.1 13.7-5.2 20.9-6.3l198.7 107.3 145-16 14.9-86.3c5.5 1.8 10.6 5 15.5 8l.6.4m181.3 587.9h.1m-175-583.8c9.2 5.7 19.6 12.2 33.8 20.9 10.7 6.5 21 13.5 31 21.1s19.2 16 27.6 25.3c17.6 19.8 30 40.3 36.7 61.2 1.9 5.9 3.3 12 4.2 18.1.3 1.9.5 3.9.7 5.8.3 3.9.9 7.8 1.9 11.7 1.1 3.6 2.7 7 4.6 10.2 1 1.9 2.1 3.9 3 5.9 2.4 5.6 3.8 11.6 4.1 17.6.7 9 1.1 18.1 1.4 27 .2 4.7.4 9.6.6 14.4.1 1.5.1 3 .2 4.4.2 5.5.3 11.1 1.9 16.3 1 3 2.4 5.9 4 8.6 1.2 2.1 2.2 4.2 3.2 6.4 1 2.4 1.7 4.9 2.1 7.5.4 2.5.5 5 .5 7.6-.2 5.1-.8 10.2-1.8 15.2-.3 1.6-.5 3.2-.8 4.8-.5 2.8-.7 5.7-.6 8.6s.6 5.7 1.5 8.4c.8 2.4 1.8 4.7 2.8 7 1.3 2.7 2.3 5.5 3.3 8.3 1.2 4.1 1.6 8.4 1.3 12.6s-.9 8.3-1.7 12.4c-.9 4.4-1.5 9-1.8 13.5-.5 11.2 1.5 22.4 3.4 33.2.3 2 .7 4 1 6.1 4.8 28.3 8.8 53.8 10.7 80.5.9 12.7 1.3 25.6 1.3 38.1 0 12.7-.5 25.5-1.4 38.1-.7-.7-1.7-1.1-2.7-1.1-4.6 0-9.5.2-14.1 2.3"/><path d="m-3031.1-823.7 6.1 2.1 14.3 9.8 49.7 145.1h-36z"/></g><path d="m-2562.3-1490.9c4.8-12.2 10.1-24.1 15.8-35.4 11.6-23.2 25.3-45.4 40.8-66.3s32.8-40.4 51.7-58.3c18.7-17.9 39.2-34 61.1-47.9 10.8-6.8 22-13.1 33.5-18.7l1.7-.8c7.8-3.8 16.8-7.9 25.9-10.1.9-.7 1.8-1.3 2.8-2 1.1-.7 2.3-1.1 3.6-1.1s2.7.4 3.8 1c1.2.7 2.2 1.6 2.9 2.7 1.1-.8 2.3-1.5 3.5-2.1l1.3-.6c5.6-2.5 12.9-5.4 20.1-5.4 2.1 0 4.2.3 6.2.8 5.3 1.4 9.6 5.3 11.5 10.4 4.4-2.3 8.7-4.8 12.9-7.6 6.7-4.8 12.9-10.3 18.3-16.4 5.5-6 10.2-12.6 14.1-19.8 3.9-7.1 6.7-14.8 8.5-22.7.4-2.1 1.5-3.9 3.2-5.2 1.5-1.1 3.4-1.7 5.3-1.6 1.6 0 3.3.4 4.8 1.1s2.8 1.7 3.8 3c1.7 2.2 2.2 5.1 1.4 7.8-2.5 9.3-6.4 18.1-11.5 26.3s-11.4 15.5-18.9 21.7c-6.1 5-12.7 9.2-19.8 12.6-7.1 3.5-14.9 5.8-22.8 6.7.8.7 1.5 1.5 2.3 2.3.7.7 1.3 1.4 2 2.1 3.3 3.2 6.8 6.3 10.4 9.2 7.3 6 94.8 78.3 109.1 78.3 8.8 0 108.6-76.1 110.7-80-.6.1-1.3.2-1.9.2-2.8 0-6-1.2-9.7-3.5-2.9-1.9-5.6-4-8.1-6.3-5.1-4.7-9.3-10.2-12.5-16.3s-5.4-12.6-6.4-19.4c-.5-3.4-.6-6.8-.3-10.2s1.1-6.7 2.4-9.8c.1-.3.4-.5.8-.6.4 0 .8.3.8.8.6 7.2 2.2 14.3 4.6 21 1.2 3.3 2.8 6.5 4.7 9.5 1.9 3.1 4.2 6 6.8 8.6 4.7 4.8 10.3 8.8 16.4 11.6l.9.4c2.7 1.2 5.4 2.6 6.5 5.2h.4c.3 0 .6 0 .9.1s.7.2 1 .3c-.8-1.6-1.1-3.3-1-5.1 0-1.7.7-3.3 2-4.5 1.1-1 2.6-1.5 4.1-1.5 1.4 0 2.8.4 3.9 1.2 1.2.9 2.1 2.2 2.3 3.7-.1-.2-.2-.4-.2-.4s-.1 0-.1.1c0 .2.1.5.4.5 0 .1 0 .3.1.4v.2-.1c0-.1 0-.2 0-.3v-.1c.1.1.3.1.4.1h.1c.1 0 .3.1.5.2.3.2.7.3.9.4 1 .3 2 .6 3.1.8.8.2 1.7.4 2.5.6 4.4 1.3 7.6 3.5 9.8 6.6 1.7 2.4 2.7 5.2 3.1 8.1 8.7 4.2 17.1 8.9 25.1 14.3s15.5 11.4 22.4 18.1c7.6 7.4 14.8 15.3 21.4 23.7 6.6 8.3 12.7 16.9 18.4 25.9 10.3 16.1 20.1 34.5 29.9 56.1 8.5 18.7 16 37.4 24.7 59.8l1.2 3.2c6.6 17 9.4 26.4 11.2 32.8 3.2 11.1 5.3 22.5 6.3 34 .1 2-.5 4-1.7 5.7m-445.9-294.3c-4.6.1-9 1.1-13.2 2.9-2.1.9-4.2 1.8-6.2 2.9l-.4.2c-2.4 1.3-2.3 2.2-1.2 4.8 1.6 3.4 3.4 6.8 5.4 10l.1.2c8.5 14 127.2 114.6 148.6 112.3 46-5 112.6-66.1 122.6-75.7l1.8-1.8c4.6-4.4 8.7-9.1 12.4-14.2 1.8-2.6 3.3-5.4 4.4-8.4 1.1-2.8 1.5-5.8 1.4-8.8 0-2-1-3.9-2.7-5-1.7-.9-3.6-1.5-5.6-1.8-.5-.1-1-.2-1.5-.3-1.9-.4-3.7-1.1-5.4-2 .3 1.5.2 3.1-.4 4.6-.6 1.7-1.4 3.4-2.4 4.9-1.8 2.9-4 5.5-6.4 7.9-7.6 7.3-104.4 77.6-114.2 77.6-12.8 0-107.1-78.6-113.6-84.9l-1.4-1.4c-2.2-2.2-4.7-4.8-7-7.6-2.3-2.6-4.2-5.6-5.6-8.7h-.4c-.9 0-1.8 0-2.7-.1-.4 0-.7-.3-.8-.7-.1-.3.1-.6.4-.8.8-.4 1.6-.8 2.5-1.3-.2-.5-.3-.9-.4-1.3 0-.1 0-.3.1-.4s.2-.2.4-.2c.1 0 .2 0 .2.1.5.3.9.6 1.4.9.1-.1.3-.1.4-.2-2.4-2.4-6-3.7-10.6-3.7z" transform="translate(2934 2626)"/><g transform="translate(5380 721)"><path d="m-4570.3-270.9c56.8 0 115.5 44 136.3 72.1 17.5 23.6 26.9 130.4 26.9 202.5 0 15.1 8.3 43.5 5.9 58-8.9 52.9-47.7 97.3-124.5 97.3s-131.9-30.4-188.9-112.2c-27.7 0-41.1-21.2-41.3-54.8-.2-33.5 26.7-45.7 26.7-45.7s-9.6-132.3 14.6-166.7c24.2-34.5 87.5-50.5 144.3-50.5z" fill="#fff"/><path d="m-4570.3-270.9c56.8 0 115.5 44 136.3 72.1 17.5 23.6 26.9 130.4 26.9 202.5 0 15.1 8.3 43.5 5.9 58-8.9 52.9-47.7 97.3-124.5 97.3s-131.9-30.4-188.9-112.2c-27.7 0-41.1-21.2-41.3-54.8-.2-33.5 26.7-45.7 26.7-45.7s-9.6-132.3 14.6-166.7c24.2-34.5 87.5-50.5 144.3-50.5z" fill="#fff"/><path d="m-4471-195c-15 1-12 33-46 27s-65-21-89-12-57.8 73-58 70.6c-6.9 14-13 25.4-19 35.7l1 3.8c2 7.9 3.7 16 5.4 23.9.7 3.3 1.5 6.7 2.2 10.1.5 2.4 0 4.9-1.4 6.9-.9 1.4-2.4 2.4-4 2.6-1.5.3-3.1.6-4.5 1-2.2.7-4.5 1.1-6.8 1.2-1.3 0-2.6-.2-3.8-.6-4.5-1.5-6.1-4.9-7.9-8.5-.5-1-1-2-1.6-3.1-.5-.9-1.2-1.8-1.8-2.6l-.2.2c-.1.1-.3.2-.4.2-.3 0-.5-.1-.7-.4-.1-.2-.1-.4-.1-.5l.3-.7c-1.7-1.7-3.4-3.3-5.3-4.7-.8-.6-1.6-1.3-2.4-2-1.5-.3-3.1-.4-4.6-.4-4.3-.1-8.6.9-12.4 2.9-2.3 1.4-4.4 3.1-6.2 5.2-1.7 2.1-3.2 4.3-4.3 6.8-2.3 4.9-3.4 10.3-3.4 15.8 0 13 3.6 25.8 10.2 37 1.4 2.4 3.1 4.5 5.1 6.5 2 1.9 4.3 3.5 6.8 4.5 2.6.9 5.4 1.5 8.1 1.8 2.7.2 5.3.8 7.8 1.6 1.9.7 3.3 2.1 4 4 .5 1.5.4 3.3-.5 4.7-.1.2-.2.3-.3.5 0 .1-.1.1-.1.2l1.6 2.1c1 1.3 2.1 2.9 3.2 4.6 1.7 1.9 3.4 3.8 5.1 5.6 1 1.1 2.1 2.2 3.1 3.4 3.4 3.8 6.8 7.7 10.1 11.5 1.5 1.8 3.1 3.6 4.7 5.4 4.1 4.6 8.7 9.5 14.6 15.2 2 2 4.3 3.8 6.5 5.6 3.1 2.4 6 5 8.7 7.9 1.3 1.5 2.3 3.2 2.9 5.1.6 1.8.7 3.7.3 5.6-.6 2.5-2.4 4.5-4.8 5.3-1.2.5-2.5.7-3.8.7-5.7 0-10.8-4.8-14.9-8.7-.4-.4-.8-.7-1.2-1.1l-.2-.2c-9.7-8.8-18.2-19-25.2-30.1-14.1-30-46-38.2-54.9-50.1s-8.9-16.7-11-25.9c-1.1-4.7-1.8-9.5-2.2-14.3-.3-4.6-.2-9.2.3-13.8.7-5.5 2.3-10.7 4.7-15.7 1.2-2.5 2.6-4.8 4.3-7.1 1.6-2.2 3.5-4.2 5.5-6l-.3-.8c-2.4-5.8-4.3-11.7-5.7-17.8-1.5-7.2-2.5-14.6-3-21.9-1.4-15.5-1.1-31.2.9-46.6 1.8-14.5 5.2-28.8 10-42.6s11.5-26.9 19.7-38.9c-2.4-2.7-4.4-5.9-5.8-9.2-.7-1.7-1.1-3.4-1.2-5.2-.3-3.7.6-7.4 2.6-10.5 1-1.5 2.3-2.8 3.8-3.9.9-.6 1.9-1 3-1.3.8-.2 1.6-.6 2.4-.9l.5-.3c.5-.3.4-.4.2-.8-.2-.5-.4-1-.5-1.6-1-4.4-.9-8.2.3-11.3 1.4-3.6 4.1-6 8.2-7.2 1.4-.4 2.8-.6 4.3-.6 3.4.1 6.6 1.1 9.4 2.9 2.9 1.8 5.4 4.2 7.5 6.9 6.7-4.6 14-8.2 21.6-10.9 7.5-2.8 15.3-4.9 23.2-7.1 17-4.5 34.4-7.6 51.9-9.3 10.4-1 20.9-1.6 31.4-1.6 12.5 0 25 .7 37.5 2 11.9 1.2 24.1 2.9 37.4 5.3 2.3.3 4.2 2.1 4.8 4.4 10 .5 20.1 1.1 29.9 1.7 6.6.4 13.4.8 20 1.2 1.4.1 2.8.5 4 1.2 2.2 1.4 3.6 3.8 3.7 6.4 0 1.4-.3 2.8-1 4-.6 1.1-1.2 2.2-1.7 3.1l.7-.2c2.7-.9 5.5-1.4 8.3-1.5 2.4 0 4.8.5 7 1.6 3 1.6 5.3 4.1 6.5 7.2s1.5 6.5.8 9.7c-.4 1.7-.9 3.3-1.6 4.9h1.5c.9 0 1.8.1 2.6.2 1.8.2 3.5.7 5 1.5 4.7 2.4 7.8 7.1 8 12.4.3 5.2-1.1 10.8-4.2 16.4-2.9 5.2-6.6 10-10.9 14 1.3 2.6 1.7 5.6 1.2 8.5-.5 2.8-1.8 5.3-3.7 7.3-2 1.9-4.3 3.5-6.8 4.6 2.2 6.8 3.1 13.9 2.5 21-.1 1.2-.7 2.3-1.5 3.2s-1.9 1.5-3 1.7c4.1 11.5 7.3 23.2 9.7 35.2 2.2 10.5 4 22 5.8 36 2.1 17 3.2 34.1 3.3 51.2.1 7.7-.1 15.5-.4 23.2l-.1 2.9c-.1 1.8-.2 3.5-.2 5.3-.1 6.7-.7 13.4-1.7 20.1 4.3 7.3 6.9 16.9 8 29.3 1 12.2-.5 24.4-4.4 36-3.6 10.7-8.9 20.6-15.8 29.5-6.8 8.8-14.9 16.6-24 23.1-9.1 6.6-19 12.1-29.4 16.3s-21.2 7.3-32.2 9.1c-8.1 1.3-16.3 2-24.4 2-8.4 0-16.7-.7-24.9-2.3-8.1-1.5-16-3.9-23.6-7.2-7.5-3.3-14.5-7.5-20.9-12.7-6.5-5.4-12.2-11.7-16.7-18.8-.1-.2-.1-.4 0-.5.1-.2.3-.3.5-.3.1 0 .3 0 .4.1 4.1 3.3 8.5 6.3 13.1 8.9 4.5 2.5 9.2 4.7 14.1 6.5 9.9 3.6 20.1 6 30.5 7.4 6.9 1 13.8 1.4 20.7 1.4 7.8 0 15.5-.6 23.2-1.7 7.7-1.2 15.3-2.9 22.8-5.3 7.4-2.3 14.6-5.3 21.5-8.8 6.8-3.5 13.3-7.6 19.4-12.3 7.1-5.6 13.2-12.3 18.1-20 2.4-3.8 4.6-7.8 6.4-11.9s3.3-8.4 4.4-12.8 1.9-9 2.3-13.6.3-9.2-.1-13.8c-.6-6.2-2.7-11.9-4.7-17.4-1-2.8-2-5.6-2.9-8.5-.8-2.7-.1-5.6 1.9-7.7.2-3.4.7-7 1.1-10.4.4-3.6.9-7.4 1.1-11 .5-8.1.8-16.2.9-24.2.2-16-.4-32.9-1.9-50.2-1.6-18.4-4.7-36.8-7.7-54.6-2-11.8-4.1-24-5.7-36.1-.9.9-2.1 1.3-3.4 1.4-.9 0-1.7-.2-2.5-.6l-.2-.1s-1.4-.7-1.4-.7c-1.90000000001.3-16.00000000001-20.9-35.00000000001-26.9zm-233.9 195c-1.4 0-2.7-.5-3.9-1.2-4.2-2.8-7-7.2-9.8-11.4-.3-.4-.6-.9-.9-1.3l-.3-.5c-.3-.4-.5-.8-.8-1.2-1-1.7-2.2-3.3-3.7-4.7l-.4-.4c-.6-.6-1.3-1-2.1-1.2-.4-.1-.7-.1-1.1-.1-.8 0-1.6.2-2.4.5-.7.3-1.3.9-1.6 1.6l-.1.2c-.1.4-.4.6-.8.6-.5 0-.9-.3-.9-.8-.1-2.5.9-4.9 2.7-6.6 2-2 4.8-3.1 7.6-3.1.7 0 1.3.1 2 .2 4.2.7 7.6 3.2 10.7 5.7l1.6 1.2.8.6c3.6 2.8 7.7 6 9.9 10.1 1.3 2.5 1.1 5.5-.4 7.9-.7 1.1-1.6 2.1-2.7 2.8-.9.7-2.1 1.1-3.4 1.1z"/></g><g transform="translate(1641 1239)"><path d="m-841.2-492.8c10.9-6.6 51.7-1.8 83.8 0 25.5 1.4 43.6-1.4 49.5 2.5 13.2 8.9 6.8 51.7-15.9 57.5-22.7 5.9-106.7 14-121.2 0s-15.7-48.2 3.8-60z" fill="#fff"/><path d="m-775.4-419.6c-2 0-4.1 0-6.5 0h-2.8c-1.5 0-3 0-5 0-1.5 0-3 0-4.5 0h-.1c-1.5 0-3.1 0-4.7 0-12 0-25.9-.3-37.7-4-2.9-.9-5.7-2-8.3-3.4-2.6-1.3-5.1-3-7.4-4.8-2.3-1.9-4.4-4.1-6.2-6.6-1.9-2.7-3.5-5.6-4.7-8.6-1.1-2.8-2-5.8-2.4-8.8-1.5-9.1-.1-18.5 4.1-26.7 1.6-3.2 3.7-6.1 6.3-8.6 2.5-2.5 5.3-4.6 8.3-6.4 6.2-3.5 13-5.7 20.1-6.5 2.7-.3 5.4-.5 8.1-.5 9.8 0 19.7 2 29.2 3.9 4.3.9 8.7 1.7 13.1 2.4 8.8 1.4 17.7 2.4 26.7 2.8 1.9.1 3.8.1 5.4.2.2-1.8 1.3-3.3 3-3.9 3.2-1.6 6.7-2.4 10.3-2.4h1.1c4 .1 7.9.6 11.8 1.3 3.6.6 7.1 1.7 10.4 3.3 3.3 1.5 6.4 3.6 9 6.1 2.9 2.8 5.1 6.3 6.5 10s2 7.6 1.9 11.5c-.1 4-.8 7.9-2.1 11.7s-3.1 7.4-5.5 10.6c-2.1 3-4.6 5.8-7.3 8.3-2.6 2.4-5.4 4.6-8.4 6.5-2.9 1.9-6 3.5-9.2 4.9s-6.6 2.5-9.9 3.5c-6.9 1.9-14 3.1-21.2 3.7-6.1.2-13 .5-21.4.5zm33.5-40.1h-.2c-12.1.5-24.8.8-37.7 1 .4 3.1.8 6.4 1.2 9.7.3 2.4.7 4.8 1.1 7.6.1.3.1.7.2 1.2.3.8.4 1.7.3 2.6l-.1.4c.7.3 1.3.8 1.7 1.4.1.2.3.5.4.7h3.3c9 .1 18-.5 26.9-1.9v-.2c.1-1.1.6-2 1.4-2.7.4-2.8.7-5.7.7-8.6.1-1.3.1-2.6.2-3.8.1-1.7.2-3.5.4-5.2.1-.7.2-1.4.2-2.2zm-83.4 23.2h.2c.3.1.7.1 1 .2 7.6.9 15.3 1.4 22.9 1.3h6.6 6c-.4-2.7-.5-5.4-.4-8.1 0-1 0-2 0-2.8v-.5c-.2-3.9-.3-7.9-.4-11.9-6.3.1-13 .2-19.8.2-2.6 0-5 0-7.4 0l-4.1-.1c.3 1.5.6 3 .8 4.5.6 3.1 1.2 6.3 1.7 9.5.4 1.9-.2 3.8-1.4 5.3-1.4 1.6-3.4 2.6-5.6 2.6 0-.2 0-.2-.1-.2zm-25.6-22.8c.3 2.4.9 4.8 1.8 7 1.8 4.4 5 8.1 9 10.6s8.5 4.1 13.1 4.9c-1.8-.6-3.1-2.3-3.2-4.2-.8-5.8-1.1-11.6-1.1-17.4-6-.2-12.9-.3-19.6-.9zm131.9-1.3c-1.1 0-2.3 0-3.4.1-3.7.2-7.5.3-11.2.5l-1.7.1c0 .6.1 1.2.1 1.9.2 2.2.3 4.6.5 6.9.1 1 .1 2.1.2 3.1.1 2.8.4 5.6.8 8.4 4.3-1.4 8.3-3.4 12.1-5.9s7.2-5.7 10-9.3c1.5-2 2.8-4.1 3.7-6.4-3 .6-6.1.8-9.2.7h-1zm-110-28.2c-3.9.9-7.6 2.4-10.9 4.4-3.4 2.1-6.1 4.9-8.1 8.4-1.2 2.1-2 4.4-2.5 6.8s-.7 4.9-.6 7.3c6.6-.8 13.4-1.1 19.8-1.3 0-1.3.1-2.5.1-3.6l.1-3c0-.4 0-.8 0-1.2.2-5.5.4-12.4 2.1-17.8zm14.1-1.5c-2 0-3.9.1-5.8.2-1.4.1-2.8.2-4.2.4 1 4.3 1.6 8.6 1.7 13 .1 2.2.3 4.2.5 6.1.2 2.1.6 4.3 1 6.9l1.6-.1c7.8-.4 15.8-.7 23.4-1 2.3-.1 4.7-.2 7.1-.3 0-2.1 0-4 0-5.7v-1.9c0-1.4 0-2.9 0-4.4-.1-3.7.1-7.4.5-11.1l-3.4-.4-.8-.1c-7-.9-14.3-1.4-21.6-1.6zm32 2.8c.2 1.4.3 2.8.4 4.1.1.7.1 1.4.2 2.1.4 3.9.8 7.9 1.3 12.4l.4 3.6c11.2-.5 23.1-1.1 37.5-1.8l1.8-.1.5-6.9c.3-4.4.7-9.1 1.2-13.8l-.4-.1c-.5-.2-.9-.4-1.3-.7-9.9 1.4-19.9 2.1-29.9 2h-.1c-3.5-.2-7.1-.4-11.6-.8zm45.9.3c.4 4.6.7 9.4.9 14 .1 1.9.2 3.8.3 5.7l8.2-.4c1.5-.1 2.8-.2 4.1-.2 1.5-.1 3.1-.3 4.7-.5 2.5-.3 5-.5 7.5-.6 1.8 0 3.5.2 5.3.6.3-3.8-.3-9-5.3-12.7-2.4-1.7-5.1-2.9-7.9-3.5s-5.7-.9-8.6-1.1c-3-.2-6.1-.6-9.2-1.3zm-17.1-23.9c-5.2 0-9.3-1.4-12-4.2-1.1-1.1-1.8-2.5-2-4.1-.2-1.5 0-2.9.6-4.3s1.5-2.6 2.7-3.6c1.2-.9 2.6-1.4 4.1-1.5 1.4 0 2.8.5 3.9 1.3 1.6 1 3.5 1.4 5.4 1.3 3.6-.1 7.2-.7 10.6-1.8l.3-.1c1.7-.5 3.3-1.3 4.7-2.3 1.5-1 2.8-2.3 3.6-3.9.9-1.6 1-3.4.4-5.1-.7-2.2-2.6-3.8-5.6-4.8-2.5-.8-5.1-1.2-7.7-1.2-.5 0-.9 0-1.4 0-3.7.1-7.4.4-11.1 1-2.4.3-4.8.7-7.3.8h-.1c-.4 0-.8-.3-.9-.7-.1-.5 0-.9.4-1.2 3.7-2 7.7-3.7 11.8-4.8 4.6-1.4 9.4-2.1 14.3-2.2 5.3 0 9.6 1.1 12.7 3.2 3.7 2.5 5.8 6.4 6.3 11.6.4 4.9-1.1 9.7-4.1 13.6s-6.9 6.9-11.4 8.8l-.3.1c-2.7 1.1-5.6 2.1-8.5 2.8-2.9.8-6.1 1.3-9.4 1.3zm57.1-32.8c-.1 0-.3 0-.4 0l-.7-.1c-.4 0-.7-.1-1-.2-1.4-.4-2.6-1.2-3.5-2.4-.9-1.1-1.4-2.5-1.3-3.9l.1-.8c.2-2.8.2-7-1.1-10.4-.6-1.6-1.5-2.9-2.7-4.1-1.4-1.2-3.1-2-4.9-2.4-.6-.1-1.2-.2-1.9-.2-2.8 0-5.3 1.5-6.8 3.8-1.6 2.4-2.4 5.2-2.4 8.1 0 .8-.7 1.5-1.5 1.5-.3 0-.5-.1-.7-.2-2.4-1.4-4.1-3.8-4.7-6.5s-.4-5.6.6-8.2c1.2-3.2 3.3-6 6.2-8 2.9-1.9 6.2-3 9.6-3.2h1c6.8 0 13.1 3.3 17.1 8.7 2.5 3.3 4.3 7.1 5.2 11.2s.9 8.3-.1 12.4c-.4 1.3-1.1 2.5-2.2 3.3-1.2 1-2.5 1.6-3.9 1.6zm-151.9-3c-.3 0-.6-.1-.9-.2-1.3-.6-2.4-1.7-3.1-3s-1.1-2.8-1.1-4.2c-.1-3 .4-6 1.6-8.7 1.4-3.2 3.3-6.1 5.8-8.6s5.4-4.4 8.7-5.5c2.4-.8 5-1.2 7.5-1.2 4.8 0 9.6 1.4 13.7 4 4.1 2.5 7.6 6.1 9.9 10.4 2 .6 4.1 2.1 3.8 4.6-.4 3.6-1 5.7-3.5 8.3-1.3 1.4-3.1 2.2-5.1 2.2-1.6 0-3.2-.5-4.5-1.4-1.4-.9-2.4-2.3-2.9-3.9l-.1-.2c-.7-2.6-2.3-5-4.5-6.7-2.1-1.7-4.8-2.6-7.5-2.6-3.4 0-6.7 1.6-8.8 4.2-1.2 1.6-2.2 3.3-3.1 5.1-1.1 2.6-2.7 4.9-4.7 6.9-.3.4-.7.5-1.2.5zm-20.6-22c-.3 0-.6-.3-.6-.6-.4-4-.3-7.9.2-11.9.6-4.1 1.6-8.1 2.9-12 1.4-3.9 3.1-7.6 5.3-11.1 2-3.4 4.5-6.6 7.2-9.4 3.5-3.4 7.5-6.1 11.9-8 4.6-2.2 9.7-3.5 14.8-3.6 3.2-.1 6.4.7 9.2 2.4 3 1.9 5.2 4.8 6.3 8.1.6 1.9.3 3.9-.7 5.5-.9 1.7-2.5 3-4.4 3.5-1.1.2-2.2.3-3.4.3-2.1-.1-4.2-.3-6.2-.7-2.1-.4-4.2-.6-6.2-.7-.5 0-1 0-1.5.1-5 .3-9.7 2-13.7 5-3.2 2.5-5.9 5.6-8 9.1s-3.9 7.1-5.5 10.8c-1.9 4.5-4.3 8.9-7 13-.2.1-.4.2-.6.2zm184.2-11.9c-.9 0-1.7-.1-2.6-.4-6.3-1.8-8-6.3-9.9-11.4-.4-1-.8-2-1.2-3-1.8-4.2-4.6-7.8-8.3-10.6-5.6-4.3-14-6.8-22.5-6.8-3.4 0-6.8.4-10.1 1.4-.1 0-.1 0-.2 0-.3 0-.6-.2-.7-.4s-.1-.4.1-.6c.5-.6.9-1.2 1.3-1.8 1.2-1.8 2.6-3.4 4.3-4.8 5.4-4.1 11.9-6.3 18.7-6.3 3.5 0 7 .5 10.4 1.6 3.3 1 6.5 2.5 9.4 4.4s5.6 4.1 7.9 6.7c2.2 2.3 4 4.9 5.7 7.6.5 1 .9 2 1.3 3 .4 1.1.8 2.1 1.4 3.2 2.7 1.5 4.6 4.2 5.2 7.3.2 1.2.1 2.5-.3 3.7-.4 1.3-1.2 2.5-2.1 3.5l-.2.2-.6.6c-1.9 1.9-4.4 2.9-7 2.9z"/></g><path d="m371.7 1128.4c-15.7 48.7-28.1 98.2-35.7 148.8-2.6 17.4-4.2 34.9-6.8 52.3-.9 6.1-.8 13.2-8.6 15.8-.7.2-1.2 1.9-1.3 3-3.3 34.7-4.2 69.5 0 104.1 3.1 25.8 17.7 38.4 43.7 40.6 24 2 46.3-4.2 68-13.4 67.6-28.7 130.8-65.3 192.5-107.8-2.4-4.4-4.5-8.8-7.2-12.9-8.4-12.6-11.7-26.6-10.7-41.3 1-15.9 3.3-31.6 5.1-47.5.1-1.2.2-2.4.5-4.4-63.4 33.6-128 62.3-197.6 78.1-.3-.8-.7-1.6-1-2.4 16.7-6.7 33.4-13.5 51.2-20.6-19-6-37.1-11.7-55.1-17.4.2-.7.4-1.5.5-2.2 16.5-.5 32.2 5 47.1 6.9 12.8-9.1 18.1-21.5 19.3-35.9.9-10.5 1.5-21.1 2.7-31.5 2.8-25.3 5.8-50.5 8.8-75.8.1-.7.6-1.4 2.3-2.1.2 2 .7 4 .6 6-1.4 35.6-2.3 71.2-4.5 106.7-.7 10.4-5 20.6-7.9 31.4.9 1 2.9 3.4 5.5 6.3 12.3-5.4 25.4-10.5 37.9-16.7 28.4-14 56.5-28.5 84.6-42.9 3.5-1.8 6.3-2.5 10.4-.7 5 2.2 10.7 3 16.2 3.9 1.5.2 3.7-1.1 4.9-2.3 8.6-8.8 17.9-17.2 25.4-26.9 8.5-11.1 15.4-23.5 23-35.3 11.5-17.7 26.5-31.6 46.7-38.1 11.8-3.8 20-10.7 26.9-20.1 8.7-11.8 19.9-15.4 33.8-10.9 9 3 18.1 6 27.1 8.9 5.1 1.7 8.8 4.6 8.7 10.7 10.6-1.4 20.9-3.1 31.3-4.1 31.8-2.8 62.7 2.1 93.1 11.2 2.3.7 5.3 3.3 5.7 5.4 9.1 48.1 8.1 95.2-15.2 139.7-4.3 8.2-9.9 15.8-15.8 22.9-8.5 10.3-19.8 15.8-33.2 15.4-19.8-.7-39.7-1.6-59.4-3.5-18.9-1.8-29.5-14.2-35.2-31.5-.8-2.3-1.5-4.7-2.5-8.2-3.6 2-7.1 3.6-10.2 5.7-2.4 1.6-4.7 3.6-6.4 5.9-20.2 28.6-49.6 40.1-82.5 46.5-16.9 3.3-33.4 9-49.9 14.1-5.3 1.6-8.7 5.1-6.4 11.7.6 1.8-.7 5.1-2.2 6.7-3.6 3.9-7.5 7.7-11.9 10.7-52.2 35.2-107.1 65.6-164.4 91.7-4.4 2-6.3 3.9-5.4 9.1 1.2 6.9 1.7 14 1.5 21-.1 3.2-2 7.2-4.4 9.2-1.5 1.3-6 .3-8.3-1.1-3.5-2.1-3.8-5.8-2.5-9.9 2.2-6.8 3.7-13.9 5.4-20.2-18.5 5.6-36.3 11.7-54.5 16.1-17.8 4.3-35.8 3.3-53.2-2.9-25.8-9.2-36.1-29.2-37.9-55.1-2.4-34.3.8-68.2 7.8-101.8.5-2.2-.5-4.6-.6-7-.4-7.6-1.7-15.3-.8-22.7m307.2-49.7c.9 20.6 1.3 41.8 3.2 62.9.5 5.9 5 11.6 8.4 16.9 3.2 4.9 7.4 7.1 13.3 2.7 3.7-2.7 8.5-4.4 13-5.7 15.9-4.3 31.9-8.5 48-12.3 20.3-4.8 40.6-9.8 54.8-26.6 12.8-15.1 26.3-28.4 46.9-32.3 5.2-1 9-5.1 8.2-11.3-8.3-1.2-16.4-2.4-24.6-3.6 0-.8 0-1.7 0-2.5 7.3-.8 14.6-1.5 21.8-2.4 1.7-.2 4.1-.5 4.8-1.7 3.1-5.1 6-10.4 8.2-15.9.7-1.8-.5-6.2-1.6-6.5-5.4-1.5-11-2.5-16.6-2.7-7.2-.2-14.5.6-21.7.7-3.7 0-7.4-.8-11.1-1.2 0-.6-.1-1.2-.1-1.9 2.8-.9 5.6-2.3 8.5-2.8 10.6-1.8 21.2-3.6 31.8-4.9 4.3-.5 6.2-2.4 7.3-6.2 2.2-7.3-.4-15.4-6.4-19.2-1.3-.8-3-1.3-4.5-1.3-14 .1-28 .4-42 .5-2 0-3.9-1.2-5.9-1.9 1.5-1.5 2.8-3.8 4.7-4.3 8.3-2.3 16.8-3.9 25.1-6.3 4.5-1.3 9.9-2.8 12.7-6.1 4.2-4.9-.7-13.9-8.3-14.5-9.6-.7-19.4-.4-28.9.9-31.2 4.4-56 19.1-72.5 46.6-4.6 7.6-9.7 14.9-14.3 22.5-14 23-35.1 34.6-62.2 40.4zm194.4 17.4c2.3 19.5 11.1 28.7 30 30.4 16.7 1.5 33.4 2 50.2 2.7 12.7.6 22.1-5.7 29.8-15.2 9.4-11.6 15.8-24.6 20.8-38.6 11.7-33.3 12-67.3 6.9-101.7-.3-2.1-3.1-4.8-5.3-5.5-36.7-12.1-74.6-13.9-112.8-12.6-1.3 0-2.8.6-3.8 1.5-3.7 3.3-7.2 6.8-10.2 9.7.4 7 .7 14 1.2 21.7 16.3 10.7 19.3 18.6 14.4 39.7-.2 1-.2 2.6.4 3.3 7.5 9.7 4.7 18.8-1 28.1-2.2 3.6-4.3 7.9-4.7 12-1.1 11.3-5.5 19.8-15.9 24.5zm1.8-140c-2.1-1.8-2.4-2.1-2.7-2.3-6.8-2.4-13.5-4.8-20.3-7.2-12.2-4.3-19.2-2.1-27.8 8.5.4.1.7.3 1.1.3 1-.1 2-.4 3-.5 13.5-2.1 27-4.1 39.9 2.7 1.3.6 3.6-.8 6.8-1.5z"/><g fill="#fff"><path d="m431.1 1479.6c67.6-28.7 130.8-65.3 192.5-107.8-2.4-4.4-4.5-8.8-7.2-12.9-8.4-12.6-11.7-26.6-10.7-41.3 1-15.9 3.3-31.6 5.1-47.5.1-1.2.2-2.4.5-4.4-63.4 33.6-128 62.3-197.6 78.1-.3-.8-.7-1.6-1-2.4 16.7-6.7 33.4-13.5 51.2-20.6-19-6-37.1-11.7-55.1-17.4.2-.7.4-1.5.5-2.2 16.5-.5 32.2 5 47.1 6.9 12.8-9.1 18.1-21.5 19.3-35.9.9-10.5 1.5-21.1 2.7-31.5 2.8-25.3 5.8-50.5 8.8-75.8.1-.7.6-1.4 2.3-2.1.2 2 .7 4 .6 6-1.4 35.6-2.3 71.2-4.5 106.7-.7 10.4-5 20.6-7.9 31.4.9 1 2.9 3.4 5.5 6.3 12.3-5.4 25.4-10.5 37.9-16.7 28.4-14 56.5-28.5 84.6-42.9 3.5-1.8 6.3-2.5 10.4-.7 0 0 7.7-2.7 5.7 10.3s-6 52-5 58 9.4 26.2 12 32c4 9 11.2 14.1 13.4 20.7.6 1.8-.7 5.1-2.2 6.7-3.6 3.9-7.5 7.7-11.9 10.7-52.2 35.2-107.1 65.6-164.4 91.7-4.4 2-6.3 3.9-5.4 9.1 1.2 6.9 1.7 14 1.5 21-.1 3.2-2 7.2-4.4 9.2-1.5 1.3-6 .3-8.3-1.1-3.5-2.1-3.8-5.8-2.5-9.9 2.2-6.8 3.7-13.9 5.4-20.2-18.5 5.6-36.3 11.7-54.5 16.1m-74.9-161.9"/><path d="m617.9 1268.1c27.1-5.8 48.2-17.4 62.1-40.3 4.6-7.6 9.7-14.9 14.3-22.5 16.6-27.4 41.4-42.2 72.5-46.6 9.5-1.3 19.3-1.7 28.9-.9 7.6.6 12.5 9.5 8.3 14.5-2.8 3.3-8.2 4.8-12.7 6.1-8.3 2.4-16.8 4-25.1 6.3-1.8.5-3.1 2.8-4.7 4.3 2 .7 3.9 1.9 5.9 1.9 14 0 28-.4 42-.5 1.5 0 3.2.5 4.5 1.3 6 3.8 8.6 11.9 6.4 19.2-1.1 3.8-3 5.7-7.3 6.2-10.7 1.2-21.2 3.1-31.8 4.9-2.9.5-5.7 1.8-8.5 2.8 0 .6.1 1.2.1 1.9 3.7.4 7.4 1.2 11.1 1.2 7.2 0 14.5-.9 21.7-.7 5.6.2 11.2 1.2 16.6 2.7 1.1.3 2.3 4.7 1.6 6.5-2.2 5.5-5.1 10.8-8.2 15.9-.7 1.1-3.1 1.5-4.8 1.7-7.3.9-14.5 1.6-21.8 2.4v2.5c8.2 1.2 16.3 2.4 24.6 3.6.8 6.2-2.9 10.3-8.2 11.3-20.5 3.9-34.1 17.2-46.9 32.3-14.2 16.8-34.5 21.8-54.8 26.6-16.1 3.8-32 8-48 12.3-4.5 1.2-9.3 2.9-13 5.7-6 4.4-10.2 2.2-13.3-2.7-3.4-5.3-7.9-11.1-8.4-16.9-1.8-21.2-2.2-42.4-3.1-63zm100.2-65.1c-.9 5.7-2.2 10.7-2.2 15.6 0 5 1.1 10 2.2 15 1.2 5.7 2.7 11.4 4.5 16.9 1.5 4.5 2.9 9.4 5.7 13.1 1.3 1.7 5.7 1.8 8.5 1.3 1.5-.2 3.6-3.5 3.4-5.1-1.4-9.1-3-18.2-5.3-27.1-1.8-6.9-4.8-13.4-7-20.2-1.6-5.1-3.5-9.6-9.8-9.5z"/><path d="m812.3 1285.5c10.4-4.7 14.8-13.3 15.8-24.5.4-4.1 2.4-8.4 4.7-12 5.7-9.3 8.5-18.4 1-28.1-.6-.8-.6-2.3-.4-3.3 5-21 2-29-14.4-39.7-.4-7.7-.8-14.7-1.2-21.7 3-2.9 6.5-6.4 10.2-9.7.9-.8 2.5-1.4 3.8-1.5 38.2-1.3 76.1.5 112.8 12.6 2.2.7 5 3.4 5.3 5.5 5.1 34.4 4.8 68.4-6.9 101.7-4.9 13.9-11.4 27-20.8 38.6-7.7 9.5-17.1 15.7-29.8 15.2-16.7-.7-33.5-1.2-50.2-2.7-18.8-1.7-27.5-10.9-29.9-30.4z"/><path d="m814.1 1145.5c-3.2.8-5.5 2.1-6.7 1.5-13-6.7-26.4-4.7-39.9-2.7-1 .2-2 .4-3 .5-.3 0-.7-.2-1.1-.3 8.6-10.7 15.6-12.8 27.8-8.5 6.8 2.4 13.5 4.8 20.3 7.2.2.1.5.5 2.6 2.3z"/></g><path d="m718.1 1203c6.2 0 8.1 4.4 9.8 9.6 2.1 6.8 5.2 13.3 7 20.2 2.3 8.9 3.9 18 5.3 27.1.2 1.6-2 4.8-3.4 5.1-2.8.5-7.3.4-8.5-1.3-2.7-3.8-4.2-8.6-5.7-13.1-1.8-5.6-3.3-11.2-4.5-16.9-1.1-4.9-2.2-10-2.2-15s1.4-10 2.2-15.7z"/></svg></svg>
