<?xml version="1.0" encoding="utf-8"?>
<!-- Generator: Adobe Illustrator 27.7.0, SVG Export Plug-In . SVG Version: 6.00 Build 0)  -->
<svg version="1.1" id="Layer_1" xmlns="http://www.w3.org/2000/svg" xmlns:xlink="http://www.w3.org/1999/xlink" x="0px"
	 viewBox="0 0 1366 1555" style="enable-background:new 0 0 1366 1555;" xml:space="preserve">
<svg y="-200">
<style type="text/css">
	.st0{fill:#FFFFFF;}
	.st1{fill:none;}
</style>
<g id="body_Striped_Pocket_Tee_00000178184965869352864700000003096624713055105154_" transform="translate(2934 3479)">
	<g id="_Skin-58_00000000213839062158475930000013083363584752784002_">
		<path id="_Skin-59_00000165948502865105158890000002430088525491787393_" class="st0" d="M-2609.2-1950.8
			c-6.8,0-13.5-0.3-19.9-0.8c-5.8-0.6-11.5-2.2-16.9-4.5c-5.2-2.3-10.1-5.2-14.7-8.6c-9.2-6.8-17.5-15.4-25.6-23.8l0,0
			c-4.4-4.6-8.9-9.3-13.5-13.6c-21.1-21.6-41.6-44-61-66.8c-19.6-23-38.5-46.8-56.2-70.9l-0.7-1c-1.9-2.6-3.9-5.2-5.8-7.7
			c-4.9-6.4-10-13-13.9-20c-2-3.5-3.6-7.1-4.9-10.9c-1.3-3.8-2.1-7.8-2.3-11.8c-0.5-1.6-0.6-3.2-0.3-4.8c0.3-1.8,0.9-3.5,1.7-5.1
			c1.6-3.3,3.9-6.1,6.7-8.5l1.7-2.5c7.2-10.4,14-19.7,20.8-28.5c7.6-9.9,15-18.8,22.5-27.2c8.1-9.1,16.4-17.6,24.6-25.2
			c8.6-8,17.6-15.5,27.1-22.5c-0.1-2.1,0.4-4.2,1.3-6.2c1-2,2.4-3.8,4.3-5.1l158.4-114.6c13.1-9,26.1-18.7,38.6-28
			c13.4-9.9,27.2-20.2,41.2-29.7c13.9-9.6,28.4-18.3,43.4-26.2c6.2-3,12.5-5.6,18.9-7.9c6-2.2,12.4-4.2,19.4-6.1
			c13.1-3.6,26.6-6.5,39.6-9.3c10.8-2.3,22-4.7,32.8-7.5c10.9-2.7,21.6-6.1,32.1-10.1c0.4-5.9,6.2-9.5,10.9-11.5
			c4.7-2,9.8-3.2,14.9-3.4c1.1,0,1.7,0.1,1.9,0.4c0,0.1,0,0.1,0,0.2c13.8-8.4,25.1-17.9,33.5-28.2c3.7-4.6,7-9.5,9.7-14.8
			c2.4-4.7,4.2-9.6,5.5-14.6c1-4.7,1.8-9.5,2.2-14.2c0.7-6.5,1.3-12.6,3.9-17.5c2.8-5.4,7.8-8.9,15.5-11c6.5-0.5,13-0.7,19.3-0.7
			c13-0.1,25.9,1,38.7,3.1c12.7,2.1,25.1,5.7,36.8,10.9c5.6,2.6,11,5.6,16.1,9.1c5,3.5,9.6,7.5,13.8,11.9c4.2,4.6,7.8,9.6,10.8,15.1
			c3.1,5.8,5.6,12,7.2,18.5c1,5,2.5,9.9,4.5,14.6c1.7,4.1,3.9,7.9,6.4,11.6c5.1,7.2,11.7,13.5,19.3,20.4c4.4,5.5,8.2,11.4,11.4,17.7
			c2.6,5.1,4.6,10.6,5.8,16.2c2.1,9.4,1,19.2-3.2,27.8c-3.7,7.5-9.7,14.4-18,20.5c-7.9,5.8-17.7,10.8-29.2,14.9
			c-12,4.2-24.4,7.2-37,9c-13.7,2.1-27.6,3.1-41.5,3.1c-9.1,0-18.3-0.4-27.3-1.3c-9.1-0.9-18.2-2.1-26.9-3.8
			c-16.9-3.1-33.4-8.3-49-15.5c-15.4-7.2-27.8-16.1-37-26.2c-10-11-16-23.6-18-37.4c-19,6.9-39.2,11.2-58.6,15.3
			c-19.7,4.2-40.2,8.5-59.4,15.6c-21.1,7.8-40.2,20.2-57.6,32.4c-42,29.8-84.4,60.7-125.4,90.5c-30.7,22.3-62.4,45.4-93.8,67.9
			c20.9,9.6,55.5,39.1,63.6,67.4c3.1,11,2,20.7-3.4,28.9c-4.1,5.3-9.9,9.3-15.5,13.1l0,0c-1.3,0.9-2.6,1.8-3.9,2.7l-3.5,2.5
			c-3.4,2.4-7.7,5.6-12.3,8.9c-5.5,4-11.3,8.1-15.2,11l-1.3,1c-0.4,0.3-1,0.7-1.6,1.2c51.3,74.8,110.8,143.7,177.3,205.3
			c1.5,1.4,2.5,3.2,2.9,5.2c0.4,2,0.3,4.1-0.3,6.1c-0.5,1.7-1.4,3.3-2.7,4.6c-1.3,1.3-3,2.2-4.8,2.5l-9.7,1.4
			C-2558.1-1954.2-2583.8-1950.8-2609.2-1950.8z M-1893.3-1970.9c0.5,0.1,1,0.2,1.5,0.2c1.9,0,2.4-1.3,3.4-3.6
			c0.1-0.3,0.2-0.6,0.4-0.9l0.2-0.5c1.7-4.1,3.4-8.2,5.1-12.2l0,0c0.8-1.9,1.7-4.1,2.6-6.2c19.8-48.8,41-98,61.5-145.6l1.5-3.4
			l3.8-8.7c2.2-4.9,2.1-10.6-0.3-15.5c-2-4.1-5.5-8.2-10.5-12c-2.8-2.1-5.8-4-8.9-5.8c-5.6-3.4-11.4-6.9-11-8.2
			c0.1-0.4,0.8-0.6,1.9-0.6c3.2,0.2,6.4,0.7,9.5,1.5c-2.5-5.8-3.8-12-3.9-18.3c0-6.1,0.9-12.1,2.8-17.9c3.1-10.1,8.9-20.7,17.6-32.5
			c3.1-4.8,6.6-9.3,10.5-13.5c3.1-3.4,6.6-6.5,10.4-9.2c3.1-2.2,6.6-4,10.2-5.2c3.2-1.1,6.6-1.6,10-1.6c4.1,0,8.2,0.8,12,2.3
			c4.1,1.6,7.9,3.7,11.4,6.3c6.9,5,13.9,12.3,20.8,21.5c6.5,8.9,12.4,18.3,17.5,28.1c4.7,8.8,9.1,18.3,13.3,28.3
			c2.8,7.9,4.7,16.1,5.6,24.4c0.9,8.4,1,16.9,0.3,25.3c-0.7,8.7-2.1,17.3-4.1,25.8c-2,8.8-4.6,17.4-7.6,25.9
			c-6.2,17.3-13.5,34.2-21.9,50.5c-8.2,16.3-17.1,32.2-24.9,46.2l0,0l0,0c-1.9,3.4-3.7,6.6-5.5,9.8c-2.7,3.7-5.7,8.4-8.8,13.3
			c-5.2,8.3-11.1,17.7-17.7,25.2c-7.6,8.6-14.7,13.2-21.9,14l0,0 M-2022.1-2168.2c-8.3,0-16.6-0.9-24.7-2.7
			c-8.2-1.8-16.2-4.3-23.9-7.6c-15.2-6.5-29-15.8-40.7-27.4c-14.5-19.8-9-43.4-3.8-66.2c1.9-8.2,3.8-16.7,4.7-24.7
			c-2.3-5.8-3.5-12.2-4.7-18.5c-0.5-2.4-0.9-4.8-1.4-7l-0.2-1l-7.1-30.8c-0.8-4,0.2-8.1,2.7-11.3c0.9-1.2,2-2.1,3.3-2.8
			c1.3-0.7,2.8-1.1,4.3-1.1c0.4,0,0.8,0,1.1,0.1c27.1,3.1,54.4,4.7,81.6,4.7c14.8,0,29.8-0.5,44.5-1.4c14.8-0.9,29.7-2.3,44.4-4.2
			c0.3,0,0.5-0.1,0.8-0.1c2.5,0.1,4.9,1.1,6.8,2.8c2,1.5,3.3,3.6,3.9,6c6.1,38.7-1,77.2-8.7,113.2l-1.5,6.8
			c-1.4,6.6-3,13.5-5.2,20.3c-2,6.7-4.9,13.1-8.5,19.1c-3.8,6-8.5,11.4-13.9,15.9c-5.5,4.5-11.6,8.2-18.1,11
			C-1997.6-2170.4-2009.8-2168.1-2022.1-2168.2z"/>
		<path id="_Skin-60_00000154419607444078558150000014407075926472663196_" class="st0" d="M-2609.2-1950.8
			c-6.8,0-13.5-0.3-19.9-0.8c-5.8-0.6-11.5-2.2-16.9-4.5c-5.2-2.3-10.1-5.2-14.7-8.6c-9.2-6.8-17.5-15.4-25.6-23.8l0,0
			c-4.4-4.6-8.9-9.3-13.5-13.6c-21.1-21.6-41.6-44-61-66.8c-19.6-23-38.5-46.8-56.2-70.9l-0.7-1c-1.9-2.6-3.9-5.2-5.8-7.7
			c-4.9-6.4-10-13-13.9-20c-2-3.5-3.6-7.1-4.9-10.9c-1.3-3.8-2.1-7.8-2.3-11.8c-0.5-1.6-0.6-3.2-0.3-4.8c0.3-1.8,0.9-3.5,1.7-5.1
			c1.6-3.3,3.9-6.1,6.7-8.5l1.7-2.5c7.2-10.4,14-19.7,20.8-28.5c7.6-9.9,15-18.8,22.5-27.2c8.1-9.1,16.4-17.6,24.6-25.2
			c8.6-8,17.6-15.5,27.1-22.5c-0.1-2.1,0.4-4.2,1.3-6.2c1-2,2.4-3.8,4.3-5.1l158.4-114.6c13.1-9,26.1-18.7,38.6-28
			c13.4-9.9,27.2-20.2,41.2-29.7c13.9-9.6,28.4-18.3,43.4-26.2c6.2-3,12.5-5.6,18.9-7.9c6-2.2,12.4-4.2,19.4-6.1
			c13.1-3.6,26.6-6.5,39.6-9.3c10.8-2.3,22-4.7,32.8-7.5c10.9-2.7,21.6-6.1,32.1-10.1c0.4-5.9,6.2-9.5,10.9-11.5
			c4.7-2,9.8-3.2,14.9-3.4c1.1,0,1.7,0.1,1.9,0.4c0,0.1,0,0.1,0,0.2c13.8-8.4,25.1-17.9,33.5-28.2c3.7-4.6,7-9.5,9.7-14.8
			c2.4-4.7,4.2-9.6,5.5-14.6c1-4.7,1.8-9.5,2.2-14.2c0.7-6.5,1.3-12.6,3.9-17.5c2.8-5.4,7.8-8.9,15.5-11c6.5-0.5,13-0.7,19.3-0.7
			c13-0.1,25.9,1,38.7,3.1c12.7,2.1,25.1,5.7,36.8,10.9c5.6,2.6,11,5.6,16.1,9.1c5,3.5,9.6,7.5,13.8,11.9c4.2,4.6,7.8,9.6,10.8,15.1
			c3.1,5.8,5.6,12,7.2,18.5c1,5,2.5,9.9,4.5,14.6c1.7,4.1,3.9,7.9,6.4,11.6c5.1,7.2,11.7,13.5,19.3,20.4c4.4,5.5,8.2,11.4,11.4,17.7
			c2.6,5.1,4.6,10.6,5.8,16.2c2.1,9.4,1,19.2-3.2,27.8c-3.7,7.5-9.7,14.4-18,20.5c-7.9,5.8-17.7,10.8-29.2,14.9
			c-12,4.2-24.4,7.2-37,9c-13.7,2.1-27.6,3.1-41.5,3.1c-9.1,0-18.3-0.4-27.3-1.3c-9.1-0.9-18.2-2.1-26.9-3.8
			c-16.9-3.1-33.4-8.3-49-15.5c-15.4-7.2-27.8-16.1-37-26.2c-10-11-16-23.6-18-37.4c-19,6.9-39.2,11.2-58.6,15.3
			c-19.7,4.2-40.2,8.5-59.4,15.6c-21.1,7.8-40.2,20.2-57.6,32.4c-42,29.8-84.4,60.7-125.4,90.5c-30.7,22.3-62.4,45.4-93.8,67.9
			c20.9,9.6,55.5,39.1,63.6,67.4c3.1,11,2,20.7-3.4,28.9c-4.1,5.3-9.9,9.3-15.5,13.1l0,0c-1.3,0.9-2.6,1.8-3.9,2.7l-3.5,2.5
			c-3.4,2.4-7.7,5.6-12.3,8.9c-5.5,4-11.3,8.1-15.2,11l-1.3,1c-0.4,0.3-1,0.7-1.6,1.2c51.3,74.8,110.8,143.7,177.3,205.3
			c1.5,1.4,2.5,3.2,2.9,5.2c0.4,2,0.3,4.1-0.3,6.1c-0.5,1.7-1.4,3.3-2.7,4.6c-1.3,1.3-3,2.2-4.8,2.5l-9.7,1.4
			C-2558.1-1954.2-2583.8-1950.8-2609.2-1950.8z M-1893.3-1970.9c0.5,0.1,1,0.2,1.5,0.2c1.9,0,2.4-1.3,3.4-3.6
			c0.1-0.3,0.2-0.6,0.4-0.9l0.2-0.5c1.7-4.1,3.4-8.2,5.1-12.2l0,0c0.8-1.9,1.7-4.1,2.6-6.2c19.8-48.8,41-98,61.5-145.6l1.5-3.4
			l3.8-8.7c2.2-4.9,2.1-10.6-0.3-15.5c-2-4.1-5.5-8.2-10.5-12c-2.8-2.1-5.8-4-8.9-5.8c-5.6-3.4-11.4-6.9-11-8.2
			c0.1-0.4,0.8-0.6,1.9-0.6c3.2,0.2,6.4,0.7,9.5,1.5c-2.5-5.8-3.8-12-3.9-18.3c0-6.1,0.9-12.1,2.8-17.9c3.1-10.1,8.9-20.7,17.6-32.5
			c3.1-4.8,6.6-9.3,10.5-13.5c3.1-3.4,6.6-6.5,10.4-9.2c3.1-2.2,6.6-4,10.2-5.2c3.2-1.1,6.6-1.6,10-1.6c4.1,0,8.2,0.8,12,2.3
			c4.1,1.6,7.9,3.7,11.4,6.3c6.9,5,13.9,12.3,20.8,21.5c6.5,8.9,12.4,18.3,17.5,28.1c4.7,8.8,9.1,18.3,13.3,28.3
			c2.8,7.9,4.7,16.1,5.6,24.4c0.9,8.4,1,16.9,0.3,25.3c-0.7,8.7-2.1,17.3-4.1,25.8c-2,8.8-4.6,17.4-7.6,25.9
			c-6.2,17.3-13.5,34.2-21.9,50.5c-8.2,16.3-17.1,32.2-24.9,46.2l0,0l0,0c-1.9,3.4-3.7,6.6-5.5,9.8c-2.7,3.7-5.7,8.4-8.8,13.3
			c-5.2,8.3-11.1,17.7-17.7,25.2c-7.6,8.6-14.7,13.2-21.9,14l0,0 M-2022.1-2168.2c-8.3,0-16.6-0.9-24.7-2.7
			c-8.2-1.8-16.2-4.3-23.9-7.6c-15.2-6.5-29-15.8-40.7-27.4c-14.5-19.8-9-43.4-3.8-66.2c1.9-8.2,3.8-16.7,4.7-24.7
			c-2.3-5.8-3.5-12.2-4.7-18.5c-0.5-2.4-0.9-4.8-1.4-7l-0.2-1l-7.1-30.8c-0.8-4,0.2-8.1,2.7-11.3c0.9-1.2,2-2.1,3.3-2.8
			c1.3-0.7,2.8-1.1,4.3-1.1c0.4,0,0.8,0,1.1,0.1c27.1,3.1,54.4,4.7,81.6,4.7c14.8,0,29.8-0.5,44.5-1.4c14.8-0.9,29.7-2.3,44.4-4.2
			c0.3,0,0.5-0.1,0.8-0.1c2.5,0.1,4.9,1.1,6.8,2.8c2,1.5,3.3,3.6,3.9,6c6.1,38.7-1,77.2-8.7,113.2l-1.5,6.8
			c-1.4,6.6-3,13.5-5.2,20.3c-2,6.7-4.9,13.1-8.5,19.1c-3.8,6-8.5,11.4-13.9,15.9c-5.5,4.5-11.6,8.2-18.1,11
			C-1997.6-2170.4-2009.8-2168.1-2022.1-2168.2z"/>
	</g>

		<rect id="_Top-23_00000161633149159574891690000004685930607982278536_" x="-2127" y="-2368.4" class="st0" width="199" height="200"/>
	<path id="_Ink-20_00000177443356179295207110000001307141631483221663_" d="M-1792.6-1947.4c-1.6,0-3.1-0.4-4.5-1.1
		c-1.4-0.7-2.6-1.7-3.5-2.9c-1.6-2.1-2-4.9-1.1-7.4c0.2-0.7,0.4-1.3,0.6-2c0.9-3.2,2.1-6.3,3.6-9.2c1-1.8,2-3.6,3.1-5.4
		c0.5-0.9,1.1-1.8,1.6-2.8c1.6-2.8,3.2-5.6,4.7-8.1l0,0c1.5-2.7,3.1-5.4,4.7-8.1c3-5.2,6.1-10.5,9.2-15.6c3.6-6,7.3-12.2,10.8-18.4
		c12.5-22,22.8-41.9,31.3-60.8l1.1-2.5c3.6-8,8.3-18.6,12.1-29.4c3.7-9.9,6.5-20.2,8.5-30.6c1-5.4,1.5-10.8,1.6-16.2
		c0.1-5.3-0.2-10.6-0.9-15.9c-1.5-10.7-4.2-21.1-8.1-31.1c-4.4-11.8-9.4-23-13.3-31.5l-0.9-2c-0.4-0.9-0.9-1.8-1.3-2.8
		c-4.1-8.8-8.3-18-10.4-27.7c-0.1-0.2,0-0.5,0.2-0.7c0.2-0.2,0.4-0.3,0.6-0.3c0.2,0,0.4,0.1,0.5,0.2c7.8,7.5,13.9,16.9,19.8,25.9
		c1.6,2.4,3.3,5,4.9,7.4c1.5,2.3,3.1,4.5,4.6,6.7c5.8,8.4,11.9,17,16.2,26.5c5.2,10.9,8.3,22.6,9.4,34.6c0.9,10.7,0.1,22.2-2.4,36.2
		c-2.2,11.7-5.3,23.2-9.4,34.4c-4.5,12.7-10,24.9-13.7,33c-8.7,19-19.1,39.1-31.9,61.6l-4.1,7.2c-4.8,8.3-9.9,17.2-15.5,25.9
		c-1.1,1.7-2.2,3.5-3.3,5.2l0,0c-5.4,8.6-11.1,17.6-18.5,24.9C-1788-1948.3-1790.2-1947.4-1792.6-1947.4z M-1891.4-1958.8
		c-2.1,0-4-1-5.3-2.7c-1.2-1.5-1.7-3.5-1.2-5.4c1.5-6.1,3.5-12.2,5.8-18.1c1-2.7,2-5.5,2.9-8.2c1-3,2-6,3-9l0-0.1
		c1.9-5.6,3.8-11.4,5.8-17.2c5.1-14.8,10.7-29.2,16.9-45.1l5.8-14.8c5.1-13.1,11.1-28.4,17.5-43.4l0.7-1.6c0.5-1.1,0.9-2.2,1.4-3.2
		l0.1-0.1c3-7.1,6.1-14.4,9.8-21.3c3.5-6.9,8-13.2,13.3-18.8c0.2-0.2,0.4-0.2,0.6-0.3c-2.8-1.5-5.5-3.4-7.8-5.6l-0.1-0.1
		c-1-1.1-3.3-3.4-4.5-6.2c-1.5,0.5-19,14-26,13s-18.9-13.2-20-15c-0.8-1.2-37.4-46.4-38.8-49.8c-0.3-0.7-0.5-1.5-0.6-2.3
		c-0.4,2.9-0.9,5.8-1.2,7.8c-3,20.2-5.4,38.1-7.2,54.6c-2.1,19.6-3.5,37.6-4.1,54.9c-0.8,21.9-3.2,51.7-22.2,59.7
		c-19,14-21,28-143,18c-49.5-4.1-82.4-23.9-134-26c-73.1-3-158,14-158,14c-15.3-3.3-61.8-38.4-61.5-56.5c0.2-18.3,0-36.7-0.8-54.7
		c-0.8-18.2-2-36.6-3.8-54.6c-1.8-18.2,0.1-22.1,0.1-22.1c-13.8,5.2-43.3,13.3-59,20c-16.8,7.2-52.2,25.8-57,31
		c-57,62-42.1,21.2-92-23c-6,4-10.9,6.8-14.9,10l-0.1,0.1c-0.7,0.6-1.4,1.2-2.1,1.7c-5.8,4.7-10.9,8.9-15.5,12.8
		c-0.5,0.5-1.1,0.9-1.6,1.3c-1.6,1.2-3.1,2.5-4.5,4l-0.3,0.3c0,0-0.1,0.1-0.1,0.1c7.3,4.7,13.9,11.9,19.7,18.2l0.1,0.1l1,1
		c6.7,7.2,13.1,14.8,19.2,21.9l6.1,7.2c1.8,2.1,3.6,4.2,5.4,6.3l0.1,0.1c20.4,24.1,41.4,49,63.8,72c12,12.4,23.4,23.2,34.8,33
		c12.1,10.5,24.8,20.3,38,29.2c1.6,1,2.8,2.6,3.4,4.4c0.5,1.7,0.5,3.4-0.1,5.1c-0.5,1.7-1.5,3.2-2.8,4.4c-1.3,1.2-2.9,1.8-4.6,1.8
		c-1.5,0-3-0.5-4.3-1.4c-16.5-11.5-32.3-23.9-47.2-37.4c-12.6-11.2-25-23.2-37.7-36.9c-11.3-12.1-22.6-25.1-34.6-39.8
		c-10.1-12.4-20.8-26.1-32.8-42.1l-3.6-4.8c-4.6-6.1-9.5-12.7-14.2-19.5l-1-1.4c-4.2-6-8.4-12.5-10.9-19.1c-1.1,1.1-2.4,2-3.8,2.5
		c-0.5,0.2-1,0.3-1.5,0.3c-2.5-0.1-4.7-1.8-5.5-4.2c-1.6-6.4,3.6-10.3,8.2-13.7l0.6-0.5c5.8-4.4,11.8-8.6,17.4-12.5l2.1-1.5l1.4-1
		c6.8-4.8,13.8-9.8,21.3-13.7c0.2-0.3,0.5-0.6,0.9-0.9c0.4-0.3,0.8-0.6,1.1-0.9c-4.9-7.9-9.9-15.5-15-22.7
		c-5.3-7.5-10.9-14.8-16.6-21.6c-8.8-10.5-18.1-20.6-27.9-30.2l-4.4-4.3c-6.6-6.6-13.7-12.8-21.1-18.6l-2.3,2.6
		c-2.8,3.2-6.1,6.8-9.5,10.3c-6.7,6.7-13.2,13.4-19.3,19.7c-10.5,10.8-20.7,22.1-31.1,33.7l-5.1,5.7c-2.8,3.1-5.7,6.3-8.6,9.3
		c-7.9,8.6-16.1,17.4-23.2,26.7l-0.5,0.6c-2.1,2.7-3.8,5.8-5,9c-1.1,3.3-1.2,6.8-0.3,10.2c1.6,6,5.2,11.3,8.6,16.5l0,0
		c0.6,0.8,1.1,1.7,1.7,2.6l0.4,0.6c16.4,25.5,33.6,49.7,51.1,71.9c20.2,25.5,39.5,47.2,58.9,66.3c10.9,10.7,22,20.6,33,29.6
		c11.4,9.4,23.4,18.1,35.8,26.1c1.3,0.8,2.2,2,2.7,3.3c0.4,1.3,0.4,2.6,0,3.9c-0.4,1.3-1.1,2.5-2.2,3.4c-1,0.9-2.3,1.4-3.6,1.4
		c-1.2,0-2.3-0.4-3.3-1.1c-14.5-9.5-28.4-19.9-41.7-31c-12.7-10.6-25.6-22.4-38.4-35.1c-10.8-10.7-21.3-22.2-32.3-35.1
		c-9.6-11.3-19.3-23.6-29.7-37.3c-9.2-12.3-18.3-25-26.8-37.9c-1.7-2.5-3.4-5.1-5.1-7.6l0,0c-6.9-10.1-14-20.6-18.8-31.7
		c-1.6-3.6-2.6-7.4-3-11.3c-0.4-3.9,0-7.8,1.3-11.5c2.5-7.3,7.4-13.3,11.9-18.4l0.5-0.5c10.4-11.7,21.6-23.9,34.1-37.3
		c10.7-11.5,22.5-23.2,35.9-35.8c9.5-8.9,19.7-17.1,30.5-24.5c-1-0.7-1.9-1.4-2.9-2c-1.5-1-2.5-2.6-2.7-4.4
		c-0.2-1.6,0.4-3.3,1.6-4.5c5.4-5.2,11-10.2,16.8-14.8c2.1-1.8,4.4-3.6,6.5-5.4c7.5-6.4,15.3-13,22.1-18.7
		c15.1-12.8,30.6-26,44.3-37.6l0.5-0.5c19.4-16.4,39-33.3,58-49.5l0.1,0c6.9-5.9,14.7-12.6,22.3-19.1c9-7.7,18.1-15.4,27-22.8l0,0
		c2.2-1.9,4.4-3.7,6.6-5.6l20-16.8l9.8-8.2c4.9-4.3,10.2-8.2,15.8-11.5c11-6.2,23.8-9.5,36.3-12.7l0,0c2.6-0.7,5.3-1.4,8-2.1l1-0.3
		c18.1-5,34.4-9.1,49.9-12.6c16.6-3.8,33.6-7.3,50.5-10.4c13.8-2.6,30-5.2,46.2-5.6c2.3-0.9,4.7-1.3,7.2-1.4c1.8,0,3.6,0.3,5.2,1
		c1.7,0.7,3.2,1.6,4.6,2.8c2.2-0.8,4.4-1.4,6.5-2.1c5.4-1.6,10.6-3.2,15.6-6.4c7.1-4.6,13.3-10.3,18.6-16.9
		c5.3-6.6,9.6-14,12.8-21.8c3.2-7.8,5.7-15.9,7.5-24.2c0.1-0.2,0.2-0.3,0.4-0.3c0.2,0,0.4,0.1,0.4,0.3c0.7,4.7,0.8,9.4,0.5,14.1
		c-0.4,4.7-1.2,9.4-2.4,14c-2.5,9.1-6.4,17.8-11.6,25.7c-5.5,8.5-12.4,16-20.4,22.2l-0.6,0.5c-3.3,2.5-6.9,4.7-10.6,6.5
		c-3.7,1.8-7.8,2.8-11.9,2.9c-2.4,0-4.8-0.4-7-1.3c-0.3-0.1-0.6-0.3-0.9-0.4c1,1.6,2,3.2,2.9,4.8l0.1,0.2l0.3,0.5
		c1.8,3.2,3.6,6.5,5.3,9.6c1.3,2.4,2.6,4.9,4,7.3c5.4,10,12.4,19.1,20.7,26.9c4.1,3.8,8.4,7.3,12.9,10.5c4.5,3.1,9.1,6,14,8.5
		c9.7,5,19.8,9,30.4,11.8c10.6,2.9,21.4,4.9,32.3,6.1c10.9,1.2,21.9,1.7,32.9,1.7c1,0,2,0,3,0l3.1,0c1.4,0,2.8,0,4.2,0
		c9.3,0,19.9-0.1,29.8-1.7c11.4-1.9,19.9-5.7,26.1-11.5c4-3.9,7.3-8.4,9.8-13.3c2.5-4.9,4.8-10,6.8-15.2c2.7-6.8,4.9-13.8,6.9-20.6
		l0,0c1-3.2,2-6.4,3-9.6c-7-4.7-13.1-10.5-18.1-17.2c-2.6-3.5-4.8-7.2-6.7-11.1c-1.9-3.9-3.4-8-4.6-12.2l-0.3-1.3
		c-1-3.6-1.7-7.3-2-11.1c-0.4-3.7,0-7.4,1.4-10.8c0.2-0.3,0.5-0.5,0.9-0.5c0.4,0,0.8,0.2,1,0.5c0.9,2,1.5,4.1,1.9,6.3
		c0.2,1.1,0.5,2.3,0.8,3.4c1,3.8,2.3,7.5,3.9,11.1c3.1,7,7.2,13.5,12.2,19.3c4,4.8,8.5,9.1,13.5,12.8c1.8-3.2,5.4-5,10-5
		c1.9,0,3.8,0.3,5.6,0.8c7.7,2.3,15.4,5.1,22.8,8.2l1.5,0.6c1.8,0.8,3.6,1.5,5.6,2.2h0c5.8,2.3,11.8,4.7,17,7.8
		c1.9,0.9,3.7,1.8,5.5,2.7l0,0c2.2,1.1,4.4,2.1,6.4,3.1c16.3,7.6,33.5,16.2,55.9,27.8l4,2.1c8.6,4.5,15.7,8.3,22.1,13.7
		c6.8,5.7,12,13.4,17.1,20.8l0.1,0.1c6.3,9.3,12.6,18.9,18.6,28.1v0l0,0c4.9,7.5,9.9,15.2,14.9,22.7l0,0
		c22.4,33.4,88.4,127.5,88.8,132c0.4,4.4,0.8,16,0.3,20.4l-0.2,1.7c-1.7,15.8-4.6,32.4-14.2,47.2c-3.7,5.6-7.9,10.7-12.6,15.4
		c-4.7,4.6-9.7,8.8-15.1,12.6c-5.4,3.8-11.1,7.2-16.9,10.2c-5.9,3-17,9-16.5,9.4c2.4,2,5,3.7,7.8,5c5.5,2.3,11.4,3.7,17.4,4.1
		c1.3,0.1,2.6,0.1,3.7,0.1c0.5,0,1,0,1.4,0c0.4,0,0.9,0,1.4,0c2.2-0.1,4.3,0.1,6.5,0.5c2.1,0.4,4.1,1.3,5.7,2.7
		c1.1,1,1.6,2.4,1.6,3.9c0,1.4-0.5,2.8-1.6,3.7c-2.4,2-5.4,2.9-9.4,2.9c-2.2,0-4.4-0.2-6.6-0.5h0c-0.5-0.1-1-0.1-1.4-0.2l-0.4,0
		c-5.6-0.5-11.1-1.8-16.4-3.7c-1.3-0.5-2.6-1.1-3.8-1.7c0,0.1,0.1,0.3,0,0.4c-1.1,6.8-2.7,13.5-4.9,20l-1.3,4.2
		c-2.2,7-5.1,16.2-8.1,25.5c-5.1,15.7-10.6,31.1-16.7,48.2l-5,13.8c-4.9,13.6-10.1,28.1-15.9,42.3c-2.8,6.9-5.7,13.9-8.5,20.6l0,0
		l-0.9,2.1l-1.3,3c-1.1,2.6-2.1,5.4-3.1,8.1c-2.1,5.9-4.6,11.7-7.5,17.4C-1887.4-1960-1889.3-1958.8-1891.4-1958.8z M-2055.3-2202.4
		c-5.3,0-10.1,2.1-15.4,4.7c2.8,1.2,5.8,2.5,9.1,3.9l20.1,8.6c1.9,0.8,3.9,1.6,5.8,2.4c4.9,1.9,9.6,4,14.2,6.4
		c0.4,0.2,0.8,0.5,1.1,0.9c4.1-2.6,8.4-5.1,12.5-7.5c2.5-1.5,5.1-3,7.6-4.5c1.6-1,3.3-1.9,4.6-2.7c-4.9,1.8-10,2.7-15.3,2.8
		c-3.2,0-6.3-0.4-9.4-1.3c-4.8-1.4-9.4-3.9-13.8-6.3c-3.1-1.8-6.3-3.4-9.6-4.8c-3.2-1.4-6.6-2.3-10.1-2.6
		C-2054.4-2202.4-2054.8-2202.4-2055.3-2202.4z M-2055.4-2211.8c1.2,0,2.3,0.1,3.5,0.2c7.2,0.9,13.5,4.4,19.6,7.7
		c5,2.7,10.1,5.5,15.6,6.9c2.1,0.6,4.4,0.8,6.6,0.8c7.4,0,14.6-3,21.6-5.9c5-2.1,10.1-4.2,15.3-5.2c2.4-0.5,4.8-0.7,7.3-0.8l0.8,0
		l0.4-0.2c0.8-0.5,1.7-0.9,2.6-1.4c2.7-1.4,5.7-2.9,7.3-5.2c1.8-2.5,2.3-6.3,2.8-9.6v0c0.2-1.1,0.3-2.2,0.5-3.1
		c0.1-0.4,0.2-0.8,0.2-1.2h0c-1.4,0-2.8,0.1-4.1,0.3c-4.4,0.9-8.6,2.3-12.6,4.1c-1.8,0.8-3.6,1.5-5.3,2.3c-5.9,2.8-12,5.1-18.2,6.9
		c-5.7,1.6-11.5,2.4-17.4,2.5c-2.4,0-4.8-0.2-7.2-0.5c-3.9-0.6-7.6-1.7-11.2-3.4c-3.5-1.7-6.9-3.6-10.2-5.9l-1.1-0.7l-0.7-0.5
		c-4.3-2.9-9.1-6.3-14.1-6.3c-1.7,0-3.5,0.4-5,1.2c-1.7,0.9-3.4,2-5,3.3c-1.4,1.1-2.9,2.1-4.4,3c-3.3,1.9-6.9,3.2-10.6,4.1
		c-3.4,0.8-7,1.2-10.5,1.2c-3.1,0-6.2-0.3-9.2-0.9l0.1,8.9c5.3,2.2,10.5,4.4,14.8,6.3c3.1-1.1,6.1-2.3,9.5-3.9l2.2-1
		C-2065.2-2210.6-2060.2-2211.8-2055.4-2211.8z M-2053.3-2240.2c1.2,0,2.3,0.1,3.4,0.3c6.3,1.1,11.6,4.8,16.8,8.4
		c0.5,0.4,1.2,0.8,1.8,1.3l0.9,0.6c3.2,2.1,6.5,3.9,10.1,5.2c3.6,1.3,7.4,2,11.2,2h0.4c4.3,0,8.6-0.6,12.8-1.6
		c4.2-1,8.3-2.3,12.3-3.8c1.7-0.6,3.4-1.3,5-1.9c6.2-2.4,12.5-4.8,19.4-5.7c1.4-0.2,2.9-0.3,4.3-0.3c1.5,0,3.1,0.1,4.6,0.4
		c0.4-2.3,0.8-4.5,1.1-6.7c0.8-4.6,1.4-9.5,2-14.4c-1.9-0.5-4-0.8-6-0.8c-8,0-15.7,4-23.2,7.8c-4.8,2.4-9.7,4.9-14.5,6.3
		c-4.2,1.2-8.5,1.8-12.8,1.8c-4.3,0-8.6-0.6-12.7-1.7c-6.6-1.8-11.9-5.3-17.5-9c-0.8-0.5-1.7-1.1-2.6-1.7l-1.2-0.8
		c-2.8-1.8-5.8-3.5-9.1-3.5c-0.5,0-1.1,0.1-1.6,0.2c-2.4,0.5-4.6,1.9-6.7,3.4c-1,0.7-1.9,1.3-2.8,1.8c-3.3,1.9-6.8,3.3-10.5,4.4
		c-3.7,1-7.4,1.7-11.2,1.9c-1.1,0.1-2.3,0.1-3.4,0.1c-5.3,0-10.5-0.8-15.5-2.3l0.2,19.7c2.3,0.7,4.6,1.2,7,1.4
		c0.9,0.1,1.8,0.1,2.6,0.1c3.2,0,6.4-0.4,9.5-1.3c3.1-0.9,6-2.3,8.7-4l3.1-2.1C-2063-2237.7-2058.7-2240.3-2053.3-2240.2
		L-2053.3-2240.2z M-2046.7-2267.6c2.9,0,5.8,0.7,8.5,1.9c2.7,1.2,5.3,2.7,7.7,4.4l1.8,1.2c6.7,4.5,13.3,8.6,21.9,9.4
		c1.1,0.1,2.1,0.1,3.2,0.1c8,0,15.2-2.8,21.7-5.9l1.9-0.9c7.8-3.6,16.1-6.9,23.9-6.9c3.4-0.1,6.7,0.7,9.7,2.2
		c0.8-7.3,1.4-15,1.8-22.7c-1.4-0.6-3-0.9-4.5-0.9h-0.1c-4,0-8.2,1.3-11.8,2.6c-4.4,1.5-8.7,3.5-12.8,5.5l0,0
		c-3.6,1.6-7.2,3.3-10.9,4.8c-5.8,2.3-11.9,3.5-18.2,3.6c-2,0-4.1-0.2-6.1-0.5c-3.6-0.6-7-1.8-10.1-3.7c-3.1-1.9-5.9-4.2-8.3-6.8
		l-0.8-0.8l-0.2-0.2c-2.3-2.4-4.6-4.9-8-5.6c-0.5-0.1-1-0.1-1.6-0.1c-2.7,0-5.4,1.3-7.7,2.6c-2.3,1.3-4.5,2.7-6.6,4.1
		c-4.5,2.9-9.2,6-14.7,7.4c-3,0.8-6.2,1.1-9.3,1.1c-7,0-14.6-1.7-22.6-5.1c0,6.1,0.1,12.3,0.1,18.2c1.9,0.7,3.9,1.3,5.9,1.8
		c7.2,1.6,14.7,1.4,21.9-0.7c3.4-1.2,6.6-2.7,9.6-4.7c3.2-1.9,6.6-4,10.3-4.9C-2049.4-2267.4-2048-2267.6-2046.7-2267.6
		L-2046.7-2267.6z M-2037.8-2296.7c3.2,0,6.3,0.9,9,2.5c2.7,1.6,5.2,3.7,7.4,6l0.6,0.6c2.4,2.7,5.3,4.9,8.4,6.6
		c3.1,1.5,6.6,2.3,10.1,2.3c0.8,0,1.6,0,2.5-0.1c7.6-0.6,14.9-3.7,21.8-6.6c0.9-0.4,1.9-0.8,2.9-1.2l0.7-0.3
		c6.1-2.5,13.1-5.2,20.1-5.2c1.2,0,2.4,0.1,3.5,0.2c2.3,0.3,4.5,1,6.6,1.9c0.3-7.1,0.5-14.4,0.5-22.4c-3.2-2.6-7.2-3.9-11.3-3.8
		c-2,0-4,0.3-5.9,0.8c-5.1,1.4-9.7,4.2-14.2,6.9c-3.3,2.1-6.8,4-10.4,5.6c-4.1,1.8-8.5,2.7-12.9,2.8c-3.5,0-6.9-0.6-10.1-1.9
		c-4.7-1.8-8.8-4.6-12.8-7.3c-2.8-2-5.7-3.8-8.7-5.5c-4.4-2.3-7.9-3.4-11-3.4c-0.6,0-1.1,0-1.7,0.1c-4.2,0.6-7,3.5-9.5,6.4l-1.4,1.7
		c-2.2,2.6-4.5,5.1-7.1,7.3c-2.7,2.2-5.7,3.9-9,4.9c-2.7,0.8-5.5,1.3-8.4,1.3c-4.7,0-9.3-1.1-13.5-3.2c-2.2-1.2-4.4-2.5-6.5-3.9
		l-0.4-0.3l0.1,15.9c4.5,2.4,9.3,4.2,14.2,5.5c2.6,0.6,5.2,1,7.9,1c3,0,6-0.5,8.8-1.4c3-1,5.9-2.4,8.5-4.1l0.8-0.5
		c0.7-0.5,1.4-0.9,2-1.4c5.4-3.6,11-7.3,17.5-7.7C-2038.6-2296.7-2038.2-2296.7-2037.8-2296.7L-2037.8-2296.7z M-2098.9-2327.1
		c0,2.9,0,5.7,0,8.5v0c0,1.1,0,2.2,0,3.4c1.7,1,3.3,2,4.8,3c0.4,0.3,0.8,0.5,1.2,0.8l0.7,0.4c3.6,2.3,8.5,4.9,14,4.9
		c1.9,0,3.8-0.3,5.7-0.9c5.2-1.7,8.3-5.4,11.6-9.4v0c1.1-1.3,2.3-2.7,3.5-4c2.1-2.2,4.5-4,7.2-5.2c2.7-1.3,5.6-1.9,8.6-1.9
		c0.3,0,0.6,0,0.9,0c6,0.2,12.4,2.6,19.3,7.1c1.4,0.9,2.8,1.9,4.2,2.9h0c4.3,3,8.8,6.2,13.8,7.6c1.7,0.5,3.4,0.7,5.1,0.7
		c3.6-0.1,7.1-0.9,10.4-2.4c3.5-1.6,6.8-3.3,10.1-5.3c5.4-3.1,11-6.3,16.7-7.3c1.3-0.2,2.7-0.3,4-0.3c2.4,0,4.7,0.4,7,1.1
		c2.2,0.7,4.3,1.8,6.1,3.2c0-7.7-0.2-16.2-0.5-25.9c-8.1,0.3-16.3,3.7-24.1,7c-4.8,2.1-9.8,4-14.8,5.4c-3.2,0.8-6.4,1.3-9.7,1.3
		c-4.9-0.1-9.8-0.9-14.4-2.5c-4.8-1.6-9.5-3.5-14.1-5.7l0,0l-1.6-0.7c-5.3-2.3-11.1-4.5-17-4.5c-1.2,0-2.4,0.1-3.6,0.3
		c-6.4,1.1-12.2,4.4-17.8,7.7l-0.1,0.1l-1.3,0.8l-1.2,0.7c-4.8,2.8-9.8,5.1-15,6.9c-5.2,1.8-10.6,2.7-16,2.7
		C-2096.3-2327-2097.6-2327-2098.9-2327.1L-2098.9-2327.1z M-2100.3-2348.4c-0.1,0.5-0.3,0.9-0.5,1.4c0.7,3.6,1.2,7.2,1.4,10.9
		c1.6,0.2,3.2,0.3,4.7,0.3c2.8,0,5.6-0.3,8.3-0.8c7.2-1.5,13.5-5.2,19.7-8.8c2.6-1.5,5.3-3.1,8.1-4.5c-1.9,0.1-3.8,0.2-5.6,0.2h0
		c-7.3,0.3-14.1,0.7-20.8,1c-1.3,0.1-2.7,0.2-4.2,0.4c-2.1,0.3-4.2,0.5-6.3,0.5C-2097-2347.7-2098.7-2347.9-2100.3-2348.4
		L-2100.3-2348.4z M-1995.5-2351.5c-8.2,0.1-16.7,0.1-25,0.3l-3,0.1c-0.1,0-0.1,0-0.2,0c-0.1,0-0.1,0-0.2,0c2.8,1.1,5.5,2.3,8.7,3.7
		l2.9,1.3c5.9,2.7,12.2,5.2,19.2,5.2c0.7,0,1.4,0,2.1-0.1c6.7-0.5,13.2-2.9,19.4-5.1c1.3-0.5,2.7-1,4-1.4c5.9-2.2,12.1-3.4,18.3-3.5
		c1.7,0,3.4,0.1,5,0.3v-0.2c0-0.7,0-1.3-0.1-2C-1961.4-2351.7-1978.8-2351.6-1995.5-2351.5L-1995.5-2351.5z"/>
</g>
<g id="head_Cornrows_00000127031909635209259280000004256285652643155863_" transform="translate(635 2782)">
	<g id="_Skin-28_00000134947575124133444130000008815598978471880330_">
		<path id="_Skin-30_00000064312247752835935360000017277921279622669711_" class="st0" d="M105-2332c2.2,1-0.1-9.3,2.9-9.2
			c99.1-6.7,167.8,5.7,216.1,103.2c2,1.6,5.9,0.1,6.8,2.5c17.1,40.9,23.4,83.8,17.2,128.5l2-4c0,0.1,4.9,4.3,4.9,4.4h0
			c-0.1,4.2-5.9,10.8-9.9,12.6c3.9,60.9-11.7,127.3-66.6,160.4c-58.6,32.5-140.5,5.4-191.7-30.7c-42.4-37.8-59.4-65.8-75.4-113.8
			C11.3-2078.1-56.7-2264.1,105-2332z"/>
	</g>
	<g id="_Hair-4_00000044886375666146610270000015308835712279706784_">
		<path id="_Hair-6_00000100344439502819751680000003704097209984236448_" class="st1" d="M93.4-2329.2c0,0-46.1,33.3-61.3,48
			C17-2266.5-3-2182.5-3-2182.5l6.7,68.2c0,0-9.4-1.9-9.4,33.9s36,41.2,36,41.2l43.1,60.6l9.5,21.8c0,0-22.5,50-31.7,81.6
			c-11.9,18.3-27.1,33.3-46.9,41.2c-4.2,2.8-8.7,6.3-14,5.1c-3.4,1.3-6.9,2.3-10.5,3.2c-0.3,0.1-0.5,0.1-0.8,0.1
			c-1.6-0.1-2.9-1.4-2.8-3c0.1-1.2,0.9-2.3,2-2.6c1.5-0.5,3.1-1.1,4.7-1.7c-1.1-1.3-1.8-2.8-2.2-4.4
			c-10.8-50.5-21.7-100.9-32.5-151.4"/>
	</g>
	<path id="_Ink-10_00000039849271731134093540000000027415185395896997_" d="M106.3-2341.3c3.5-1.4,7.3-1.8,10.7-2.6
		c12.4-3.1,24.9-5.3,37.5-6.6c10.4-1.1,20.8-0.5,31,1.6c6.8,1.4,13.4,3.5,19.7,6.2c4.3,1.1,8.7,2.3,13,3.6c9.6,2.8,19,6.2,28.2,10.2
		c9.2,4,17.7,9.3,25.4,15.6c3.4,2.9,6.5,6.1,9.2,9.6c2.6,3.4,4.9,7,7,10.8c7.8,6.8,15.1,14.1,22,21.9c3.5,4,6.8,8.1,9.8,12
		c3.1,4.1,5.9,8.4,8.5,12.8c5.3,9.1,9.7,18.8,13.1,28.7c3.5,10.1,6.2,20.4,8.2,30.8c2,10.5,3.4,21.1,4.3,31.8
		c0.9,9.7,1.4,20.1,1.6,31.5c0.8,38.2-2.5,76.3-9.7,113.8c-1.5,8.3-3.8,16.5-6.8,24.5c-3,7.9-7.2,15.4-12.3,22.2
		c-5.9,7.7-12.7,14.7-20.4,20.7c-7.6,6-15.9,11.1-24.8,15.2c-9.2,4.3-18.7,7.5-28.6,9.8c-9.9,2.3-20,3.4-30.1,3.4
		c-9.8,0-19.7-1.2-29.2-3.6c-9.6-2.4-18.8-6.2-27.3-11.2c-3.7-2-5.4-6.2-4.2-10.2c0.6-2,1.7-3.9,3.3-5.3c1.6-1.4,3.6-2.2,5.8-2.2
		c1.7,0,3.3,0.5,4.7,1.3c7.5,4.2,15.5,7.4,23.8,9.5c8.3,2.1,16.7,3.1,25.2,3.1c11,0,21.9-1.6,32.5-4.7c10.6-3.1,20.7-7.7,30.1-13.5
		c14.8-9.3,26.5-21.6,33.7-35.6c5.5-10.7,7.9-22.7,10.1-35.1l1.1-6.4c6.6-37.1,9.2-74.8,7.8-112.4c-0.9-21.9-3.2-40.5-7-57
		c-2.1-9.4-5-18.5-8.5-27.5c-3.5-8.9-8-17.3-13.2-25.3c-5.6-8.4-11.9-16.3-18.8-23.7c-6.3-6.8-13.3-13.8-21.6-21.2
		c-1-0.9-2-1.8-3.2-2.8c-5.8-3.4-11.7-6.5-17.9-9.2l-1.3-0.5c-4-1.7-8.8-3.5-12.7-4.9c-6-2-12.5-4-19.3-5.8
		c-3.1-0.8-6.3-1.6-10.3-2.5c1.5,1.3,2.5,2.4,3.6,3.3c3.1,3.1,6,6.4,8.8,9.9c2.1,2.5,4.2,5.1,6.4,7.5c0.2,0.2,0.3,0.5,0.2,0.8
		c-0.1,0.3-0.4,0.5-0.7,0.5c-0.1,0-0.3,0-0.4-0.1c-5.5-2.7-11.1-5-16.9-6.9c-2.7-1-5.6-2-8.3-3.1c-5.9-2.4-11.8-5-17.6-7.6
		c-1.9-0.8-3.8-1.7-5.7-2.6c-1.7-0.8-3.5-1.6-5.2-2.4l-0.6-0.3c-8.9,0.1-16.1,0.3-22.8,0.7c4.6,3.3,9,6.8,13.1,10.6
		c4.1,3.8,7.9,7.8,11.4,12.1c0.3,0.3,0.3,0.7,0.1,1.1c-0.1,0.3-0.4,0.5-0.8,0.5c-0.1,0-0.2,0-0.3,0c-15-3.8-29-9.5-42.2-14.9
		l-6.6-2.8c-4.1-0.2-8-0.3-11.7-0.3c-1,0-1.9,0-2.9,0l-2.4,0c-5.1,0-10.2,0.4-15.3,1.1c-1.4,0.2-2.5,0.4-3.6,0.5
		c-7.2,2.8-13.9,6.5-20.2,11l1.6-0.1c1.9-0.1,3.8-0.2,5.7-0.2c7.9,0,15.8,1,23.4,3c9.1,2.5,17.7,6.5,25.3,12.1
		c7.7,5.5,14.4,12.1,20.1,19.7c0.1,0.1,0.1,0.3,0,0.5c-0.1,0.2-0.3,0.3-0.5,0.4c-0.1,0-0.2,0-0.3-0.1c-3.6-2.4-7.3-4.6-11.2-6.5
		c-3.8-1.9-7.8-3.5-11.8-4.9c-8.1-2.8-16.5-4.8-25-6c-5.7-0.9-11.5-1.4-17.4-1.4c-2.6,0-5.2,0.1-7.7,0.3c-2.4,0.2-4.8,0.6-7.1,1
		c-3.2,0.6-6.5,1-9.8,1.1c-1.3,0-2.6-0.1-4-0.3c-1.8,2.2-3.6,4.7-5.4,7.2c1.1-0.1,1.9-0.1,2.7-0.2c2-0.1,4-0.1,6-0.1
		c7.9,0,15.8,0.8,23.5,2.6c9.4,2.3,18.4,6.1,26.6,11.3c8.2,5.1,16,11,23.2,17.4c0.1,0.1,0.1,0.2,0.1,0.3c-0.1,0.1-0.2,0.2-0.3,0.2
		c-0.1,0-0.1,0-0.2,0c-7.9-4.5-16.5-7.7-25.4-9.6c-8.9-1.9-17.9-3.2-27-4c-6.4-0.6-12-0.9-17.3-0.9c-3.5,0-6.9,0.1-10.1,0.4
		c-2.4,0.2-4.8,0.5-7.2,0.8c-1.7,0.2-3.5,0.5-5.2,0.6c-0.3,0-0.5,0-0.8,0.1l-0.2,0c-2.9,5.4-5.6,11.2-8.2,17.2
		c6.3-1.7,12.8-2.6,19.4-2.7c1.4,0,2.7,0,4,0.1c8,0.6,15.8,2.6,23.2,5.7c7.4,3.1,14.4,7.1,20.8,11.8c0.2,0.1,0.2,0.4,0.2,0.6
		c0,0.2-0.2,0.3-0.4,0.3c-0.1,0-0.1,0-0.2,0c-8.2-3-16.8-4.5-25.5-4.4c-5.4,0-10.7,0.4-16,1.2c-6.7,0.9-13.3,2.3-19.8,4.2
		c-3.3,1-6.5,2.1-9.6,3.5c-1,0.5-2,1-2.9,1.5l0,0c-0.4,0.2-0.8,0.4-1.2,0.6c-1.1,3.6-2.1,7.4-3,11.3c5.8,0.3,11.6,1.2,17.2,2.7
		c5.7,1.4,11.2,3.3,16.6,5.6c10.7,4.6,21,10.2,30.7,16.7c0.2,0.1,0.3,0.4,0.2,0.6c0,0.2-0.2,0.3-0.4,0.4c-0.1,0-0.1,0-0.2,0
		c-5.8-2.1-11.7-3.8-17.7-4.9c-5.4-1.1-11.4-1.9-18.3-2.6c-4.1-0.4-8.6-0.6-13.7-0.6c-4.5,0-9,0.1-13.4,0.3h0c-1.5,0-3,0.1-4.5,0.1
		c-0.6,4.1-1,8.1-1.4,12c1.3,0.4,2.7,0.8,4,1.2l0.1,0l0.9,0.3c5.3,1.6,10.5,3.7,15.4,6.2c4.9,2.5,9.5,5.4,13.8,8.7
		c3.7,2.8,7.5,6.1,12.4,10.6c0.2,0.2,0.2,0.4,0.1,0.7c-0.1,0.2-0.3,0.4-0.5,0.4c-0.1,0-0.1,0-0.2,0c-9.7-3.9-20.4-6.4-29.7-8.4
		c-5.2-1.1-10.4-2.2-15.5-3.1c-0.5-0.1-1-0.2-1.5-0.2c-0.1,9.2,0.5,18.4,1.6,27.5l0.2,1.7c0.3,2.2,0.3,4.5-0.1,6.7
		c-0.4,2.1-1.4,4-2.8,5.6c4.3-2.9,9.2-4.8,14.4-5.5c1.8-0.3,3.7-0.4,5.5-0.4c5.8,0,11.6,1.3,16.8,3.9c5.3,2.6,10,6.4,13.7,11
		c0.1,0.2,0.2,0.4,0.1,0.6c-0.1,0.2-0.3,0.3-0.5,0.3c-0.1,0-0.3-0.1-0.4-0.1c-5.3-4.7-12.7-7.3-20.8-7.3c-4,0-8,0.6-11.8,1.9
		c-4.9,1.6-9.2,4.4-12.7,8.2c-3.5,3.7-6.1,8.2-7.6,13.1c-0.8,2.6-1.3,5.4-1.5,8.1c-0.4,5.5,0.3,11,2.1,16.2c0.9,2.6,2.1,5.1,3.5,7.5
		c1.4,2.4,3.2,4.6,5.2,6.5c2,1.9,4.4,3.4,7,4.5c0.6,0.3,1.3,0.5,2,0.7c0,0,0,0,0,0c0.1-0.4-17.8,3.3-27.8-17.7c-6.2-12.9-2-28,3-43
		c1.2-3.7-3.9-42.3-4-54c-0.1-8.9,7.6-41.4,8-50c0.5-9.8,5.9-23.7,7-33C6.3-2247.1,22.4-2307.5,106.3-2341.3z M40.7-2070.7
		c-1.4,0-2.8-0.5-4-1.4c-2.4-2-4.8-4.1-7.1-6.1c-3.8-3.5-7.9-6.8-12.1-9.8c-0.4-0.3-0.6-0.8-0.4-1.3c0.1-0.4,0.5-0.7,0.9-0.7H18
		c4.9,0.2,9.7,1,14.4,2.5c4.7,1.5,9,3.9,12.8,7c0.9,0.7,1.6,1.7,1.9,2.8c0.2,0.9,0.2,1.9-0.1,2.9c-0.5,1.3-1.3,2.3-2.4,3.1
		C43.4-2071.1,42.1-2070.7,40.7-2070.7z"/>
</g>
<g id="head_Cornrows_00000047028337869340984320000018413935192535143815_" transform="translate(635 2782)">
	<g id="_Skin-28_00000119077928828888062890000014484902828803693226_">
		<path id="_Skin-30_00000166672812646826767100000006978678719641563058_" class="st1" d="M9.4-2057.1c-0.3,2.7-0.3,2.9-1.4,4.9
			c-37.3-3.2-61.1,37.5-51.9,71"/>
	</g>
	<path id="_Ink-10_00000163755087992329262350000015763400007176669824_" d="M80.3-1963.4c8.5,10.3-41.3,27.8-50.2,28.4
		c-17.2,1.2-60-12.9-60.3-17c0-0.1,0-0.2,0-0.2c0-0.1,0-0.3,0.1-0.4c-4.7-4.3-8.6-9.4-11.6-15.1c-2.7-5.3-4.5-11-5.3-16.9
		c-0.9-5.9-1-11.9-0.5-17.8c0.1-1,0.2-2,0.4-3c0.5-3.3,1.2-6.5,2.3-9.6c1.1-3.1,2.4-6.2,4-9.1c1.6-3,3.5-6,5.4-8.8
		c1.5-2.2,3-4.4,4.3-6.8c0.1-0.1,0.2-0.2,0.3-0.1c0.2,0,0.3,0.2,0.3,0.4c0,0,0,0,0,0.1c-0.7,2.5-1.2,5.2-1.5,7.8
		c-0.3,4.4-0.4,8.9-0.1,13.3l0,0.7c0.1,2.1,0.2,4.2,0.2,6.3c0,4.6,0.3,9.2,0.9,13.8c1.3,9.6,5.2,22.8,16.6,31.5
		c6.7,4.9,14.2,8.5,22.2,10.7c8,2.2,16.2,3.5,24.5,3.7c8.1,0.3,16.2-0.5,24.1-2.3c2.5-0.6,4.9-1.5,7.3-2.6c2.4-1.1,4.9-2,7.4-2.6
		c-2.2-1.5-4.4-3-6.4-4.5c-2.8,4.7-9,6.8-18.5,6.3c-1,0.8-2.2,1.3-3.5,1.2c-3-0.2-5.9-1.2-8.5-2.8c-7.4-1.4-14.6-3.7-21.4-7
		c-13.1-6.5-24.2-16.3-32.4-28.4c-4.1-6-7.2-12.6-9.2-19.6c-2.1-7-2.8-14.3-2.1-21.5c0.1-1.4,0.3-2.8,0.6-4.2
		c0.7-4.2,2.2-8.3,4.5-11.9c2.3-3.6,5.6-6.5,9.5-8.3c6.1-2.8,13.6-2.5,20.4,0.8c1.8,0.9,6.6,4.7,5.1,3.3c7.6,7.1,8.7,9.2,13.9,15.6
		c0.6,0.7,1,1.4,1.3,2.3c2,4.9,10.2,23.6,25.3,37.3C67.2-1984.6,80.3-1963.4,80.3-1963.4z M8.8-2041.8c0.7,1.9,1.4,3.8,2.1,5.7
		c0.8,2.1,1.6,4.3,2.4,6.5c2.7,8.2,6,16.1,9.8,23.8c3.8,7.8,8.2,15.2,13.2,22.3c0.6,0.8,1.1,1.5,1.7,2.3l0.1,0.2
		c1.6,0.3,3,0.6,4.4,0.7c0.7,0.1,1.5,0.2,2.5,0.3c-3.5-3.4-6.7-7-9.8-10.7c-3-3.7-5.8-7.6-8.4-11.7c-5.2-8.3-9.3-17.3-12-26.7
		c-0.9-3.1-1.8-6.5-2.6-10.2C11.1-2040.3,10-2041.1,8.8-2041.8z M-8.9-2035.5c-0.1,1.6-0.2,3.3-0.1,4.9c0.2,3.2,0.7,6.3,1.6,9.3
		c0.8,3,1.9,6,3.3,8.8c1.6,3.4,3.6,6.6,5.8,9.6c2.3,3,4.9,5.8,7.7,8.2c-1-2.3-2-4.7-2.8-6.9l-0.6-1.6c-3-8.3-6.1-18.1-6.4-27.8
		c0-0.6-0.1-1.3-0.1-1.9l0,0c-0.2-2.9-0.2-5.8,0-8.7c0.1-0.9,0.2-1.8,0.4-2.7c-2-0.1-4,0.4-5.7,1.4
		C-6.9-2042.1-8.4-2040.3-8.9-2035.5z"/>
</g>
<path d="M806.8,483.8c0,0,24.2,10.2,8.2,18.2s-46,26-71,54s-57.7,95.3-60.8,109.6c-3.2,14.4,6.7-6.1-21.2-2.9s-33.1,4.8-32.9-11.8
	s-16-87.6,23-135.8c39-48.2,42.7-60.8,89.3-74.5c46.7-13.7,41,20.4,41,20.4L806.8,483.8z"/>
<path d="M787,459c0,0,36,33,43,33s18-6,34-8s33,6,43,13c19.1,13.4,32.1,26.6,40,35c19,20,30,33,30,33s-7-48-50-91
	c-38.1-38.1-68.3-45.5-128-43S787,459,787,459z"/>
<path d="M509.2,1527.7l0.4,0.1c0.1,0,0.1,0,0.2,0c0.2-8.7,2.9-18,5.3-26.2l0-0.2l0.4-1.4c2.7-9.5,5.8-18.9,8.7-27.8l2.9-8.9
	c0.9-2.6,1.7-5.3,2.6-7.9l0.1-0.2c9.9-30,20.2-60.9,28.1-92c4.3-16.7,7.6-32.1,10-46.9c2.7-15.8,4.4-31.7,5.1-47.7
	c0-1.9,0.8-3.8,2-5.2c1.2-1.3,2.7-2.2,4.4-2.6c1.7-0.4,3.5-0.4,5.2,0.1c1.6,0.5,3,1.5,4,3c0.8,1.3,1.1,2.9,1,4.4
	c-1.2,20.1-3.6,40-7.2,59.8c-2.9,16.6-6.8,33.4-11.8,51.4c-4.4,15.9-9.6,32.3-15.9,50.3c-5.3,15-11.5,31.4-18.8,50l-2.2,5.6
	c-2.8,7.1-5.9,14.7-9.2,22.3l-0.7,1.5c-3,6.7-6.3,13.6-10.6,19.3"/>
<path d="M911,1258.5l-0.4,0.1c-0.1,0-0.1,0-0.2,0.1c3.7,7.9,5.5,17.4,7,25.8l0,0.2l0.3,1.4c1.8,9.7,3.3,19.5,4.6,28.7l1.3,9.3
	c0.4,2.7,0.8,5.5,1.2,8.2l0,0.2c4.5,31.2,9.1,63.5,15.8,94.9c3.6,16.9,7.5,32.1,12,46.5c4.6,15.3,10.2,30.3,16.7,44.9
	c0.8,1.7,1,3.7,0.5,5.5c-0.5,1.7-1.4,3.2-2.7,4.3c-1.3,1.2-2.9,1.9-4.7,2.2c-1.7,0.3-3.4,0-4.9-0.9c-1.3-0.8-2.3-2.1-2.9-3.5
	c-7.9-18.5-14.6-37.4-20.2-56.7c-4.8-16.2-8.8-32.9-12.3-51.2c-3.1-16.2-5.8-33.2-8.1-52.1c-2-15.8-3.7-33.2-5.4-53.1l-0.5-6
	c-0.6-7.7-1.3-15.8-1.7-24.1l-0.1-1.7c-0.3-7.3-0.5-15,0.9-22"/>
<g id="face_Blank_00000141417160806864912850000005835734459993581753_" transform="translate(5 826)">
	<path id="_Ink-3_00000034059644271185037970000017331057115279274400_" d="M881.4-41.9L881.4-41.9c0.7,0.4,1.3,1.1,1.6,1.9
		C882.8-40.9,882.2-41.6,881.4-41.9L881.4-41.9z M887.2-92.7L887.2-92.7c-4.3-0.1-8.5-0.9-12.4-2.5c-5.2-2.1-10.2-4.9-14.6-8.3
		c-1-0.8-1.8-2-2-3.2c-0.2-1.2-0.1-2.5,0.3-3.6c0.5-1.4,1.3-2.6,2.5-3.6c1.1-0.9,2.4-1.5,3.8-1.5c1.1,0,2.1,0.3,3,0.9
		c0.3,0.2,0.7,0.5,1,0.8c2.9,2.3,6,4.5,9.2,6.4c4.1,2.4,7.7,3.5,11,3.5c1.6,0,3.2-0.3,4.6-0.9c1.6-0.7,3.1-1.8,4.3-3.1
		c2.3-3,3.3-6.9,2.5-10.7c-0.9-3.6-2.7-6.9-5.3-9.5c-2.4-2.5-5.1-4.7-8.1-6.5c-0.8-0.7-1.1-1.9-0.7-2.9c0.2-0.7,0.7-1.3,1.2-1.8
		c0.7-0.5,1.5-0.8,2.4-0.8c0.3,0,0.6,0,0.9,0.1c3.4,0.5,6.6,1.7,9.5,3.4c2.5,1.5,4.7,3.5,6.4,5.9c3.2,4.6,4.6,10.2,4.1,15.7
		c-0.2,2.8-0.9,5.6-2.1,8.2c-1.1,2.6-2.7,5-4.7,7.1C899.5-95,893.5-92.5,887.2-92.7L887.2-92.7z M809.8-149.4
		c-2.2,0.1-4.2-0.8-5.7-2.3c-2.4-2.8-3.5-5.3-3.5-8c0-0.8,0.1-1.7,0.3-2.5l-3.5,0.1c-2.1,0-3.9,0-5.5,0c-6.8,0.1-13.6-0.3-20.3-1.3
		c-0.2,0-0.3,0-0.5,0.1c-0.7,0-1.4-0.3-1.9-0.9c-0.5-0.5-0.9-1.2-1.1-2c-0.3-1.6,0.6-3.2,2.1-3.6c11-4.3,23.2-5.6,34.9-6.9l1-0.1
		c5.7-0.6,11.5-1.1,17.1-1.5l1.5-0.1l1.3-0.1c0.6-0.1,1.3-0.1,1.9-0.2c2.7-0.3,5.6-0.5,8.4-0.5c2.4,0,4.7,0.2,7,0.7
		c1.6,0.3,3.1,1.3,4.1,2.6c0.9,1.3,1.4,2.8,1.4,4.3c0,1.7-0.4,3.4-1.3,4.9c-1,1.5-2.5,2.6-4.2,3.1c-3.5,0.9-7.1,1.3-10.7,1.2
		c-1.4,0-2.8,0-4.1-0.1c-1.3,0-2.7-0.1-4-0.1c-0.3,0-0.5,0-0.8,0c-0.7,0-1.3,0-2,0l-1.1,0c-0.2,2.3-1,4.6-2.2,6.6
		c-0.9,1.5-1.9,2.9-3.1,4.2C814-150.2,812-149.4,809.8-149.4z M925.3-156.3c-2.5,0-4.9-1.3-6.4-3.3c-1.3-1.7-1.7-3.9-1.1-6l0.1-0.2
		c0.2-0.5,0.3-1,0.5-1.5c0.1-0.5,0.3-0.9,0.4-1.4l-1.8-0.2c-2.9-0.2-5.8-0.7-8.6-1.4c-1.3-0.4-2.6-0.9-3.7-1.6
		c-1-0.6-1.8-1.5-2.4-2.6c-0.6-1.2-0.4-2.6,0.5-3.5c3.3-3.9,10.7-4.5,16.2-4.9c0.8-0.1,1.5-0.1,2.2-0.2l0.3,0
		c1.4-0.1,2.9-0.3,4.4-0.5h0c4.7-0.6,9.4-1,14.1-1.1c1.6,0,3.2,0.1,4.8,0.2c2.4,0.2,4.7,1.3,6.3,3c2.8,3.3,2.8,8.1,0,11.3
		c-1.6,1.8-3.9,2.9-6.3,3c-1.6,0.2-3.2,0.2-4.9,0.2c-2.3,0-4.8-0.1-7.9-0.4c1.1,2.3,1,5-0.2,7.2c-1.1,2.1-3.2,3.5-5.6,3.8
		C925.9-156.3,925.6-156.3,925.3-156.3L925.3-156.3z"/>
</g>
<path d="M868.8,792c-3.8,0-7.5-0.9-10.9-2.5c-3.5-1.6-6.5-3.9-9.1-6.7c-1.8-2.1-3.2-4.4-4.1-7c-0.9-2.7-1.2-5.5-0.8-8.3
	c0.2-1.5,1.5-2.7,3.1-2.5c1.4,0,2.7,0.6,3.5,1.7l0.6,0.8c1.9,2.7,4.1,5.1,6.6,7.1c2.5,2.1,5.6,3.2,8.8,3.3c4.2,0,8.1-2,10.5-5.4
	c1.1-1.7,1.9-3.6,2.3-5.6c0.4-1.6,0.9-3.2,1.7-4.7c1.5-2.5,4.3-4.1,7.2-4c3.3,0,7.1,1.8,8,6c0.6,2.7,0.5,5.6-0.3,8.3
	c-0.8,2.7-2.2,5.3-4,7.5c-5.4,6.9-14.7,11.9-22.6,12.1C869.1,792,869,792,868.8,792z"/>
<path d="M778.3,624.7L778.3,624.7c-0.9-0.1-1.8-0.1-2.7-0.1c-0.6,0-1.2,0-1.9,0.1l-0.6,0.1c-0.1,0-0.1,0-0.2,0
	c-0.4,0-0.8-0.3-0.9-0.7c-0.1-0.4,0.1-0.8,0.4-1c1.6-1.1,3.1-2.1,4.5-3.2c3.7-2.9,7.8-5.4,12-7.5c5.4-2.4,11-4.4,16.6-6l2.2-0.6
	l2.2-0.6l1.5-0.4c5.1-1.3,9.2-2.3,13-2.9c4.4-0.8,8.8-1.2,13.2-1.3c1.9,0,3.7,0.1,5.6,0.3c1.8,0.2,3.4,0.8,4.8,1.9
	c1.4,1.1,2.2,2.7,2.4,4.5c0.2,1.8-0.2,3.5-1.1,5.1c-0.9,1.6-2.4,2.7-4.2,3c-5.9,0.9-11.9,1.4-17.9,1.6c-6.1,0.2-12.3,0.8-18.3,1.7
	c-4,0.7-8,1.4-11.9,2.2h0c-2,0.4-4,0.8-6,1.2c-2.7,0.5-5.4,0.8-8.1,1.1c-1.9,0.2-3.8,0.4-5.7,0.7l1.1,0.1c0.2,0,0.3,0.2,0.2,0.3
	c0,0,0,0,0,0C778.6,624.6,778.5,624.7,778.3,624.7z"/>
<path d="M952,621.4c-2.5-0.2-4.9-0.8-7.2-1.8c-0.7-0.3-1.5-0.6-2.2-0.8l-2.3-0.8c-3.4-1.2-6.9-2.3-10.5-3.1c-4.2-1-8.5-1.5-12.9-1.5
	c-0.2,0-0.4,0-0.6,0c-1.3,0-2.6,0.1-4,0.2c-1.4,0.1-2.9,0.3-4.4,0.3c-1.9,0.1-3.8-0.3-5.6-1c-2.6-1-4.6-3.3-5.2-6
	c-0.4-2.3,0.3-4.6,2-6.2c1.9-1.8,4.2-3.2,6.7-3.9c2.7-0.8,5.5-1.2,8.3-1.1c6.5,0.1,13,1.4,19,3.8c6.3,2.5,11,5.2,14.7,8.7l0.4,0.4
	l0.6,0.6c1.5,1.5,2.9,3.1,4.1,4.9c1.2,1.7,1.7,3.8,1.6,5.8c0,0.7-0.5,1.3-1.1,1.4C953,621.3,952.5,621.4,952,621.4L952,621.4z"/>
</svg>
</svg>
