<?xml version="1.0" encoding="utf-8"?>
<!-- Generator: Adobe Illustrator 27.7.0, SVG Export Plug-In . SVG Version: 6.00 Build 0)  -->
<svg version="1.1" id="Layer_1" xmlns="http://www.w3.org/2000/svg" xmlns:xlink="http://www.w3.org/1999/xlink" x="0px" y="0px"
	 viewBox="0 0 1366 1555" style="enable-background:new 0 0 1366 1555;" xml:space="preserve">
	 <svg y="-200">
<style type="text/css">
	.st0{fill:#FFFFFF;}
	.st1{fill:none;}
</style>
<g id="body_Button_Shirt_1_00000109726687118985309580000002844901942164713888_" transform="translate(0 920)">
	<g id="_Skin-4_00000169515596445563699810000001503613560713064626_">
		<path id="_Skin-5_00000111906553038077863360000003871785133148353156_" class="st4" d="M316.9,622.9
			c139.3,19.8,281.1,20.8,421.5,13.6c55.6-3.9,111.3-4.6,166.9,0.4c32.8,2.3,176.7,12.6,188.5-15c-7.4-146.8-22.4-294.9-68.4-436
			c-18.9-50.1-35.1-91.7-72-133.2c-11.6-11.3-36.7-35.1-51.1-42.8c-12.4-6.7-17.7-4.3-24.8-15.7c-7.1-12.5-12.3-33.4-22.4-42.3
			c-10.3-9-25.5-5.8-44.3-2.9c3.5-43.9-18.2-55.1-47.9-63.5c-52.3-18.7-104.1-9.3-117.2,50.5c-24.4,0-38.2,9.9-53,19.3
			c-6.1,3.9-1.8,13.7-9.1,16.8c-13.4,4.5-37.1,3.4-50,8.9c-58.7,25-111,61.4-145.3,114.4c-77,113.3-129.8,351.9-120.7,486.1
			c-4,5.9,1.5,14.3,2.9,20.7c1.8,5.5,7.4,9.1,13.5,8.6C292.4,619.3,305.3,621.2,316.9,622.9z"/>
		<path id="_Skin-6_00000119798907321096263660000011192073369760711834_" class="st1" d="M316.9,622.9
			c139.3,19.8,281.1,20.8,421.5,13.6c55.6-3.9,111.3-4.6,166.9,0.4c32.8,2.3,176.7,12.6,188.5-15c-7.4-146.8-22.4-294.9-68.4-436
			c-18.9-50.1-35.1-91.7-72-133.2c-11.6-11.3-36.7-35.1-51.1-42.8c-12.4-6.7-17.7-4.3-24.8-15.7c-7.1-12.5-12.3-33.4-22.4-42.3
			c-10.3-9-25.5-5.8-44.3-2.9c3.5-43.9-18.2-55.1-47.9-63.5c-52.3-18.7-104.1-9.3-117.2,50.5c-24.4,0-38.2,9.9-53,19.3
			c-6.1,3.9-1.8,13.7-9.1,16.8c-13.4,4.5-37.1,3.4-50,8.9c-58.7,25-111,61.4-145.3,114.4c-77,113.3-129.8,351.9-120.7,486.1
			c-4,5.9,1.5,14.3,2.9,20.7c1.8,5.5,7.4,9.1,13.5,8.6C292.4,619.3,305.3,621.2,316.9,622.9z"/>
	</g>
	<path id="_Top_00000072961967278369118390000006130203007939695258_" class="st0" d="M606.6-55c8.6-8.4,22-13.4,34.8-13.1l0.6,0
		l4.3,0.2l-2.9,13.3l-0.1,0.6l-0.6,2.3l-0.8,3l-0.3,1.1l-0.3,1.2c0,0.2-0.1,0.4-0.1,0.6l-0.1,0.6l-1.2,5.7l0.2,0.5l-0.1,1.3
		c-0.2,4.6,0.9,7.2,3.2,8l0.2,0.1l1.3,0.4l1.1,2.2c2.5,5.1,4.9,9.5,7.3,13.7c7.4,12.8,15.8,25,25.1,36.7
		c9.2,11.7,18.8,22.8,28.7,33.4c4.5,4.8,9.2,9.5,14.2,14.4l4.3,4.2l1.4,1.3l0.9,0.9l1.2,1.1l1.7,1.5l1.2,1.1l0.4,0.3
		c0.4,0.3,0.8,0.7,1.2,0.9l0.1,0.1l0.4,0.2l20.1,19.8l7.1,3.7l3.4,1.8l0.7-1.3l0.1-0.4l7.5-15.4l4.6-9.4
		c9.4-19.4,16.6-34.8,23.3-49.4l0.8-1.8l2.5-5.5l1.3-2.9c5.9-13.4,10.3-23.7,14.3-33.7l0.6-1.4l0.8-2.1l1.2-3.2l0.2-0.6
		c1.1-2.6-1.6-11.9-4.1-17l-0.1-0.3l-0.7-1.3l-0.7-1.3c-1.8-3.4-3.1-7.1-4-10.8c-0.2-0.7-0.3-1.4-0.5-2.1l-0.2-1l-0.1-0.7l-0.2-1
		l-0.3-1.4l5.8-0.9l3.2-0.5l1.4-0.2c1.8-0.3,3.4-0.5,4.9-0.7l0.6-0.1l1-0.1l0,0.2l2.1,0.2l1.5,0.1c5.9,0.5,11.7,1.3,17.5,2.5
		l0.4,0.1l0.7,0.2l0.3,0.1c3.7,0.9,6.8,3.1,8.9,6c1.7,2.4,3.2,5.1,4.2,7.8l0.6,1.4l1.9,4.5c0.2,0.5,0.6,1.4,1,2.6l1.6,4.2l8.2,21.2
		l8.4,4.1c3.9,1.9,6.7,3.3,8.1,3.9l0.5,0.2l0.4,0.2l2.9,1.1l-0.3,0.8l0.3,0.2c34.4,18.6,61,47.2,81.7,85.1l0.6,1.2l0.6,1.2
		c16.5,30.9,28.3,65.4,39.8,111.5l0.7,2.9l0.6,2.3l3,12.3c11.3,46.4,19.1,81,25.5,115l0.4,2.2l1.1,5.8
		c8.1,43.9,14.8,87.5,20.2,130.6l0.9,7.3c2.3,18.5,4.3,37.7,6.5,60.7l0.3,3.1l1,10.3c1,11.1,2,22.2,2.8,33.3l0.4,5.5l0.9,12l0.5,6.9
		l0.1,0.9l0.2,3.6l0.1,0.8c0.1,1.1,0.2,2,0.3,2.8l0.1,0.6l0.1,0.6c0.3,1.7,0.9,3.3,1.8,4.7l0.2,0.4l1.6,2.7l-2.9,1.4
		c-15.1,7.5-44.9,10.8-85.8,10.9h-1.2h-2.6c-19.9,0-40.9-0.7-62.8-2l-5-0.3l-4.1-0.2c-1.8-0.1-3.5-0.2-5.3-0.3l-2.8-0.2l-11.5-0.8
		c-51.9-4.7-106.4-4.6-166.4-0.4c-156.4,8-291.5,4.6-418.4-13.1l-3.8-0.5l-2.8-0.4l-1.7-0.3c-13.5-2.2-21.9-4.9-28.5-10.7l-0.3-0.3
		l-0.3-0.3H283c-6.8-0.1-12.7-4.1-15-10.1l-0.1-0.3l-0.1-0.4l-0.1-0.4c-0.1-0.4-0.2-0.9-0.4-1.4l-0.1-0.4l-1-3.2l3.5-0.6
		c0.4-0.1,0.7-0.3,0.9-0.7l0.3-0.4l0.5-0.7l1.2-1.6c1-1.2,1.8-2.5,2.3-3.9c0.3-1.3,0.4-2.6,0.4-3.9l0-0.8l-0.1-3c0-0.2,0-0.5,0-0.7
		V579v-4.3l0-4.7c0-2.1,0-4.1,0-6l0-2.9l0-2.4c0.2-13,0.6-26,1.2-39c1.3-25.4,3.4-50.7,6.5-75.9c6.1-51,15.8-101.7,29.2-151.5
		l1.3-4.9c14.2-52.2,28-92.4,45.4-129.6C380.9,110.4,408,71.5,442,40.3c18.3-16.8,39-31.2,61.5-42.7C514-7.6,524.9-12.1,536-16
		l1.7-0.6l2.7-0.9l2.1-0.7l6.6-2.3c1.4-0.5,2.9-1,4.7-1.7l1.1-0.4l11.8-4.4l2-0.7l2.2-0.8l1.6-0.6c2.6-0.9,5-1.8,7.2-2.5l1.3-0.4
		l1.2-0.4l5.1-1.6l-0.1,4.3c-0.1,2.9,0.7,5,2.5,6.6l0.1,0l0.1,0l0.1,0l0.3,0l1.2,0c0.1-0.1,0.2-0.1,0.3-0.2c1.7-1.4,2.5-3.2,3.3-7.3
		l0.2-1.2l0.4-2.2l0.1-0.8c0.3-2.2,0.9-4.3,1.8-6.3c1.3-2.7,2.9-5.2,4.8-7.6l0.5-0.5l1.8-2l0.3-0.3c0.5-0.5,0.9-1.1,1.1-1.8l0-0.1
		l0.2-0.9L606.6-55z"/>
	<path id="_Ink-2_00000029044022413842321130000013713095988807835021_" d="M1093.9,637.3c-2.7,0-5.3-1.3-6.8-3.4l-0.8-1.2
		c-2-2.6-3.4-5.6-4.1-8.7c-0.4-2.3-0.6-4.7-0.7-7.1c-0.1-1-0.1-2-0.2-3.1c-0.3-3.4-0.5-6.9-0.7-10.2l0-0.1c-0.2-2.7-0.4-5.4-0.6-8.2
		c-1-12.8-2.1-25.9-3.3-38.8c-3.7-40-6.3-61.9-8.1-76.5c-5.4-44.2-12.4-89.7-20.8-135.2c-8.3-45-18.7-89.4-28.8-130.6l-1.1-4.5
		c-5.6-22.8-10.8-41.3-16.4-58c-6.4-19.5-14.3-38.5-23.8-56.8c-4.7-9-10-17.8-15.8-26.3c-5.7-8.4-12.1-16.4-19-24
		c-6.9-7.6-14.5-14.6-22.7-20.9c-8.4-6.5-17.3-12.3-26.8-17.2c-0.3-0.1-0.4-0.4-0.4-0.7c0.1-0.4,0.5-0.6,0.9-0.6
		c0.1,0,0.1,0,0.2,0.1c20.4,9.1,38.9,21.4,54.8,36.5c15.9,15,29.5,32,40.5,50.5c10.6,17.5,19.8,37.2,28.2,60.3
		c8,22,14.3,44.4,19.4,63.5l0.4,1.5c11,41.3,21.4,86.1,31.6,136.9c4.6,22.7,8.9,46.2,12.7,69.9c3.7,22.8,7.2,46.4,10.2,70.2
		c3.3,25.7,5.8,48.5,7.7,69.7c1,11.6,2,23.4,2.8,34.9c0.4,5.4,0.7,9.8,0.9,14l0.2,3.5c0,0.5,0.1,1,0.1,1.5c0.3,2.7,0.2,5.4-0.4,8
		c-0.7,2.2-1.7,4.3-2.9,6.3c-0.2,0.4-0.5,0.9-0.7,1.3C1098.8,636,1096.4,637.3,1093.9,637.3z M441.1,635c-1.3,0-2.5-0.5-3.5-1.3
		l-0.7-0.5l-0.5-0.3l0,0c-2.1-1.3-3.8-3-5-5.1c-1.9-3.5-2.3-7.2-2.6-11.2l0-0.1c-0.4-4.5-0.3-9.1-0.2-13.5c0-1.4,0.1-2.9,0.1-4.3
		c0.1-11.8,0.3-23.8,0.5-35.7c0.9-47.8,2.7-90.6,5.4-130.9c1.5-21.5,3.4-42.2,5.8-61.6l0.5-3.8c0.4-2.9,0.7-5.9,1.1-8.7
		c0.4-3.1,0.8-6.4,1.2-9.6c-11.7-7.8-22.1-17.2-30.9-27.8c-0.2-0.3-0.3-0.6-0.1-0.9c0.1-0.3,0.4-0.5,0.7-0.5c0.2,0,0.4,0.1,0.6,0.3
		c4.4,4.3,9.3,8.3,14.5,11.8c5.2,3.5,10.6,6.7,16.3,9.4c1.6-10.7,4-24.6,9.2-37.6c0.2-0.4,0.6-0.6,1-0.6c0.4,0,0.8,0.3,0.8,0.6
		c2.6,11.1,3,22.6,3.4,33.8c0,0.7,0,1.4,0.1,2.1c0.4,10.4,0.4,21.7,0.2,35.7c-0.5,33.8-1.4,68.2-2.3,101.4l0,0.4
		c-0.2,9.5-0.5,19.3-0.7,29c-0.5,19.2-1,42-1.5,65.5c-0.1,8-0.3,16.3-0.4,24.6l-0.1,10.8c0,4.8-0.3,9.5-0.8,14.3
		c-0.3,3.1-1.4,6.1-3.1,8.8c-1,1.3-2.3,2.5-3.8,3.4c-0.4,0.3-0.8,0.5-1.2,0.8l-0.3,0.2C443.6,634.5,442.4,634.9,441.1,635L441.1,635
		z M745.5,627.9c-1.1,0.1-2.1-0.6-2.3-1.6c-2.6-15.2-3.1-30.9-3.5-46.1v-0.1c-0.1-2.2-0.1-4.4-0.2-6.6l-0.1-3.5
		c-0.7-19.1-1-38.2-0.9-56.8c0.2-55.7,1.5-112.2,2.8-166.9v0l0-0.3c0.3-11.5,0.5-23.3,0.8-35c0.2-9.1,0.4-18.3,0.6-27.3v-0.2
		c0.5-24.3,1-49.4,1.9-74.1c0.6-18.4,1.3-35,2.1-50.8l0.1-1.4v0c0.3-7,0.7-14.1,1.2-21.2l0.2-3.2c0.1-1,0.2-2.1,0.2-3.1v0
		c0.1-1,0.1-2.1,0.2-3.1c-1.4,0.5-2.8,0.7-4.3,0.7c-4.5,0-8.9-2.2-13.1-4.4c-1-0.5-2.1-1.1-3.1-1.6l-6.2-3l-0.5-0.2
		c-5.2-2.5-10.6-5.1-16-7.7l-7.6-3.6l-15.1-7.2c-0.6-0.3-1.1-0.6-1.7-0.8l0,0c-3.9-1.9-7.3-3.6-11.1-3.6c-2.3,0-4.5,0.6-6.5,1.7
		c-23.1,12.1-46.6,28.9-71.9,51.3c-1.7,1.4-3.9,2.2-6.2,2.1c-1.8,0-3.6-0.5-5-1.4c-1.5-1-2.5-2.5-2.8-4.2
		c-1.1-6.2-1.7-12.5-2.1-18.8c-0.3-5.9-0.4-12.1-0.3-18.8c0.3-12.6,1.4-25.3,2.5-37.7l0-0.2c0.1-1.4,0.2-2.7,0.4-4.1l0.9-9.8
		c0.9-10.5,2.1-22.9,3.6-35.1l0.1-0.5v0c0.6-5,1.3-10.1,2-15.1l0.6-3.9c0.2-1.1,0.3-2.3,0.5-3.4v0c0.5-5,1.6-10,3-14.8
		c-0.7-0.2-1.3-0.5-1.7-1c-2.6-2.3-3.8-5.7-3.4-9.9c0.4-3.7,1.5-7.3,3-10.7c2.7-6.1,6.7-11.6,11.8-16.2c1.1-1,2.7-1.6,4.2-1.7
		c4.3-2.7,8.9-4.9,13.7-6.6c4.6-1.6,9.5-2.4,14.4-2.4c4,0,7.9,0.6,11.7,1.7c0.5-2.1,0.9-3.8,1.2-5.3l0.4-1.8c0.2-0.9,0.4-2,0.7-3.2
		c0.4-2.2,0.9-4.3,1.5-6.4c0.6-1.9,1.7-3.7,3.3-5c0.1-0.1,0.2-0.1,0.3-0.1c0.1,0,0.2,0,0.3,0.1c2.1,2.3,2.1,5.7,2.1,8.7
		c0,0.6,0,1.2,0,1.8l0,0.3c0.2,4.5,0.2,9.2,0.2,15.3L652.4-44c0,0.8,0,1.7-0.1,2.5c0,1.4-0.1,2.9,0,4.3l0.1,0.9
		c1.4,1.3,1.9,3.2,1.5,5c-0.1,2.3-1.3,4.3-3.3,5.6l4.1,5.5l4.1,5.5C669.2-1,677.2,9.4,685,18.9c8.9,10.9,18.7,21.8,29.2,32.5
		c5.4,5.5,10.4,10.4,15.3,15c1.5,1.4,3,2.8,4.4,4.1c0.7,0.6,1.3,1.2,2,1.8l2.1,2c0.3,0.3,0.6,0.5,0.9,0.8l0,0c1.1,0.9,2,1.9,2.8,3
		c0.3,0.8,0.5,1.6,0.6,2.4c0,0.3,0.1,0.7,0.2,1c0.7,1.7,0.6,3.7-0.5,5.2c-0.7,1.2-2,1.9-3.4,1.9c-0.6,0-1.1-0.1-1.6-0.3l0.2-0.1
		c0.3-0.2,0.4-0.3,0.4-0.4c0,0-0.1-0.1-0.2-0.1c-0.6,0.1-1.2,0.2-1.8,0.4c-1.2,0-2.3-0.3-3.3-0.8l-0.3-0.2c-1.2-0.7-2.3-1.5-3.3-2.5
		c-0.2-0.2-0.4-0.4-0.6-0.6l-0.3-0.3c-2.3-2-4.5-4.1-6.6-6.2l-1.2-1.1c-5.7-5.4-10.8-10.6-15.7-15.8c-9.9-10.5-19.6-21.8-28.9-33.6
		c-9.4-11.8-17.8-24.2-25.3-37c-2.5-4.4-5-9.2-7.9-14.9c-2.2-0.7-4-2.3-4.7-4.3c-0.8-2.4-1.1-4.8-0.9-7.3c-1.8-3.8-3.3-7.8-4.3-11.9
		c-0.1-0.4,0.2-0.7,0.6-0.8c0,0,0.1,0,0.1,0c0.2,0,0.3,0.1,0.4,0.2c1.5,1.7,3,3.4,4.3,5.2c0.5-2.2,1-4.2,1.5-6.1v0
		c0.4-1.3,0.7-2.5,0.9-3.4l2.1-9.8c-0.7,0-1.4,0-2.1,0c-5.9,0-11.7,1.1-17.1,3.2c-5.4,2-10.3,5.1-14.4,9c-0.4,1.7-1.5,3-2.9,4.5l0,0
		c-0.3,0.4-0.7,0.7-1,1.1c-2,2.3-3.6,4.8-4.9,7.4c-1,2.4-1.6,5-1.9,7.6c-0.7,4.2-1.4,8.6-4.7,11.2c-0.5,0.4-1.2,0.8-1.8,1
		c2,9.1,1.7,19,1.5,28.5v0c-0.1,2.7-0.1,5.5-0.2,8.3v1.1c0,14-0.5,28.1-1,40.2l-0.6,13.3c-0.7,17-1.2,35.1,0.6,53
		c8.3-6.9,17.1-13.6,26-19.9c5.8-4.1,11.9-8.2,18-12l5-3.1l0.2-0.1c5.9-3.7,11.9-7.5,18.3-10.1c3.3-1.4,6.8-2.1,10.4-2.1
		c5,0.1,9.9,1.3,14.4,3.4c5.6,2.5,11.2,5.2,16.6,7.9l0,0c2.5,1.2,5,2.5,7.6,3.7c6.2,3,12.6,6,18.7,9l0.9,0.4l5,2.4
		c1.3,0.6,2.8,1.2,4.3,1.9c4.7,2,10,4.2,13,7.8c0.3-1.1,0.6-2.2,0.9-3.2c-0.4-1.7-0.2-3.5,0.7-5c13-22.4,24.9-45,38-70.1
		c3-5.8,6.1-11.8,9-17.6l0,0c3-6,6.2-12.2,9.4-18.3l6.1-11.6c1.2-2.3,2.2-4.1,3-5.8s1.8-3.4,2.7-5c0.7-1.2,1.3-2.4,2-3.6
		c0.3-0.6,0.6-1.1,1-1.7l0,0c0.4-0.6,0.8-1.3,1.1-1.9l0.3-0.6c0,0,1.1-3.3,0.7-3.9c0-0.1-0.1-0.1-0.2-0.1c0,0-0.1,0-0.1,0l-0.1,0
		c-0.1,0-0.2,0.1-0.3,0.1c-0.2,0-0.4-0.1-0.5-0.3c-0.1-0.2-0.1-0.4,0.1-0.6c0.4-0.5,1-0.8,1.6-0.8c1.3,0,2.5,1.2,3.1,2.3
		c2,3.8-0.5,9.2-2.5,13.6c-0.5,1.1-1,2.2-1.4,3.1l-0.1,0.3c-5.7,15.1-12.1,29.7-18.1,43.3c-11.7,26.2-24.4,52.4-36.8,77.8l-1.8,3.6
		l-0.2,0.5c1.6-1.1,3.3-2.2,4.9-3.3h0c1.2-0.8,2.4-1.6,3.5-2.3c6.6-4.6,13.6-9.1,19.7-13c11.2-7.2,23.4-14.4,37.4-22.1l2.5-1.4
		c2.6-1.5,5.4-2.8,8.2-3.8c2.8-1,5.8-1.6,8.8-1.6c1.1,0,2.1,0.1,3.2,0.2c5.8,0.8,11.3,3.4,16.6,5.8c1.1,0.5,2.2,1,3.3,1.5l0.7,0.3
		l19.5,8.7c-1.9-7.2-4.1-14.8-6.7-23.3c-4.5-14.9-9.6-30-15.2-44.9c-4.9-13.4-10.4-26.9-16.5-41.2l-1.8-4.1l-0.2-0.5l-0.1-0.1
		c-1-2.7-2.4-5.4-4.1-7.8c-1.7-2.5-4.3-4.2-7.3-5c-2.5-0.5-5.1-0.8-7.7-0.7h-1h-1c-4,0-7.8-0.2-11.2-2.1c-0.3-0.2-0.4-0.5-0.4-0.8
		c0-0.3,0.3-0.5,0.6-0.6l3.9-0.9c5.4-1.3,11.1-2.4,16.3-2.4c2.1,0,4.2,0.2,6.2,0.7c3.8,1,7.2,2.8,10,5.3c2.9,2.4,5.3,5.3,7.2,8.5
		c3.1,5.6,5.8,11.4,8.1,17.3c0.6,1.4,1.2,2.8,1.8,4.2l0.5,1.1c3.5,8.3,6.9,16.6,10.1,24.7c6.3,16.3,12.3,33.2,17.6,50.2
		c2.4,7.7,4.8,15.8,7.3,24.5c0.3,1.2,0.8,2.6,1.3,4v0c0.5,1.3,0.9,2.7,1.4,4.1c1.1,1,2.1,2.1,2.9,3.2c0.6,0.8,0.8,1.7,0.7,2.7
		c-0.3,1.2-1,2.2-2.1,2.9c0,2-0.6,3.9-1.7,5.6c-1.8,2.5-4.8,4-7.9,3.9c-2.3,0-4.5-0.8-6.1-2.3c-1.5-1.5-2.2-3.5-2-5.5
		c0.1-1.3,0.6-2.6,1.5-3.7l0-0.2l-0.1-0.3c-1.2-0.5-2.4-1.1-3.6-1.7h0c-0.9-0.4-1.8-0.9-2.7-1.3l-20.5-9.5c-1.6-0.7-3.2-1.6-4.9-2.4
		c-4.6-2.4-9.4-4.9-14.3-5.6c-0.6-0.1-1.2-0.1-1.8-0.1c-4.5,0-9.2,2.4-13.2,4.6c-1,0.5-1.9,1-2.9,1.5l-0.3,0.2
		c-14,6.7-27.7,13.6-38.1,18.9c-3.6,1.8-7.2,3.7-10.7,5.5l0,0c-2.5,1.3-5.1,2.7-7.7,4c-1.4,0.7-2.8,1.5-4.3,2.4h0
		c-3.9,2.2-7.9,4.5-12.1,5.6c-1.1,0.8-2.5,1.3-3.9,1.3c-1.4,0-2.7-0.4-3.9-1.1c0.7,4.7,1.1,9.4,1.1,14.1c0.1,1.6,0.1,3.3,0.2,4.9
		c0.4,7.1,0.5,14.3,0.6,21.2c0,1.5,0,3,0.1,4.4l0.1,3.2c0.4,18.1,0.6,36.7,0.7,56.8c0.2,43-0.1,86.6-0.3,128.9
		c-0.1,24-0.3,48.9-0.4,73.4c-0.1,29.6-0.6,61-1.7,101.6c-0.4,15-1.3,30.1-2.1,43l-0.5,7.8c-0.1,2.3-0.3,4.7-0.4,7
		c-0.8,14-1.7,28.4-4.5,42.4C747.6,627.3,746.6,628,745.5,627.9L745.5,627.9z M778.3,625.5c-1,0-1.9-0.1-2.9-0.4
		c-5.8-1.5-9.1-7.1-7.6-12.5c0,0,0,0,0,0l0.3-0.6c1-3.5,4-6.3,7.8-7.3c0.9-0.2,1.9-0.4,2.9-0.4c3,0,5.8,1.1,7.9,3
		c4.3,4.1,4.3,10.7,0,14.7c-1.3,1.2-2.8,2.1-4.5,2.6l-0.4,0.1l-0.6,0.2C780.2,625.4,779.2,625.5,778.3,625.5L778.3,625.5z
		 M1002.8,603.5c-0.9,0-1.9-0.1-2.8-0.2c-2.2-0.4-4.1-1.6-5.3-3.4c-1.2-1.7-2-3.7-2.1-5.7c-1.2-23.3-2.8-47.9-5-75.2
		c-2.3-29.5-4.1-59.5-5.8-88.5v0v-0.1c-0.9-14.7-1.8-29.9-2.7-44.8l-1-15.5c-1-15.3-2-33.1-2.4-50.5c-0.1-5.1,0-10.2,0.1-15.2
		c0.1-6,0.2-12.2,0-18.3c-0.1-1.7-0.1-3.5-0.2-5.3c-0.4-8.8-0.8-17.9,1.2-26.3c0.1-0.2,0.3-0.3,0.5-0.3c0.2,0,0.3,0.1,0.4,0.2
		c2.4,5.1,4.2,10.4,5.3,15.9c6.2-7.4,12.9-15.2,19.9-22.7c0.1-0.2,0.3-0.2,0.5-0.2c0.3,0,0.5,0.2,0.7,0.4c0.2,0.2,0.2,0.5,0,0.8
		c-6,11.1-12.7,22-19.1,32.5c0.5,2.9,1,5.8,1.6,8.8c0.9,4.3,1.9,8.5,2.8,12.7v0c1.8,7.7,3.6,15.7,4.9,23.7
		c7.6,46.1,11.4,93.1,14.3,133.5c3.2,43.7,3.7,88.1,4.1,131.1l0,3.3c0,2.1-0.8,4.1-2.1,5.8c-1.2,1.7-3.2,2.9-5.3,3.4
		C1004.5,603.4,1003.6,603.5,1002.8,603.5L1002.8,603.5z M269,600c-1.6,0-3-0.8-3.9-2l-0.7-0.9l-0.1-0.1c-2.1-2.7-4.2-5.2-4.5-8.6
		c-0.2-2.6-0.2-5.3-0.1-7.9c0-1.1,0-2.3,0-3.5c0-6.8,0-14.1,0.2-22.8c0.3-14.5,0.9-29.2,1.8-43.7c1.9-29.9,5-59.6,9.2-88.3
		c3.8-25.8,8.7-51.9,14.5-77.6c5.7-25.5,12.5-51.3,20.1-76.5c8.1-26.9,15.9-50.1,24-71.1c8.9-23.4,19.4-46.3,31.4-68.4
		c5.7-10.5,11.9-20.7,18.2-30.1c6.7-10,13.8-19.6,21-28.4c7.5-9.1,15.6-17.9,24.1-26.1c8.6-8.3,17.8-16,27.4-23.2
		c9-6.7,18.5-12.8,28.3-18.3c9.8-5.5,20.1-10.4,30.7-14.6c10.7-4.3,21.9-7.6,33.4-9.6c7.5-1.1,15.1-1.8,22.6-1.9
		c3.7-0.2,7.5-0.3,11.3-0.6h0.1c0.3,0,0.6,0.2,0.6,0.5c0,0,0,0,0,0c0,0.4-0.3,0.7-0.7,0.8c-10.8,1.2-21.4,4.9-31.7,8.5l0,0
		c-1.8,0.6-3.6,1.3-5.3,1.9l-1,0.4c-12.1,4.1-24,9-35.4,14.7c-22.3,11.3-42.7,25.5-60.8,42.2c-9,8.2-17.4,16.9-25.3,26
		c-7.8,9.1-15.2,18.6-22,28.4c-6.6,9.5-13,19.7-19,30.3c-5.7,10-11.2,20.7-16.4,31.8c-10.1,21.7-18.9,43.9-26.4,66.5
		c-6.7,19.9-13.1,41.4-20.2,67.6c-6.6,24.4-12.4,49.7-17.3,75.1c-4.7,24.7-8.7,50.3-11.8,76c-3,25-5.2,50.5-6.5,75.7
		c-0.6,12.9-1.1,26-1.2,38.9c-0.1,6-0.1,12.5-0.1,20c0,0.8,0,1.7,0.1,2.7c0.3,2.4,0.1,4.8-0.4,7.2c-0.8,2.2-2,4.1-3.6,5.9
		c-0.4,0.5-0.8,1-1.2,1.5C271.9,599.2,270.5,599.9,269,600z M778.8,541.9c-0.2,0-0.4,0-0.6,0l-0.3,0l0.2,0l-0.4,0
		c-0.3,0-0.7-0.1-1-0.1c-0.1,0-0.2,0-0.3,0c-0.1,0-0.3,0-0.4,0c-0.2,0-0.3,0-0.4,0c-0.1,0-0.2,0-0.3,0c-0.2,0-0.4,0-0.6,0
		c-2.5-0.2-4.8-1.1-6.5-2.8c-0.9-0.9-1.7-1.9-2.2-3c-0.6-1.1-0.8-2.4-0.8-3.6l0.1-0.9c0.1-1.3,0.4-2.5,1-3.6
		c0.6-1.5,1.6-2.8,2.9-3.9c2.4-2.1,5.5-3.3,8.7-3.3h0.1c2.1,0,4.1,0.5,5.9,1.4l2.3,1.7c0.6,0.7,1.2,1.5,1.9,2.3
		c1.4,1.8,1.6,4.6,1.3,6.7c-0.1,1.4-0.5,2.8-1.3,3.9l-1.8,2.1c-1.5,1.3-3.3,2.2-5.2,2.8C780.5,541.8,779.6,541.9,778.8,541.9z
		 M778.5,427.9c-1.5,0-3-0.3-4.4-0.8c-2.2-0.8-4-2.3-5.3-4.1l-0.2-0.3c-0.1-0.1-0.2-0.3-0.2-0.4l-0.1-0.2c-2.4-4.2-1.7-9.4,1.8-12.8
		c2-2,4.9-3.1,7.8-3c2.1,0,4.1,0.5,5.9,1.4c0.8,0.5,1.6,1,2.3,1.6h0c0.2,0.2,0.4,0.3,0.6,0.5c2.8,2.1,3.3,6,3.4,7.6
		c0,1.4-0.3,2.8-0.9,4.1c-0.6,1.3-1.4,2.5-2.5,3.5l-0.5,0.4c-1.3,1.2-2.8,2-4.6,2.3C780.5,427.8,779.5,427.9,778.5,427.9
		L778.5,427.9z M773.6,319.7c-1,0-1.9-0.1-2.8-0.4c-3.7-1-6.6-3.7-7.6-7.1l-0.2-1.4c-0.3-1.7-0.2-3.5,0.2-5.2
		c0.3-1.1,0.8-2.1,1.3-3.1c0.8-1.3,1.8-2.4,3.1-3.3c1.2-0.9,2.7-1.6,4.2-2c0.9-0.3,1.8-0.4,2.7-0.4c0.7,0,1.3,0.1,2,0.2
		c3,0.4,5.8,1.9,7.7,4.1c1,1.1,1.8,2.3,2.1,3.7l0.4,2.9l-0.4,2.9l-1.2,2.6c-0.4,0.5-0.7,0.8-1,1.2c-1.1,1.3-2.5,2.4-4.1,3.2
		C778.1,319.1,775.9,319.7,773.6,319.7L773.6,319.7z M930.4,231.1c-1.7,0-3.5-0.2-5.2-0.4c-1.1-0.1-2.2-0.2-3.3-0.3
		c-5.5-0.3-11.2-0.6-16.8-0.9c-11.7-0.5-22.3-0.7-32.6-0.8c-1.7,0-3.4,0-5.2,0c-8.3,0-17.2,0.1-27.3,0.2c-3.1,0-6.2,0.2-9.3,0.3
		c-4.1,0.1-8.4,0.3-12.6,0.3c-3.9,0-7.7-0.1-11.6-0.5c-0.7,0-1.2-0.5-1.3-1.2c-0.1-0.6,0.3-1.2,0.9-1.3c9.2-3,19.4-4.2,29.3-5.3
		c1.1-0.1,2.3-0.3,3.5-0.4c10.8-1.3,22.1-2.2,33.6-2.9c12.2-0.7,23.6-1,34.6-1.1c1.7,0,3.5,0,5.2,0c2.7,0,5.5,0,8.2,0l3.4,0
		c0.7,0,1.5,0,2.1,0c4.8,0,8.9,0,12.7,3.2c1.3,1,1.9,2.5,1.8,4.1c-0.2,2-1.3,3.9-3.1,5C935.5,230.5,933,231.2,930.4,231.1z
		 M772.5,205.9l-0.4,0c-2.1,0-4.1-0.5-5.9-1.5l-2.4-1.7c-1.4-1.3-2.5-3-3-4.8l-0.4-2.9c0.2-5.8,5.1-10.6,11.3-11l0.4,0
		c1.9,0,3.8,0.4,5.5,1.3l0.4,0.2l2.4,1.7c1.4,1.3,2.5,3,3,4.8l0.4,2.9C783.6,200.7,778.7,205.5,772.5,205.9L772.5,205.9z
		 M814.2-20.8L814.2-20.8c-0.1,0-0.2,0-0.3,0c-2.8-0.1-5.4-1.1-7.4-3c-2-1.9-3.4-4.2-4.3-6.7c-2.2-5.5-2.8-12.4-3.1-16
		c-0.4-4.8,0-9.6,1.2-14.2c1.2-4.7,3.2-9.1,6.1-13c0.6-0.9,1.6-1.5,2.8-1.5c1.1,0,2.2,0.6,2.9,1.4c0.6,0.7,0.9,1.6,0.7,2.5
		c0.2,8.5,0.7,15.6,2.5,22.8c0.8,3.5,2,6.9,3.7,10.1l0.7,1.3c2.3,4.3,4,8.1,1,12.6c-0.7,1.1-1.6,1.9-2.8,2.6
		C816.8-21.2,815.5-20.8,814.2-20.8z"/>
</g>
<g id="head_Shaved_2_00000168115857037580214460000001182206296268123576_" transform="translate(4194 2782)">
	<path id="_Ink-40_00000044872328468140893970000000184672913843291783_" d="M-3625.4-2220.7c2.2-12.1,5.5-24,9.8-35.6
		c-0.1,0-0.2,0-0.2,0c-0.8,0-1.9-0.4-2.8-2c-0.6-1.1-0.9-2.3-1-3.6c-0.3-4.3,0.4-8.7,1.1-13l0.8-4.4c0.6-4.1,1.7-8.2,3-12.2
		c3.6-9.7,8.7-18.8,15.2-27c6.5-8.4,14.3-15.8,23.1-22c8.8-6.2,18.5-11.3,28.8-14.9c0.6-0.2,1.3-0.4,2-0.4c0.6,0,1.1,0.1,1.6,0.3
		c18.9-9.5,38.9-17,59.6-22.2c5.7-1.4,12.4-3.1,19.3-4.2c1.6-0.3,3.1-0.4,4.7-0.4c5.2,0,8.9,1.8,11,5.3c0.7,1.1,1.2,2.3,1.4,3.5
		c9.4-2,19-3,28.6-2.9c6.8,0,13.7,0.5,20.4,1.4c2,0.3,3.7,1.5,4.5,3.3c1.2,2.2,1.1,4.8-0.1,7c-0.2,0.3-0.4,0.7-0.7,1.1
		c5.2,0.4,10.3,1.2,15.3,2.5c2.2,0.7,4,2.2,5,4.2c0.8,1.5,1,3.2,0.3,4.8c-0.1,0.3-0.3,0.6-0.4,0.9v0l0,0c4,0.6,7.9,1.7,11.6,3.2
		c3.8,1.5,7.4,3.5,10.6,5.8c0.8,0.6,1.6,1.3,2.1,2.1c2.7-0.3,5.3-0.4,8-0.4c12.4,0,24.6,3,35.5,8.5c2,1.1,3.4,3,3.9,5.2
		c0.5,1.9,0.2,4-0.9,5.7c-0.8,1.1-1.6,2.1-2.5,3.1c2.9,1,5.6,2.4,8.1,4.1c2.5,1.8,4.7,4,6.3,6.6c1.9,2.9,3.1,6.2,3.6,9.6
		c0.5,3.3,0.3,6.8-0.7,10c4.5,4.4,6.3,10.6,4.9,16.5c-1.1,5.1-4.8,9.3-9.8,11.5c0.9,2.8,0.2,5.9-2,8.1c-3.3,3.2-7.3,5.8-11.7,7.4
		c0,1.1-0.3,2.2-0.9,3.2c-2,3.6-5.1,6.6-8.7,8.7c-3.7,2.2-7.9,3.5-12.2,3.9 M-3337.8-2229.5c-2.6-0.6-4.9-1.7-7.1-3.2
		c-1.3-0.8-2.2-2.1-2.7-3.5c-2.3-0.4-4.4-1.6-5.7-3.4l-0.2-0.3c-4.1-5.6-11.2-8.6-17-10.7c-3.3-1.2-6.7-2.2-10-3.3l-1.5-0.5
		c-1.1-0.3-2.3-0.8-3.4-1.1c-2.9-1.2-6-2-9.1-2.5c-0.8-0.1-1.6-0.1-2.4-0.1c-1.6,0-3.3,0.1-4.9,0.3h0c-1.6,0.1-3.3,0.3-4.9,0.3
		c-0.8,0-1.5,0-2.3-0.1c-4.3-0.3-8.4-2.1-11.4-4.9c-1.1-1-2.1-2.2-2.8-3.5c-4.4,0.8-8.8,1.2-13.2,1.2c-4.5,0-9.1-0.3-13.5-0.6
		l-0.1,0c-4.5-0.3-9.1-0.6-13.7-0.6c-1.8,0-3.5,0-5.2,0.1c-4.7,0.3-9.2,1.7-13.6,3.2c-4.9,1.6-9.9,3.2-15.2,3.2c-0.1,0-0.3,0-0.4,0
		c-2.7,0-5.4-0.9-7.4-2.6c-8.4,1.5-16.8,4.2-24.9,6.8l0,0c-1.2,0.4-2.4,0.8-3.5,1.1c-5.2,1.6-10.3,3.6-15.3,5.6
		c-3.6,1.4-7.4,2.9-11.1,4.2c0,0,0,0,0,0c-0.4,1.4-1.3,2.6-2.6,3.4c-1.2,0.8-2.6,1.2-4.1,1.2c-0.5,0-1.1,0-1.6-0.1
		c-6.4-1.1-12.3-3.7-18.1-6.1c-5-2.2-10.2-4.4-15.7-5.6c-0.6,2.1-1.2,4.2-1.9,6.3c-2.6,8.8-5.3,17.8-7.2,27"/>
</g>
<g id="head_Short_1_00000119817535844083950160000005755062021022035640_" transform="translate(4787 721)">
	<g id="_Skin-124_00000148631825143668155570000016735097195699241151_">
		<path id="_Skin-125_00000078015611114101892190000014117950220990183612_" class="st0" d="M-4051.4-274.4
			c56.8,0,115.5,44,136.3,72.1c24.1,32.5,43.1,188.4,34.1,241.3s-53.1,110.6-129.9,110.6s-123.5-9.5-125.4-23.2
			s-50.7-90.2-50.7-90.2s-49.9-14-50.1-47.6c-0.2-33.5,26.7-45.7,26.7-45.7s-9.6-132.3,14.6-166.7S-4108.2-274.4-4051.4-274.4z"/>
		<path id="_Skin-126_00000072988480399309138200000016645834464492549004_" class="st1" d="M-4051.4-274.4
			c56.8,0,115.5,44,136.3,72.1c24.1,32.5,43.1,188.4,34.1,241.3s-53.1,110.6-129.9,110.6s-123.5-9.5-125.4-23.2
			s-50.7-90.2-50.7-90.2s-49.9-14-50.1-47.6c-0.2-33.5,26.7-45.7,26.7-45.7s-9.6-132.3,14.6-166.7S-4108.2-274.4-4051.4-274.4z"/>
	</g>
	<path id="_Ink-42_00000011010243378670747170000010757235734380268180_" d="M-4116.2-148.6 M-4146.2-118c-0.7,0-1.5-0.1-2.1-0.3
		c0,0,0,0,0,0c2.3,10.6,3.6,40.6,4.2,55.1v0c0.1,2.9,0.2,5.2,0.3,6.4c0.1,1.4,0.2,2.9,0.4,4.5c0.5,5.3,1.2,11.3-1.1,15.7
		c-0.8,1.4-2.2,2.3-3.9,2.3c-0.1,0-0.1,0-0.2,0c-6.2-0.5-12.6-0.9-18.7-1.4l-0.1,0l-1.4-0.1c-1.8,0-3.4-1.3-4-3l0-0.1
		c-0.1,0-0.1,0-0.2,0c-0.2,0-0.4-0.1-0.5-0.2c-0.4-0.4-0.8-0.7-1.1-1.1c-3-2.6-6.4-4.6-10.2-5.9c-3.8-1.3-7.7-2-11.7-2
		c-4.1,0-8.1,0.7-11.9,2.1c-3.2,1.2-11.3,4.7-16.4,10.5c-2.2,2.6-3.7,5.7-4.4,9.1c-0.8,3.3-1.1,6.7-1.1,10.2c0,3.2,0.3,6.5,0.9,9.6
		c0.6,3.2,1.5,6.3,2.6,9.3c1.2,3,2.7,5.9,4.4,8.6c1.8,2.7,3.9,5.2,6.2,7.4c8.8,8.3,20.3,10.7,31.4,13l1.2,0.3
		c1.2,0.3,2.2,1.3,2.4,2.5c0.4,1.2,0,2.6-1,3.5c4.3,4.5,8.4,9.2,12.1,14.2c0.6,0.8,1.3,1.7,1.9,2.5c5,6.4,10.3,13.6,16.8,22.9
		l2.6,3.7l1,1.4c4.7,6.7,10,14.2,13.5,22.3c4.1,9.3,4.9,17.3,2.4,24.4c-0.5,1.3-1.6,2.1-3,2.1c-1,0-1.9-0.5-2.3-1.4
		c-2.1-4.1-4-8.3-5.6-12.7c-1.5-3.7-3-7.6-4.9-11.3c-3.8-7.4-8.5-14.4-13.1-21.2l-0.4-0.6l-2.8-4.1c-4.2-6.2-9-13.5-13.4-20.8
		l-2.9-4.9c-2.9-4.6-5.4-9.4-7.6-14.3c-2.2,0.5-4.5,0.8-6.9,0.8c-2.9,0-5.8-0.4-8.6-1.1c-2.9-0.7-5.7-1.8-8.3-3.1
		c-5.3-2.6-10.1-6.1-14.3-10.3c-3-3.1-5.6-6.5-7.8-10.2c-2.2-3.7-4-7.6-5.4-11.7c-2.7-8.2-3.7-16.9-3-25.5c1-10.4,4.2-18.3,10-23.9
		c0.7-0.7,6.6-4.5,7.2-5c-0.2-0.1,13.1-5.8,13-6c-2.2-5.3-6.9-33.2-7-39c-0.4-11.6-3.1-103.3,13.5-127.1
		c16.5-23.9,18.2-26,30.4-36.1c12.4-10.1,27.4-17.8,44.6-22.8c8.1-2.3,16.4-4,24.8-5.1c8.3-1.1,16.7-1.6,25.1-1.6h0.3h1
		c31.7,0.3,63,7.5,91.6,21.1c14.2,6.8,27.6,15.1,39.9,25c12.3,9.8,23.2,21.1,32.6,33.7l1.1,1.5c0.1,0.1,1.2,1.7,1.4,2.2
		c0.6,1.1,1.3,2.2,2,3.3v0c1,1.6,2,3.2,2.8,4.9c0.9,2,1.7,4,2.3,6.1c0.2,0.5,0.3,1,0.5,1.6l0.3,0.8c2.1,6,4,12.4,5.8,19.4
		c3.2,12.7,5.7,25.5,8.2,38.6c4.3,22.9,8,46.3,10.8,69.8c2.8,23.1,5,46.8,6.5,70.4l0.6,9.4c0.6,9.9,1,19.6-0.1,29.4
		c-0.6,5.6-1.8,11.2-3.4,16.6c-1.6,5.4-3.7,10.7-6.1,15.8c-4.6,9.5-10.4,18.3-17.2,26.4c-3.5,4.2-7.3,8.5-12.1,11.7
		c-3.7,2.5-8.1,4.2-12.3,5.8c-3.5,3.4-7.3,6.5-11.5,9.1c-4.1,2.6-8.4,5-12.8,7.1c-7.1,3.4-14.4,6.1-22,8.1c-7.6,2-15.3,3.5-23,4.4
		c-6.4,0.8-12.9,1.2-19.4,1.2c-9.5,0-18.9-0.8-28.3-2.4c-3.8-0.7-7.6-1.6-11.4-2.7c-3.8-1.2-7.5-2.7-11-4.4
		c-7.1-3.4-13.3-8.5-18.1-14.7c-0.2-0.3-0.3-0.7-0.1-1c0.3-0.5,0.8-0.7,1.3-0.7c0.2,0,0.4,0,0.5,0.1c9.9,4.5,20.2,7.9,30.8,10.1
		c10.6,2.2,21.4,3.3,32.3,3.2c7.8,0,15.6-0.5,23.3-1.6c13.7-1.8,27.1-5.6,39.6-11.5c8-3.8,15.2-8.9,22.1-13.9
		c2.2-1.6,4.5-3.2,6.8-4.8c1.8-2.5,3.7-4.8,5.8-7.1l3.3-3.5c2.4-2.5,4.9-5.2,7.1-8.1c3.4-4.4,6.5-9.1,9.3-14
		c2.7-4.9,5.1-10,6.9-15.3c6.8-19.1,5.5-39.8,4.3-59.8V3.3c-0.1-1.3-0.2-2.7-0.2-4l-0.1-1.9c-1.3-22.6-3.5-45.5-6.4-68
		c-2.9-22-6.7-44.7-11.2-67.5c-1.1-5.3-2.2-10.7-3.3-15.9v0c-1.2-5.6-2.4-11.4-3.6-17.1c-0.9-4.7-1.7-9.6-2.3-14.3l0-0.1
		c-0.1-0.9-0.3-1.9-0.4-2.8c-0.4-3.3-0.6-6.6-0.5-9.9v-0.4c-0.1,0.2-0.2,0.3-0.3,0.4l0,0c0.4,0.9,0.1,1.9-0.8,2.4
		c-2,1-4.2,1.5-6.4,1.4c-0.7,0-1.5,0-2.2,0h0c-0.7,0-1.5,0-2.2,0h-0.1c-4,0-8,0-11.9,0h-0.1c-2.4,0-4.8,0-7.6,0c-1.5,0-3.1,0-4.9,0
		l-12.4,0l-49.7-0.2c-1.2,0-2.4,0-3.7,0c-6.7,0-13.4,0-20,0.1h0c-6.6,0-13.3,0.1-20.1,0.1c-16.1,0-35.2-0.2-54.4-2.1l-2.5-0.2
		c-1-0.1-6.1-0.7-12.6-1.5l-0.1,0c-9.7-1.2-21.8-2.6-26.5-3.2l-0.2,0c-14.2-1.6-28.3-4.1-42.1-7.7c2.4,0.9,4.7,2.1,7,3.2
		c2.1,1,4.2,2,6.4,2.9c6.2,2.5,12.4,4.7,17.6,6.4c3.8,1.3,7.7,2.6,11.5,3.8l0,0 M-4183.9,11.4c-1.1,0-2.2-0.3-3.1-0.9
		c-0.9-0.7-1.5-1.8-1.7-3c-0.7-5.4-2.7-10.7-5.7-15.3c-0.7,0.2-1.4,0.6-2,1c-0.7,0.5-1.3,1-1.9,1.6c-1.3,1.2-2.6,2.3-4.6,2.3
		c-0.2,0-0.4,0-0.7,0c-2.5-0.3-5-2.1-4.9-4.9c0-2,1-3.9,2.6-5.1c1.6-1.1,3.5-1.7,5.5-1.7c-0.7-0.6-1.2-1.1-1.8-1.5l-0.7-0.5
		c-1-0.8-7-4.8-8.5-4.8c-0.2,0-0.3,0.1-0.4,0.2l0,0.1c0,0.2-0.1,0.3-0.2,0.4c-0.1,0.1-0.3,0.2-0.5,0.2c-0.2,0-0.3-0.1-0.4-0.2
		c-0.5-0.4-0.7-1.1-0.6-1.8c0.4-1.1,1.2-1.9,2.3-2.3c0.8-0.3,1.7-0.5,2.5-0.5c3.9,0,8.7,2.8,10.3,3.7l0.2,0.1
		c4.8,2.8,9.1,6.6,12.4,11.1c3.4,4.5,5.9,9.5,7.5,14.9c0.5,1.5,0.3,3.1-0.7,4.4C-4180,10.5-4181.9,11.4-4183.9,11.4z"/>
</g>
<path id="_Ink-3_00000062904132549190025710000012132278240804499378_" d="M800.8,883.2L800.8,883.2c-7.2,0-14.4-0.7-21.5-2
	c-15.2-2.8-30-7.5-44.1-14c-16-4.9-31.7-11-46.9-18.1c-7.8-3.6-16-7.6-23.8-12.1c-7.8-4.4-14.9-9.7-21.4-15.9c-3-3-5.6-6.2-8-9.6
	c-2.3-3.4-4.4-7.1-6.2-10.8c-3.5-7.6-6.2-15.5-8.1-23.6c-0.6-2.4-1.2-4.9-1.7-7.4c-0.5-1.4-1-2.9-1.3-4.3c-1.1-5-2.1-10.1-3-15.2
	c-1.8-10-3.2-20.2-4.3-30.3c-1.1-10.1-1.8-20.5-2.1-30.9c0-1.8-0.2-3.6-0.3-5.5c-0.2-3.6-0.4-7.3-0.3-11c0-3.5,0.7-7.1,1.8-10.4
	c1.8-4.7,5.7-7.7,10.1-7.9c0.1,0,0.2,0,0.3,0c2.5,0,5,1,6.9,2.7c2.8,2.4,10.1,17.4,17.9,33.2c7.3,14.9,14.8,30.3,19,36
	c8.8,12.1,18.8,23.2,29.9,33.3c0.2,0.1,0.4,0.2,0.6,0.4c15.1-3.6,28.8-2.5,39.4-13.8c3.2-3.4,6.2-7,9.2-10.4
	c6-7.1,12.2-14.4,19.8-20c2.8-2.1,5.8-3.8,9-5.2c3.2-1.4,6.6-2.3,10-2.8c1.9-0.2,3.7-0.4,5.6-0.4c3.3,0,6.6,0.3,9.8,0.6h0
	c3.2,0.3,6.5,0.6,9.8,0.6c1.1,0,2.1,0,3.1-0.1c1.6-0.1,3.2-0.2,4.8-0.4c3-0.3,5.8-0.5,8.6-0.5c4.2-0.1,8.4,0.7,12.3,2.4
	c7,3.1,12.4,8.7,17.6,14.2l0.5,0.5c3.7,3.9,8.7,3.6,13.1,6.7c4.2,3.1,7.8,0.6,12.5,2.8h0.1c1.3,0,2.6,0.5,3.5,1.6
	c0.5,0.2,1,0.4,1.6,0.6c1.5-1.7,5-4.3,7.6-6.1c1.1-0.8,2-1.4,2.4-1.8c1-0.8,2.3-1.3,3.6-1.3c1.4,0,2.8,0.5,3.8,1.5
	c0.8,0.9,1.2,2.1,1.1,3.3L906,760c-0.2,2.9-7.2,23.4-8.1,29.8c-0.7,5.2-1.6,10.3-2.7,15c-1.1,4.9-2.5,9.8-4.2,14.5
	c-1.7,4.7-3.7,9.3-6.1,13.8c-2.4,4.5-5.2,8.7-8.3,12.8c-6.8,8.7-15.4,15.8-25.2,20.8c-6.8,4.9-14.2,8.9-22.1,11.7
	c-4.6,1.6-9.3,2.8-14.1,3.6C810.5,882.8,805.6,883.2,800.8,883.2z M792,748c-8.3,2.4-22,10-30,13c-8.6,3.2-19,1.5-28,4
	c-6,1.7-21.8,1.1-28,2c1,1.1,13,14.5,14,16c8.8,5,14.5,15.3,24,19c1.4,0.5,9.7-7.5,11-7c2.1-0.6,5.5-3.6,7.9-4.5
	c4.1-1.9,8.1-4.3,11.9-6.7c4.7-3,9.6-5.6,14.7-7.9c4-1.6,8-2.8,12.2-3.6c4.2-0.8,8.4-1.2,12.6-1.2c11.3,0,10.6,2.7,20.6,7.8
	c0.7,0.3,10.3,2.7,11,3c2.7,1,8.2,5.1,11,6c2.2,0.7,8.7,7.5,11,8c5-5.6,11.3-33.1,14-40c-4.5-0.4-10.9-1.1-15-3
	c-3.2-1.4-10-0.3-13-2c-4-2.3-7.7-3.3-12-5c-3.3-1.2-17.6-0.5-21-1c-3.4-0.5-7.6-9-11-9"/>
<g id="face_Driven_00000070120527980984606800000006253735103461732265_" transform="translate(823)">
	<path id="_Ink-11_00000110456946318318275720000013666159279356237463_" d="M-14.7,765.1c-3.1,0-6.2-0.5-9.1-1.4
		c-3.4-1.1-6.6-2.8-9.4-5.1c-2.8-2.2-5.2-4.9-7.1-8c-1.7-2.7-2.8-5.7-3.3-8.8c-0.5-3.2-0.3-6.4,0.6-9.5c0.1-0.3,0.4-0.5,0.7-0.6
		c1.3,1.3,2.5,2.7,3.5,4.3l0,0c1.6,2.5,3.5,4.8,5.6,6.8c1.7,1.5,3.6,2.9,5.7,3.9c2,1.1,4.2,1.9,6.5,2.3c4.3,0.8,8.8,0.1,12.6-2
		c2.2-1.3,4.3-2.8,6.1-4.6l0.2-0.2c1.9-1.9,4.2-3.5,6.7-4.5c0.6-0.2,1.3-0.4,2-0.4c1.6,0,3.2,0.6,4.5,1.6c1,0.8,1.8,1.7,2.4,2.8
		c0.6,1.1,0.9,2.3,0.9,3.5c-0.2,3.6-1.7,7-4.2,9.6c-2,2.1-5.7,5.2-12.2,7.8C-6,764.3-10.3,765.1-14.7,765.1z M-9.7,700L-9.7,700
		c-4.3-0.1-8.5-0.9-12.4-2.5c-5.2-2.1-10.2-4.9-14.6-8.3c-1-0.8-1.8-2-2-3.2c-0.2-1.2-0.1-2.5,0.3-3.6c0.5-1.4,1.3-2.6,2.5-3.6
		c1.1-0.9,2.4-1.5,3.8-1.5c1.1,0,2.1,0.3,3,0.9c0.3,0.2,0.7,0.5,1,0.8c2.9,2.3,6,4.5,9.2,6.4c4.1,2.4,7.7,3.5,11,3.5
		c1.6,0,3.2-0.3,4.6-0.9c1.6-0.7,3.1-1.8,4.3-3.1c2.3-3,3.3-6.9,2.5-10.7c-0.9-3.6-2.7-6.9-5.4-9.5c-2.4-2.5-5.1-4.7-8.1-6.5
		c-0.8-0.7-1.1-1.9-0.7-2.9c0.2-0.7,0.7-1.3,1.2-1.8c0.7-0.5,1.5-0.8,2.4-0.8c0.3,0,0.6,0,0.9,0.1c3.4,0.5,6.6,1.7,9.6,3.5
		c2.5,1.5,4.7,3.5,6.4,5.9c3.2,4.6,4.6,10.2,4.1,15.7c-0.2,2.8-0.9,5.6-2.1,8.2c-1.1,2.6-2.7,5-4.7,7.1C2.7,697.6-3.4,700.1-9.7,700
		z M29,652.3c-2,0-3.8-0.8-5.1-2.3c-1.3-1.3-3-4-4-9.1c-0.6-3.1-0.8-6.2-0.7-9.3l0.1-0.8c0.2-4.6,1.3-9.1,3.1-13.4
		c1.8-3.9,4.1-6,6.7-6c5.1,0,8.2,4.4,9.9,8.1c1.8,4,2.9,8.4,3,12.9v0.2c-0.2,4.3-1.3,8.4-3.3,12.2c-1,2-2.4,3.8-4,5.2
		C33,651.5,31.1,652.3,29,652.3L29,652.3z M-80.3,652.3c-2.1,0-4-0.8-5.6-2.2c-1.7-1.5-3-3.2-4-5.2c-2-3.8-3.1-8-3.3-12.2v-0.2
		c0.1-4.4,1.2-8.8,3-12.9c1.7-3.7,4.8-8.1,9.9-8.1c2.7,0,5,2.2,6.8,6.2c1.8,4.4,2.8,9.1,3,13.9l0,0.4c0.1,3.1-0.2,6.2-0.8,9.2
		c-0.8,3.9-2.2,6.9-4,8.8C-76.5,651.5-78.4,652.3-80.3,652.3L-80.3,652.3z M-63.9,600.8c-3.4,0.3-6.8,0.3-10.1,0.1
		c-4.7-0.2-9-1.4-13.3-2.5c-2.6-0.7-5.4-1.4-8.2-1.9c-2.9-0.5-5.9-0.6-8.9-0.3c-3.7,0.3-7.4,0.9-11,1.7l-2.5,0.5l-0.1,0
		c-3.6,0.7-7.4,1.5-11,2.4c-1.1,0.3-2.1,0.6-3.2,0.9c-2.1,0.7-4.2,1.2-6.4,1.5l0,0c-0.2,0-0.4-0.1-0.5-0.2c-0.1-0.1-0.1-0.3,0-0.4
		c2-2.6,4.4-4.9,7.3-6.7c2.8-1.9,5.8-3.7,8.9-5.2l0.4-0.2c3.5-1.8,7.1-3.4,10.9-4.7c3.7-1.4,7.6-2.3,11.6-2.8c0.4,0,0.8-0.1,1.2-0.1
		c5-0.4,9.9,0.5,14.6,1.4c2.6,0.5,5.2,1,7.9,1.3c2.5,0.3,5.1,0.3,7.6,0.1c4.7-0.4,9.4-1.4,13.8-3c0.9-0.3,1.8-0.5,2.7-0.6
		c2.2-0.2,4.4,0.4,6,1.7c1.6,1.2,2.7,2.9,3.1,4.7c0.5,1.8,0.3,3.7-0.6,5.4c-1,1.9-2.8,3.3-5.1,4C-53.6,599.4-58.7,600.4-63.9,600.8z
		 M3.9,597.5c-2.8-0.2-5.6-0.8-8.3-1.6c-2.9-0.9-5.2-2.5-6.6-4.4c-1.4-2-1.6-4.2-0.6-6.3c1.8-3.4,6.5-5.4,11.6-5.2
		c1,0.1,1.9,0.3,2.8,0.6l0.3,0.1c1.4,0.5,2.8,0.8,4.3,0.9c3.6,0.3,7.5-0.3,11.1-0.9l4.1-0.7c0.6-0.1,1.1-0.2,1.7-0.3
		c5.8-1.1,11.9-2.2,18.2-1.7l0.2,0l0.7,0.1c5.4,0.6,10.6,2.2,14.9,4.7c4.4,2.4,7.4,5.8,8.6,9.6c0,0.1,0,0.2-0.1,0.3
		c-0.1,0.1-0.3,0.1-0.5,0.1c-0.1,0-0.3-0.1-0.4-0.1c-2.3-1.9-5.5-3.1-8.9-3.3c-5.6-0.5-11.6,1.1-17,2.6c-1.3,0.3-2.6,0.7-3.8,1
		l-3.3,0.8l-0.7,0.2c-4.5,1.2-9.2,2.1-13.9,2.9C13.7,597.5,8.8,597.8,3.9,597.5L3.9,597.5z"/>
</g>
<path class="st0" d="M821,793c4,6,9,11,4,16s1,21-2,18s-9-12-7-16s8-6,6-10S821,793,821,793z"/>
<path class="st0" d="M784,833c-1.9,6-4.3,11-1.9,16s-0.5,21,1,18c1.4-3,4.3-12,3.3-16c-1-4-3.8-6-2.9-10C784.5,837,784,833,784,833z
	"/>
<path class="st0" d="M689.1,792c-1.3,6-2.9,11-1.3,16c1.6,5-0.3,21,0.6,18s2.9-12,2.3-16s-2.6-6-1.9-10S689.1,792,689.1,792z"/>
<path class="st0" d="M897.5,747.5c-3.1,4.7-7,8.6-3.1,12.6c3.9,3.9-0.8,16.5,1.5,14.1c2.3-2.4,7-9.4,5.4-12.6
	c-1.5-3.1-6.2-4.7-4.6-7.9C898.2,750.7,897.5,747.5,897.5,747.5z"/>
<path class="st0" d="M660.5,762.5c-3.1,4.7-7,8.6-3.1,12.6c3.9,3.9-0.8,16.5,1.5,14.1c2.3-2.4,7-9.4,5.4-12.6
	c-1.5-3.1-6.2-4.7-4.6-7.9C661.2,765.7,660.5,762.5,660.5,762.5z"/>
<path class="st0" d="M745.8,806.4c-3.1,4.7-7,8.6-3.1,12.6s-0.8,16.5,1.5,14.1c2.3-2.4,7-9.4,5.4-12.6c-1.5-3.1-6.2-4.7-4.6-7.9
	C746.6,809.6,745.8,806.4,745.8,806.4z"/>
<path class="st0" d="M869,836.1c-2.1-4.2-4.8-7.7-2.1-11.2c2.7-3.5-0.5-14.7,1.2-12.6c1.6,2.1,4.8,8.4,3.7,11.2s-4.3,4.2-3.3,7
	C869.6,833.3,869,836.1,869,836.1z"/>
</svg>
</svg>
