<?xml version="1.0" encoding="utf-8"?>
<!-- Generator: Adobe Illustrator 27.7.0, SVG Export Plug-In . SVG Version: 6.00 Build 0)  -->
<svg version="1.1" id="Layer_1" xmlns="http://www.w3.org/2000/svg" xmlns:xlink="http://www.w3.org/1999/xlink" x="0px" y="0px"
	 viewBox="0 0 1366 1555" style="enable-background:new 0 0 1366 1555;" xml:space="preserve">
	 <svg y="-200">
<style type="text/css">
	.st0{fill:#FFFFFF;}
	.st1{fill:none;}
</style>
<g id="body_Button_Shirt_2_00000126324033050002028450000001426490967765232315_" transform="translate(0 1773)">
	<g id="_Skin-7_00000157996600332335548260000002984533278580391310_">
		<path id="_Skin-8_00000087403019723182211100000008363416790388293053_" class="st0" d="M708.7-158.5c-94,0-187.5-4-278-12l0-0.2
			l-4.8-0.5c-13.7-1.5-27.7-2.7-41.2-3.8c-35.7-3-72.5-6.1-106.9-15.3l-6.1-1.6l-0.6,1.3c-0.9-0.4-1.8-0.8-2.8-1.2
			c5.4-77.4,14.4-153.3,22.6-217.6l0.3-2.6l-2-2c-11.5-11.5-15.8-21.1-13-29.4c23-42,27.9-95.6,32.6-147.4
			c9.8-107.4,19-208.8,178.4-213.2l0.3,0l1.7-0.1c33.2-2,67.6-4.1,98.3-17.4l3.6-1.6l0.2-3.5c0.3-4.2,6.2-9.2,10.9-13.3
			c1.6-1.4,3.2-2.7,4.6-4l0.3-0.3l0.3-0.3c7.2-8.7,15.6-14,22.6-14c10.1,0,15,11.1,17,17.7l3.2,10.4l8.4-7.9
			c19.8-18.6,29.3-39,28.3-60.7l0.7-0.2l-0.9-5.2c-1.7-9-0.6-15.7,3.4-19.9c4.7-4.9,14-7.3,28.3-7.3c9.5,0,19.8,1,28.8,2
			c3,0.3,5.8,0.6,8.5,0.8c18.2,1.7,36.8,4.7,54.7,7.6l2.5,0.4l-1.7,4.1l4.4,2.6c5.8,3.5,10.2,10.6,11.9,19.4l0.1,0.4l0.1,0.4
			c2.6,7.2,3.6,15.2,4.6,23.7c1.7,14.3,3.5,29,13.3,41.7l5.9,7.6l5.6-7.8c2.7-3.8,6.4-5.6,11.2-5.6c13,0,28.9,12.6,31.7,22.3
			l0.9,3.1l3.5,1.1c23.9,7.3,43.7,12.6,61.1,17.3c43.7,11.8,65.6,17.7,79.7,35.1c14.5,17.8,21.8,49,34,111
			c13.3,67.2,22.3,136.2,30.9,203c10.8,83.9,22,170.5,42.1,254.6c-1.3,1.1-2.3,2.4-3.2,3.8c-8.9,0.7-17.9,1.3-26.6,1.9
			c-14.6,1-29.7,2-44.4,3.4l-3.3,0.3l-0.7,1c-1.3,0.1-2.7,0.2-4,0.3c-2.1,0.2-4.1,0.4-6,0.5l-0.6-1l-4.8,0.5
			C942.4-164.5,825.6-158.6,708.7-158.5"/>
		<path id="_Skin-9_00000110467652109614388730000014074462488633063074_" class="st1" d="M708.7-158.5c-94,0-187.5-4-278-12l0-0.2
			l-4.8-0.5c-13.7-1.5-27.7-2.7-41.2-3.8c-35.7-3-72.5-6.1-106.9-15.3l-6.1-1.6l-0.6,1.3c-0.9-0.4-1.8-0.8-2.8-1.2
			c5.4-77.4,14.4-153.3,22.6-217.6l0.3-2.6l-2-2c-11.5-11.5-15.8-21.1-13-29.4c23-42,27.9-95.6,32.6-147.4
			c9.8-107.4,19-208.8,178.4-213.2l0.3,0l1.7-0.1c33.2-2,67.6-4.1,98.3-17.4l3.6-1.6l0.2-3.5c0.3-4.2,6.2-9.2,10.9-13.3
			c1.6-1.4,3.2-2.7,4.6-4l0.3-0.3l0.3-0.3c7.2-8.7,15.6-14,22.6-14c10.1,0,15,11.1,17,17.7l3.2,10.4l8.4-7.9
			c19.8-18.6,29.3-39,28.3-60.7l0.7-0.2l-0.9-5.2c-1.7-9-0.6-15.7,3.4-19.9c4.7-4.9,14-7.3,28.3-7.3c9.5,0,19.8,1,28.8,2
			c3,0.3,5.8,0.6,8.5,0.8c18.2,1.7,36.8,4.7,54.7,7.6l2.5,0.4l-1.7,4.1l4.4,2.6c5.8,3.5,10.2,10.6,11.9,19.4l0.1,0.4l0.1,0.4
			c2.6,7.2,3.6,15.2,4.6,23.7c1.7,14.3,3.5,29,13.3,41.7l5.9,7.6l5.6-7.8c2.7-3.8,6.4-5.6,11.2-5.6c13,0,28.9,12.6,31.7,22.3
			l0.9,3.1l3.5,1.1c23.9,7.3,43.7,12.6,61.1,17.3c43.7,11.8,65.6,17.7,79.7,35.1c14.5,17.8,21.8,49,34,111
			c13.3,67.2,22.3,136.2,30.9,203c10.8,83.9,22,170.5,42.1,254.6c-1.3,1.1-2.3,2.4-3.2,3.8c-8.9,0.7-17.9,1.3-26.6,1.9
			c-14.6,1-29.7,2-44.4,3.4l-3.3,0.3l-0.7,1c-1.3,0.1-2.7,0.2-4,0.3c-2.1,0.2-4.1,0.4-6,0.5l-0.6-1l-4.8,0.5
			C942.4-164.5,825.6-158.6,708.7-158.5"/>
	</g>
	<path id="_Top-2_00000068663856906058534680000009088205578771766202_" class="st0" d="M629.8-858.4c10.1,0,15,11.1,17,17.7
		l3.2,10.4l4.9-4.6l-9,13.7l69.8,56.1l2.7,1.6c28.5,17.5,47.9,26.2,58.2,26.2c10.6,0,42.3-22.8,94.9-68.4l-28.4-15.5l2.6-7l5.7,7.4
		l5.6-7.8c2.7-3.8,6.4-5.6,11.2-5.6c13,0,28.9,12.6,31.7,22.3l0.9,3.1l6.3,1.9c18.9,5.7,35.1,10.2,49.7,14.1l18.6,5
		c37.1,10.1,56.7,16.4,69.6,32.3c14.2,17.5,21.5,47.8,33.3,107.3l0.7,3.7c12.7,64.1,21.4,129.9,29.7,193.9l3.2,24.9
		c10.2,78.9,21.2,160,40.1,238.9c-1.3,1.1-2.3,2.4-3.2,3.8c-5.9,0.5-11.9,0.9-17.8,1.3l-16.8,1.2c-12.1,0.8-24.4,1.7-36.4,2.8
		l-3.3,0.3l-0.7,1c-0.9,0.1-1.8,0.1-2.7,0.2l-1.3,0.1c-2.1,0.2-4.1,0.4-6,0.5l-0.6-1l-4.8,0.5c-116.1,11.5-232.9,17.4-349.7,17.6
		c-94,0-187.5-4-278-12l0-0.2l-4.8-0.5c-10.9-1.2-22.1-2.2-33-3.1l-15.8-1.3c-33.3-2.8-67.3-6.1-99.3-14.7l-6.1-1.6l-0.6,1.3
		c-0.9-0.4-1.8-0.8-2.8-1.2l0.4-5.2c5.4-75.6,14.3-149.5,22.2-212.4l0.3-2.6l-2-2c-11.5-11.5-15.8-21.1-13-29.4
		c23-42,27.9-95.6,32.6-147.4l0.6-6.4c9.5-103.9,21.4-200.5,173-206.6l5-0.2l7.6-0.5c31.4-1.9,63.5-4.5,92.4-17.1l3.6-1.6l0.2-3.5
		c0.2-3.8,5-8.1,9.4-11.9l3-2.5c1.1-1,2.2-1.9,3.2-2.8l0.3-0.3l0.3-0.3C614.4-853.2,622.9-858.4,629.8-858.4z"/>
	<path id="_Ink-3_00000104688290857379257220000010213858154133794494_" d="M432.8-147.5c-2,0-4.2-1.1-6.6-3.2
		c-1.7-2.5-3.1-5.2-4-8.1c-0.9-2.8-1.6-5.6-1.9-8.5c-0.6-5.9-0.7-11.8-0.3-17.8c0.1-4.2,0.3-8.5,0.1-12.7
		c0.4-22.1,1.4-43.8,2.9-64.5c1.6-22,3.9-43.7,6.7-64.3c3-21.8,6.8-43.3,11.2-63.8c4.7-21.5,10.2-42.7,16.4-62.9l1.1-2.9
		c2.9-7.7,5.3-13.8,7.2-18.6v0c8.5-21.4,8.5-21.4,3.7-51.1c-0.6-3.6-1.2-7.7-2-12.3c-0.1-1.5-0.4-3-0.7-4.5
		c-0.9-5-2.1-11.1,1.7-13.2c3.7,2.1,5.4,7.3,6.8,11.6c0.3,1,0.7,2,1,2.9l0.1,0.3c2.5,6.4,4.8,13,6.9,19.1c1.9-4.5,3.8-9.2,5.6-13.8
		c5-12.8,10.3-26,17.8-37.9c0.1-0.2,0.3-0.2,0.5-0.2c0.2,0,0.3,0.1,0.5,0.2c0.1,0.1,0.1,0.2,0.1,0.3c-2.4,13.7-6.8,27.4-11.1,40.6
		c-2.9,8.8-5.8,17.8-8.1,26.8l0.2,0.4c1.6,4.3,2.8,8.7,3.4,13.2c0.7,4.4,0.9,10.2-1.4,13.1c-0.9,1.1-2.4,1.8-3.9,1.8
		c-1.8-0.1-3.5-0.5-5-1.3l-1.3,6.1c-6,27.7-11,52.2-15.2,74.8c-5,26.9-9,51.5-12.2,75.2c-7.4,54.9-10.4,104.5-9.3,151.6
		c0,3.7-0.4,7.5-1.4,11.1c-0.9,3.4-2.5,8-5.3,10.6C435.9-148.2,434.4-147.5,432.8-147.5z M779.2-156.9c-4.4,0-7.1-2.4-7.4-6.5
		c-1.2-1.2-2.1-2.6-2.5-4.1c-0.4-1.5-0.4-3.1-0.1-4.6c0.3-1.4,1-2.8,2-4c1-1.2,2.4-2.1,3.9-2.7c0,0,0.6-0.2,1.4-0.5l0,0l0,0
		c0.5-0.2,0.9-0.3,1.1-0.4c1-0.3,2-0.4,3.1-0.4c4,0.1,7.7,1.9,9.8,4.8c2.4,2.9,3.1,6.8,1.7,10.2c-0.8,2.4-2.6,4.6-5.1,5.9
		C784.9-157.8,782.1-156.9,779.2-156.9L779.2-156.9z M1063.3-162.7c-2.6,0.1-5.1-0.9-6.8-2.6c-2.1-2.1-2.8-5.4-2.1-9.5
		c-13.9-52.6-24.4-99.3-32.2-142.7c-4.4-24.7-8.1-49-10.9-72.2c-2.9-24.7-5-49.1-6.1-72.5c-2.4-18.2-3.7-36.4-3.9-54.7
		c-0.3-18.4,0.2-37.1,0.6-55.3v-0.2c0.2-6.5,0.3-13.2,0.4-19.8c0.2-14.2,1.4-28.3,3.6-42.3c0.1-0.3,0.3-0.5,0.5-0.5
		c0.2,0,0.4,0.1,0.5,0.3c0.2,0.2,0.3,0.5,0.2,0.8c1.3,5.9,1.1,12.3,0.9,18.5c-0.1,3.6-0.2,7.2-0.1,10.8c1.4-2.8,3.2-5.5,5.4-7.9
		c0.4-0.4,1-0.7,1.6-0.7c1,0.1,1.9,0.6,2.3,1.4c0.4,0.8,0.3,1.7-0.4,2.4c-2.4,2.6-4.4,5.5-5.7,8.6c-1.3,3.1-2.2,6.3-2.6,9.6
		c1.9,34.5,4.7,69.4,8.3,103.6c3.7,34.5,8.4,69.2,13.9,103.2c5.6,34.3,12.1,68.8,19.5,102.4c7.5,34,16,68.1,25.3,101.4
		c1,2.2,1.5,4.7,1.2,7.1c-0.2,2-1,3.9-2.3,5.5C1072-164.8,1067.8-162.8,1063.3-162.7L1063.3-162.7z M727.6-163.6
		c-2.7-0.1-5.2-1.1-6.9-2.8c-1.4-1.3-2.4-2.8-3-4.5c-0.7-2-1-4.1-0.9-6.2c-0.2-47.9,0.2-91.8,1.4-134.4c1.3-46.6,3.4-91.8,6.4-134.4
		c3.2-46.1,7.5-91.2,12.8-134c2.8-22.5,5.9-44.9,9.3-66.7c3.5-22.4,7.4-44.8,11.5-66.4c-12.8,14.1-25.8,28.5-38.4,42.4l-0.5,0.5
		c-17.2,19-35,38.6-52.5,57.9c-0.8,0.9-2.1,1.5-3.4,1.4c-2-0.1-3.9-0.9-5-2.4l-0.1-0.2l0.7,1.8c-1.4-0.4-2.7-1-4-1.8
		c-0.3-0.2-0.7-0.4-1.1-0.6c-11-23.6-19.3-48.5-27.4-72.5c-3.2-9.5-6.5-19.2-9.9-28.8c-3.4-11.4-7.6-22.9-11.5-34.1v0
		c-3.8-10.7-7.7-21.7-11.1-32.6c-3.4-10.9-6.1-22-8-33.1l-0.3-0.1c-7.6,3.3-15.5,6-23.7,8c-8.2,2-16.6,3-25,3.2
		c-17.1,3.9-35,5.9-52.3,7.8c-1.8,0.2-3.9,0.4-5.9,0.7c-8.3,0.3-16.5,1.1-24.7,2.3c-7.5,1.1-14.9,2.7-22.2,4.8
		c-6.8,1.9-13.4,4.3-19.8,7.1c-6.1,2.7-12,5.7-17.6,9.2c-5.5,3.4-10.6,7.1-15.5,11.1c-4.8,4-9.3,8.3-13.5,12.8
		c-8.4,9.2-15.6,19.3-21.4,29.9c-6.1,11.1-11,22.6-14.9,34.3c-4,12.2-7.1,24.6-9.3,37.2c-4.1,23.1-6.1,48.8-5.7,76.5l-0.2,4.8
		c-0.1,2.7-0.3,5.5-0.4,8.2v0c-0.6,13.3-1.3,27.1-2.7,40.5c-1.3,13.5-3.8,26.8-7.5,39.9c-0.6,1.1-1.5,3.5-2.7,6.4l0,0
		c-1.9,5.3-4.2,10.5-6.8,15.6c-1.1,2.2-2.6,4.3-4.3,6.2c-1.6,1.6-3.1,2.5-4.6,2.5c-1.5,0-3-0.9-4.4-2.7c-3.9,4.6-5.4,8.3-4.7,11.6
		c0.5,1.9,1.6,3.7,3.2,5.1c2.1,1.8,4.4,3.4,6.9,4.8c5.1,3.8,9.8,8,14.2,12.4c4.6,4.7,8.9,9.7,12.7,14.9c3.8,5.3,7.1,10.8,9.7,16.6
		c2.6,5.7,4.4,11.6,5.4,17.7c0.2,1.4-0.3,2.8-1.4,3.9c-1,1.1-2.5,1.7-4,1.8c-1.6,0-3.1-0.9-3.6-2.3l-1.3-2.4
		c-5.9-11.2-9.5-17.1-11.9-21c-4.2-6.8-9-13.4-14.3-19.6c-0.5,0.7-1.1,1.3-1.9,1.7c-2.1,48.9-6.1,98.5-10,146.6
		c-0.8,10-1.6,20.3-2.4,30.5c-0.6,2.1-0.8,7-1,13.1c-0.3,7.6-0.6,17.2-2,24.7c-0.5,3.2-1.5,6.4-3.1,9.4c-1.5,2.5-3.3,3.7-5.5,3.7
		c-2.1-0.2-4-0.9-5.6-2.1l-0.6-0.4c-3.6-6.7-2.6-14.5-1.5-22c0.2-1.8,0.5-3.4,0.6-5.1l2.7-28.3c1.4-14.1,2.9-28.4,4.2-42.2
		c4.2-42.9,8.6-87.3,14.8-130.8l-0.6-0.6c-5.7-5.8-9.6-11.1-12.1-16.3c-1.4-2.9-2.3-6-2.7-9.2c-0.3-3.2,0.1-6.4,1.2-9.5
		c0.8-2.4,2.1-4.7,3.9-6.6c1.8-1.9,3.7-3.7,5.8-5.4c2.1-1.7,4-3.5,5.8-5.4c2.9-13.6,5.3-29.3,7.3-47.9c1.8-16.6,3.1-34.2,4.3-51.2
		c2.1-29.2,4.4-59.5,9.1-87.9c2.2-13.9,5.4-27.6,9.4-41.2c2-6.7,4.3-13.2,6.7-19.2c2.6-6.3,5.4-12.4,8.4-18.1
		c3.1-5.8,6.5-11.4,10.3-16.8c3.8-5.3,7.9-10.4,12.5-15.3c4.6-4.8,9.5-9.4,14.9-13.6c5.5-4.3,11.3-8.2,17.5-11.7
		c6.5-3.7,13.3-6.9,20.4-9.6c7.6-2.9,15.5-5.4,23.5-7.4c8.8-2.1,17.8-3.8,26.8-4.9c10.1-1.3,20.2-2,30.4-2.3l9.3-0.6
		c13.7-0.9,29.6-2,45.1-4.4c16.6-2.7,30.7-6.5,43-11.9c0.2-2.9,1.6-6,4.5-9.3c2.6-2.9,5.5-5.5,8.5-8c1.6-1.3,3.1-2.6,4.3-3.8
		c3.8-4.8,8.5-8.9,13.9-12.2c2.2-1.3,4.6-2.4,7.2-3.2c2.3-0.7,4.7-1.1,7.1-1.1c2.5,0,5,0.4,7.3,1.3c2.5,1,4.7,2.3,6.6,4.1
		c4.3,3.8,7.6,9.5,9.8,16.8c25.2-23.7,32.5-49.8,21.7-77.4c2.3,0.2,4.5,1.1,6.2,2.6c1.9,1.6,3.5,3.5,4.8,5.6
		c2.5,4.2,4.3,8.6,5.4,13.2c1.6,7.1,1.9,14.5,0.7,21.7c-1.2,7.2-3.5,14.3-6.8,21c-3.4,6.8-7.6,13.2-12.6,19.1
		c-4.9,5.8-10.4,11.2-16.5,16.1c17.6,13.9,36,27,55.2,39.3c19.2,12.3,39.1,23.6,59.7,33.8c2.9-2.7,7-4.2,11.2-4.1
		c4,0,7.9,1,11.3,2.6c6.3-5.2,12.6-10.4,18.8-15.5c15.9-13,32.4-26.5,48.1-40.3c-8-4.4-14.8-10.4-19.9-17.4
		c-4.9-6.8-8.4-14.4-10.3-22.3c-4.6-18-2.4-36.7,0.3-49.1l0.2-1c0.1-0.9,1-1.7,2.1-1.6c1.5,0,2.7,0.9,3,2.2l0.2,1.5
		c0.3,2.7,0.5,5.5,0.7,8.1c1.6,18.1,3.2,36.7,14.5,52.2c1.9-2.7,4.5-4.9,7.7-6.5c2.9-1.3,6.1-2,9.4-2c4.2,0.1,8.4,0.9,12.2,2.4
		c4.2,1.6,8.1,3.7,11.6,6.3c3.5,2.5,6.6,5.4,9.3,8.6c2.4,2.9,4.2,6.1,5.3,9.6c23.8,7.3,43.5,12.6,60.8,17.2
		c21.9,5.9,39.2,10.6,52.5,16c6.2,2.5,12.1,5.5,17.5,9.1c5.1,3.5,9.6,7.6,13.3,12.2c7.5,9.2,13.3,21.7,18.7,40.3
		c5.2,17.7,10,40.2,16.4,73.1c6,30.6,11.6,64.2,17.2,102.7c5,34.3,9.6,69.2,14.1,103v0c5.5,41.9,11.2,85.2,17.8,127.7
		c3.6,22.9,7.1,43.7,10.8,63.6c4.2,22.4,8.4,43.1,13.1,63.3c0.4,4.3-4,7.8-8.5,8.4c-0.4,0-0.8,0.1-1.2,0.1c-1.4,0-2.8-0.3-4-0.9
		c-1.3-0.7-2.4-1.5-3.3-2.6c-2.2-2.7-3.9-5.7-4.9-8.9c-2.6-7.2-4.1-16.1-5.4-23.9c-0.6-4.5-1.5-8.9-2.7-13.3
		c-7.4-37.1-13.8-77.4-20.2-126.6c-4.9-36.7-8.9-74.2-12.8-110.4c-4.7-43.8-9.6-89.2-16-133.5c-3.5-23.9-7.1-45.6-11.1-66.3
		c-4.5-23.3-9.4-44.8-14.9-65.8c-1.6-5.2-3.7-10.3-6.2-15.2c-2.5-4.9-5.9-9.5-9.9-13.6c-4.4-4.1-9.3-7.8-14.6-10.9
		c-5.3-3-10.8-5.7-16.6-7.9c-11.6-4.4-24.2-7.6-36.5-10.6h0c-11.1-2.8-22.6-5.6-33.3-9.4c-5.3-1.9-10.5-4.1-15.5-6.6
		c-5-2.6-9.7-5.6-14.1-9c3,8.2,4.1,17.9,3.2,30.5c-1.9,24.6-3.4,49.7-4.9,73.9v0c-1.8,28.8-3.6,58.5-6,87.7
		c-0.1,1.6-0.9,3.2-2.3,4.3c-1.3,1-2.9,1.6-4.6,1.5c-2.4,0-4.6-1.1-5.9-2.8c-10.7-13.6-21.6-27.4-32.2-40.8l0-0.1
		c-20.2-25.4-41-51.6-60.8-77.9c-3.5,1.5-7.3,2.3-11.2,2.4c-1.5,0-3-0.1-4.5-0.4c-2.6,2.8-4.3,7.3-5.3,13.6
		c-0.8,5.9-1.2,11.9-1.2,17.8c-0.2,6.5-0.4,12.7-1.4,17.4l-1.1,10.3c-4.4,42.7-8.2,81.8-11.4,119.3c-3.6,42.1-6.6,81.1-9,119.5
		c-2.6,41.1-4.5,81.4-5.7,119.6c-1.3,40.9-1.8,81.2-1.6,119.7l0,5.2c0,1.7,0,3.4,0.1,5v0c0.1,3.2,0.2,6.6-0.1,9.8
		c-0.5,2.7-1.9,5.2-4,7.3C731.9-164.5,729.8-163.6,727.6-163.6L727.6-163.6z M635.1-676.3L635.1-676.3c1.5,4.7,3.4,10.8,5.4,17
		c5.2,15.9,11.4,31.2,16.3,42.8C650-635.3,642.9-654.8,635.1-676.3L635.1-676.3z M631.1-848.8L631.1-848.8c-1.9,0-3.8,0.5-5.4,1.4
		c-1.9,1.1-3.6,2.3-5.1,3.8c-3.6,3.7-6.8,7.6-9.7,11.7l0,0l0,0c-3.5,4.6-7.1,9.4-10.9,12.8c1.7,10.9,4.1,21.9,7.1,33.6
		c2.7,10.5,6,21.3,9.9,33c7.3,21.9,16.1,43.9,24.5,65.1c8,20.2,16.3,41.1,23.4,61.8c17.9-20,36.4-40.7,52.7-58.9l0.9-1
		c12.6-14,25.6-28.6,38.3-42.8c1.1-1.2,2.2-2.5,3.2-3.7l0,0c0.7-0.8,1.5-1.7,2.2-2.6c-9.9-5-19.4-10.1-28.4-15.3
		c-9.5-5.5-18.7-11.1-27.2-16.8c-9-6-17.7-12.2-25.7-18.5c-8.4-6.6-16.5-13.4-23.9-20.4c-0.4,0.1-0.8,0.1-1.3,0.1
		c-1.9-0.1-3.7-0.7-5.1-1.8c-1.6-1.2-3.1-2.4-4.5-3.8c-1.2-1.1-2.4-2.2-3.7-3.2l-0.4-0.3c-2.1-1.5-3.7-3.3-4.9-5.3
		c-1.2-2-1.3-4.5-0.1-6.5c-0.1-0.2-0.1-0.5,0-0.7c0.2-0.3,0.5-0.5,0.9-0.6c1.4-1.3,2.8-2.6,4.2-3.9c1.7-1.6,3.5-3.2,5.2-4.9
		C641.5-844.8,636.3-848.8,631.1-848.8L631.1-848.8z M861.2-821.1L861.2-821.1c-2.3,0-4.5,0.2-6.8,0.5c3,3.6,7.5,5.8,11.8,7.8
		c4.1,2,8.4,4,11.3,7.4c0.9,1.4,1,3,0.3,4.5c-0.9,1.7-2.6,2.8-4.7,3.2c-10.6,8.4-21.1,17-31.3,25.3c-14.9,12.2-30.2,24.7-46,36.8
		c23.2,26.3,46.1,53.5,68.3,79.8l0,0l0,0.1c6,7.1,12.2,14.5,18.4,21.8c1-23.8,2.5-47.9,3.9-71.3v0c1.3-22,2.7-44.8,3.7-67.2
		c0.8-7.6,0.5-15.2-0.8-22.7c-1.6-8.4-4.7-14.9-9.4-19.3c-2.2-2.1-4.9-3.8-7.9-5C868.6-820.5,865-821.1,861.2-821.1L861.2-821.1z
		 M771.7-245.4c-2.2,0-4.4-1-5.8-2.5c-1.3-1.4-1.7-3.3-1.2-5l0-1.1c0-0.3,0-0.6,0-0.8v-0.1c-0.2-2.7,0-5.4,0.6-8.1
		c0.7-2.7,2.8-4.9,5.8-5.8c1.9-1.7,4.4-2.7,7.1-2.8c4.1,0.2,7.7,2.7,8.7,6.2c0.9,2.7,0.7,5.7-0.7,8.2c-2,3.7-5.1,6.7-9.1,8.9
		C776.1-246.6,774-245.4,771.7-245.4L771.7-245.4z M770.6-365.6c-1.7,0-3.3-0.7-4.2-1.9c-1.2-1.4-1.9-3-2.1-4.7
		c-0.3-1.8-0.2-3.5,0.2-5.3c-2.2-2.9-2.8-6.4-1.9-9.8c0.6-2.3,1.8-4.5,3.5-6.5c1.7-2,3.8-3.6,6.2-4.9c1.5-0.4,3-0.7,4.6-0.7
		c2.3-0.1,4.6,0.8,6.2,2.2c1.6,1.6,2.6,3.6,2.9,5.7c0.8,5,0.1,10.1-2.1,14.7c-1,2.3-2.4,4.4-4.1,6.4c-1.5,1.7-3.4,3-5.6,3.8
		C773-366,771.8-365.7,770.6-365.6L770.6-365.6z M779-476.5c-1.3,0-2.5-0.5-3.3-1.3c-2.5-2.3-4.2-5.3-4.9-8.4
		c-0.6-3-0.2-6.1,1.1-8.8c-0.7-2.4-0.9-5.9,1.7-8.7c1.9-2.1,4.8-3.3,7.9-3.2c2.6,0,5.1,0.9,7,2.5c2.2,2.1,3.4,4.9,3.3,7.7
		c0.5,3.8-1.8,6.8-3.9,9.8c-1.5,1.9-2.7,3.9-3.6,6.1C784-478.5,781.8-476.6,779-476.5L779-476.5z M784.6-608
		c-2.4-0.1-4.7-0.7-6.8-1.7c-2.3-1.1-4.3-2.6-6-4.4c-2.6-2.8-3.6-5.9-3-8.6c0.5-3.8,2.1-6.7,4.6-8.6c2.1-1.5,4.7-2.3,7.3-2.3
		c3.4,0,5.9,1.2,6.1,2.3c0.2,0.8-0.8,1.3-1.6,1.6c-0.1,0.1-0.3,0.3-0.5,0.4c2.1,0.1,4.1,1,5.5,2.5c1.4,1.8,2.2,4,2.2,6.2
		c0.1,2.3-0.1,4.6-0.5,6.9c-0.4,1.7-1.4,3.2-2.9,4.4C787.9-608.5,786.3-608,784.6-608L784.6-608z"/>
</g>
<g id="head_Short_5_00000055703760128925322500000012205416809105543835_" transform="translate(5380 721)">
	<path id="_Ink-47_00000100345593584689803600000014718733205322783873_" d="M-4700.9-220.3c7.5-2.8,15.3-4.9,23.2-7.1
		c17-4.5,34.4-7.6,52-9.3c10.4-1,20.9-1.6,31.4-1.6c12.5,0,25,0.7,37.5,2c11.9,1.2,24.1,2.9,37.4,5.3c2.3,0.3,4.2,2.1,4.8,4.4
		c10,0.5,20.1,1.1,29.9,1.7c6.6,0.4,13.4,0.8,20,1.2c1.4,0.1,2.8,0.5,4,1.2c2.2,1.4,3.6,3.8,3.7,6.4c0,1.4-0.3,2.8-1,4.1
		c-0.6,1.1-1.2,2.2-1.7,3.1l0.7-0.2c2.7-0.9,5.5-1.4,8.3-1.5c2.4,0,4.8,0.5,7,1.6c3,1.6,5.3,4.1,6.5,7.2c1.2,3.1,1.5,6.5,0.8,9.7
		c-0.4,1.7-0.9,3.3-1.6,4.9c0.5,0,1,0,1.5,0c0.9,0,1.8,0.1,2.6,0.2c1.8,0.2,3.5,0.7,5,1.5c4.7,2.4,7.8,7.1,8,12.4
		c0.3,5.2-1.1,10.8-4.2,16.4c0,0-21.1,23.1-36.1,26.1s-43-7-43-7L-4700.9-220.3z"/>
</g>
<g id="head_Short_1_00000031907307091365555530000000614516683502833025_" transform="translate(4787 721)">
	<g id="_Skin-124_00000172420797281571459460000006540065942685747884_">
		<path id="_Skin-125_00000127743746221110647800000017745021766749192085_" class="st0" d="M-4015.9-219
			c56.8,0,115.5,44,136.3,72.1c24.1,32.5,43.1,188.4,34.1,241.3S-3898.6,205-3975.4,205s-123.5-9.5-125.4-23.2s-50.7-90.2-50.7-90.2
			s-49.9-14-50.1-47.6c-0.2-33.5,26.7-45.7,26.7-45.7s-9.6-132.3,14.6-166.7S-4072.7-219-4015.9-219z"/>
		<path id="_Skin-126_00000083781328908426642940000001942189494719469725_" class="st1" d="M-4015.9-219
			c56.8,0,115.5,44,136.3,72.1c24.1,32.5,43.1,188.4,34.1,241.3S-3898.6,205-3975.4,205s-123.5-9.5-125.4-23.2s-50.7-90.2-50.7-90.2
			s-49.9-14-50.1-47.6c-0.2-33.5,26.7-45.7,26.7-45.7s-9.6-132.3,14.6-166.7S-4072.7-219-4015.9-219z"/>
	</g>
	<path id="_Ink-42_00000116923658287784150870000016711423506623192207_" d="M-3977.3,210.9c-9.5,0-18.9-0.8-28.3-2.4
		c-3.8-0.7-7.6-1.6-11.4-2.7c-3.8-1.2-7.5-2.7-11-4.4c-7.1-3.4-13.3-8.5-18.1-14.7c-0.2-0.3-0.3-0.7-0.1-1c0.3-0.5,0.8-0.7,1.3-0.7
		c0.2,0,0.4,0,0.5,0.1c9.9,4.5,20.2,7.9,30.8,10.1c10.6,2.2,21.4,3.3,32.3,3.2c7.8,0,15.6-0.5,23.3-1.6c13.7-1.8,27.1-5.6,39.6-11.5
		c8-3.8,15.2-8.9,22.1-13.9c2.2-1.6,4.5-3.2,6.8-4.8c1.8-2.5,3.7-4.8,5.8-7.1l3.3-3.5c2.4-2.5,4.9-5.2,7.1-8.1
		c3.4-4.4,6.5-9.1,9.3-14c2.7-4.9,5.1-10,6.9-15.3c6.8-19.1,5.5-39.8,4.3-59.8v-0.1c-0.1-1.3-0.2-2.7-0.2-4l-0.1-1.9
		c-1.3-22.6-3.5-45.5-6.4-68c-2.9-22-6.7-44.7-11.2-67.5c-1.1-5.3-2.2-10.7-3.3-15.9v0c-1.2-5.6-2.4-11.4-3.6-17.1
		c-0.9-4.7-1.7-9.6-2.3-14.3l0-0.1c-0.1-0.9-64.3,19.6-113.3-11.4c-13.6-8.6-98-46-100.9,12.6c1.1,0.4-4.7,59.6-4.7,59.6
		s-10.4,47.1-9.8,61.5v0c0.1,2.9,0.2,5.2,0.3,6.4c0.1,1.4,0.2,2.9,0.4,4.5c0.5,5.3,1.2,11.3-1.1,15.7c-0.8,1.4-2.2,2.3-3.9,2.3
		c-0.1,0-0.1,0-0.2,0c-6.2-0.5-12.6-0.9-18.7-1.4l-0.1,0l-1.4-0.1c-1.8,0-3.4-1.3-4-3l0-0.1c-0.1,0-0.1,0-0.2,0
		c-0.2,0-0.4-0.1-0.5-0.2c-0.4-0.4-0.8-0.7-1.1-1.1c-3-2.6-6.4-4.6-10.2-5.9c-3.8-1.3-7.7-2-11.7-2c-4.1,0-8.1,0.7-11.9,2.1
		c-3.2,1.2-11.3,4.7-16.4,10.5c-2.2,2.6-3.7,5.7-4.4,9.1c-0.8,3.3-1.1,6.7-1.1,10.2c0,3.2,0.3,6.5,0.9,9.6c0.6,3.2,1.5,6.3,2.6,9.3
		c1.2,3,2.7,5.9,4.4,8.6c1.8,2.7,3.9,5.2,6.2,7.4c8.8,8.3,20.3,10.7,31.4,13l1.2,0.3c1.2,0.3,2.2,1.3,2.4,2.5c0.4,1.2,0,2.6-1,3.5
		c4.3,4.5,8.4,9.2,12.1,14.2c0.6,0.8,1.3,1.7,1.9,2.5c5,6.4,10.3,13.6,16.8,22.9l2.6,3.7l1,1.4c4.7,6.7,10,14.2,13.5,22.3
		c4.1,9.3,4.9,17.3,2.4,24.4c-0.5,1.3-1.6,2.1-3,2.1c-1,0-1.9-0.5-2.3-1.4c-2.1-4.1-4-8.3-5.6-12.7c-1.5-3.7-3-7.6-4.9-11.3
		c-3.8-7.4-8.5-14.4-13.1-21.2l-0.4-0.6l-2.8-4.1c-4.2-6.2-9-13.5-13.4-20.8l-2.9-4.9c-2.9-4.6-5.4-9.4-7.6-14.3
		c-2.2,0.5-4.5,0.8-6.9,0.8c-2.9,0-5.8-0.4-8.6-1.1c-2.9-0.7-5.7-1.8-8.3-3.1c-5.3-2.6-10.1-6.1-14.3-10.3c-3-3.1-5.6-6.5-7.8-10.2
		c-2.2-3.7-4-7.6-5.4-11.7c-2.7-8.2-3.7-16.9-3-25.5c1-10.4,4.2-18.3,10-23.9c0.7-0.7,1.4-1.3,2.1-1.9c-0.2-0.1-0.4-0.3-0.6-0.6
		c-2.2-5.3-3.6-10.9-4.3-16.7c-0.8-5.7-1.2-11.5-1.3-17.3c-0.4-11.6-0.1-23.1,0.7-34.7c1.6-21.2,5.4-42.2,11.5-62.6
		c4.4-15.2,10.7-29.8,18.6-43.5c7.9-13.7,18.2-26,30.4-36.1c12.4-10.1,27.4-17.8,44.6-22.8c8.1-2.3,16.4-4,24.8-5.1
		c8.3-1.1,16.7-1.6,25.1-1.6h0.3h1c31.7,0.3,63,7.5,91.6,21.1c14.2,6.8,27.6,15.1,39.9,25c12.3,9.8,23.2,21.1,32.6,33.7l1.1,1.5
		c0.1,0.1,1.2,1.7,1.4,2.2c0.6,1.1,1.3,2.2,2,3.3v0c1,1.6,2,3.2,2.8,4.9c0.9,2,1.7,4,2.3,6.1c0.2,0.5,0.3,1,0.5,1.6l0.3,0.8
		c2.1,6,4,12.4,5.8,19.4c3.2,12.7,5.7,25.5,8.2,38.6c4.3,22.9,8,46.3,10.8,69.8c2.8,23.1,5,46.8,6.5,70.4l0.6,9.4
		c0.6,9.9,1,19.6-0.1,29.4c-0.6,5.6-1.8,11.2-3.4,16.6c-1.6,5.4-3.7,10.7-6.1,15.8c-4.6,9.5-10.4,18.3-17.2,26.4
		c-3.5,4.2-7.3,8.5-12.1,11.7c-3.7,2.5-8.1,4.2-12.3,5.8c-3.5,3.4-7.3,6.5-11.5,9.1c-4.1,2.6-8.4,5-12.8,7.1
		c-7.1,3.4-14.4,6.1-22,8.1c-7.6,2-15.3,3.5-23,4.4C-3964.3,210.5-3970.8,210.9-3977.3,210.9z M-4148.3,66.9c-1.1,0-2.2-0.3-3.1-0.9
		c-0.9-0.7-1.5-1.8-1.7-3c-0.7-5.4-2.7-10.7-5.7-15.3c-0.7,0.2-1.4,0.6-2,1c-0.7,0.5-1.3,1-1.9,1.6c-1.3,1.2-2.6,2.3-4.6,2.3
		c-0.2,0-0.4,0-0.7,0c-2.5-0.3-5-2.1-4.9-4.9c0-2,1-3.9,2.6-5.1c1.6-1.1,3.5-1.7,5.5-1.7c-0.7-0.6-1.2-1.1-1.8-1.5l-0.7-0.5
		c-1-0.8-7-4.8-8.5-4.8c-0.2,0-0.3,0.1-0.4,0.2l0,0.1c0,0.2-0.1,0.3-0.2,0.4c-0.1,0.1-0.3,0.2-0.5,0.2c-0.2,0-0.3-0.1-0.4-0.2
		c-0.5-0.4-0.7-1.1-0.6-1.8c0.4-1.1,1.2-1.9,2.3-2.3c0.8-0.3,1.7-0.5,2.5-0.5c3.9,0,8.7,2.8,10.3,3.7l0.2,0.1
		c4.8,2.8,9.1,6.6,12.4,11.1c3.4,4.5,5.9,9.5,7.5,14.9c0.5,1.5,0.3,3.1-0.7,4.4C-4144.5,66-4146.4,66.9-4148.3,66.9z"/>
</g>
<g id="facial-hair_Chin_00000010302111891161717830000011739235729363736464_" transform="translate(15.982 14.771)">
	<path id="_Ink_00000066495893532276025110000011980426904537549715_" d="M861.8,885.1c0,0-44.4,6.5-64.3-2.7
		c-19.8-9.2-39.1-18.1-57-30.3c-18.4-12.5-34-27.3-45.2-46.2c-10.4-17.6-19-36.4-27.7-54.9c-0.5-1.1-5.5-11.9-7.2-15.5
		c-2.7-5.6-10.6-3.8-10.6,4.9c0,8.7-0.4,74.7,14.8,100.6c13.7,23.4,37,39.8,60.1,54.1c25.6,15.8,59.6,32.9,90.1,37.4
		c27.6,4.1,59.1-7.4,79.1-26.3c20.9-19.8,26.8-46.6,37.6-72.3c2.4-5.7-6.1-9.2-8.6-3.6C918.2,841,861.8,885.1,861.8,885.1z"/>
</g>
<g id="facial-hair_Goatee_1_00000047752851615097231750000004907968475064807592_" transform="translate(415.982 14.771)">
	<path id="_Ink-6_00000122706024666179224280000015720101098382431152_" d="M440.2,917.2L440.2,917.2c-4.9,0-9.7-0.5-14.5-1.4
		c-6.7-0.7-13.3-1.9-19.7-3.7c-7.3-1.9-15.2-4.4-22.9-7.2c-6.8-2.4-13.5-5.2-20-8.4c-5.8-2.9-9.6-5.4-11-7.2
		c-0.4-0.5-0.7-1.1-0.6-1.8c0.9-4.1,2.4-7,4.5-8.9c2-1.6,4.5-2.5,7.1-2.4c4,0,8.5,1.4,12.9,2.8c2.3,0.7,4.7,1.5,6.9,2
		c10.2,1.7,20.5,2.6,30.9,2.5c13.6-3,11.1-24.3,10.2-32.3v0c-0.1-0.9-0.2-1.6-0.2-2.1c-0.2-2.7,0.1-5.5,0.9-8.1
		c0.8-2.9,2.3-5.6,4.2-7.9c2.8-3.2,6.7-5.1,11-5.3c0.3,0,0.5,0,0.8,0c2.7,0,5.3,0.8,7.5,2.4c2.1,1.5,3.8,3.5,5.1,5.7
		c2.3,3.8,3.8,8,4.5,12.4c0.2,1.1,0.3,2.4,0.5,3.9c0.4,4.9,1.2,9.8,2.5,14.6c0.5,2.1,1.5,4,2.7,5.8c1,1.4,2.6,2.3,4.4,2.3
		c0.5,0,1-0.1,1.5-0.2c3.8-0.9,10.1-5.2,16.2-9.4c4-2.7,7.7-5.3,10.7-6.9c1.7-0.5,3.6-0.8,5.4-0.9c2.7,0,4.8,0.8,6.1,2.5
		c1.7,2.1,2.2,5.5,1.5,9.7c-0.3,1.9-2.8,6.6-6.5,12.7c-2.6,4.4-5.6,8.7-8.8,12.6c-3.4,3.6-7.2,6.8-11.3,9.5
		c-4.1,2.7-8.5,5.1-13.2,6.9C460,915.3,450.1,917.2,440.2,917.2z M501.6,816.6L501.6,816.6c-4.6,0-8.1-1.7-12.1-3.7
		c-3.2-1.7-6.6-3.1-10.2-4.1c-4.3-1.1-9-2.1-13.5-3.1c-8.5-1.8-16.6-3.5-21-5.9c-8.7,4.9-18.4,6.4-27.8,7.9h0l-1.9,0.3
		c-5.1,1-10.2,2.3-15.1,4c-7,2.2-14.3,4.5-20.8,4.5c-0.6,0-1.3,0-1.9-0.1c-0.2,0.1-0.3,0.1-0.5,0.1c-1.5,0-4.6-1.4-6.7-4.4
		c-1.2-1.8-1.9-3.9-2.1-6.1c-0.1-3.1,0.4-6.2,1.6-9.1c1.4-3.5,3.4-6.6,5.9-9.3c2.7-2.9,5.8-5.4,9.2-7.5c7.4-4.5,15.5-7.7,23.9-9.6
		c8.1-2.1,16.4-3.2,24.7-3.4c5.6,0,10.2,0.8,13.6,2.3c3.8-1.2,7.8-1.8,11.8-1.7c6.9,0.1,13.8,1.2,20.4,3.3c6.8,2,13.1,5.2,18.8,9.3
		c2.4,1.9,4.5,4.1,6.2,6.6c1.8,2.5,3.2,5.2,4.3,8.1c1,2.7,1.8,5.5,2.1,8.3c0.3,2.4,0.2,4.8-0.3,7.2c-0.9,3.5-3.1,5.5-6.1,5.9
		C503.4,816.5,502.5,816.6,501.6,816.6z"/>
</g>
<g id="face_Cheeky_00000103971681049565402320000014442798296654850231_" transform="translate(5 1652)">
	<path id="_Ink-5_00000116234441852510053700000004626867058209358764_" d="M844.7-789.7c-0.7,0-1.3,0-2-0.1
		c-5.2-0.4-10.3-2.1-14.5-5.1c-4.3-3-7.6-7.2-9.5-12.1c-1.5-4-2.3-8.3-2.1-12.6c0.2-3.6,1.3-8.4,5.3-10.9c0.1,0,0.1-0.1,0.2-0.1
		c0.1,0,0.2,0,0.3,0.1c1.8,2.1,2.7,4.9,3.6,7.6c0.7,2.4,1.6,4.6,2.9,6.7c1.4,2.1,3.2,3.9,5.2,5.4c2,1.5,4.4,2.4,6.9,2.7
		c0.4,0,0.8,0.1,1.3,0.1c3.7,0,6.6-1.7,7.8-4.4c0.7-1.3,0.8-2.7,0.4-4.1l-0.3-1.1c-0.9-3.8-1.4-6.7,0.8-10.5
		c0.8-1.3,1.9-2.5,3.2-3.3c1.3-0.9,2.8-1.4,4.4-1.5c0.2,0,0.4,0,0.7,0c2.3,0.2,4.5,1,6.4,2.3c1.7,1.2,3,2.7,4,4.6
		c1.7,3.5,2.3,7.4,1.8,11.3c-0.3,4-1.5,7.8-3.4,11.3c-2.3,4.2-5.7,7.7-9.9,10C854.1-791,849.4-789.7,844.7-789.7z M865.3-873.3
		L865.3-873.3c-4.3-0.1-8.5-0.9-12.4-2.5c-5.2-2.1-10.2-4.9-14.6-8.3c-1-0.8-1.8-2-2-3.2c-0.2-1.2-0.1-2.5,0.3-3.6
		c0.5-1.4,1.3-2.6,2.5-3.6c1.1-0.9,2.4-1.5,3.8-1.5c1.1,0,2.1,0.3,3,0.9c0.3,0.2,0.7,0.5,1,0.8c2.9,2.3,6,4.5,9.2,6.4
		c4.1,2.4,7.7,3.5,11,3.5c1.6,0,3.2-0.3,4.6-0.9c1.6-0.7,3.1-1.8,4.3-3.1c2.3-3,3.3-6.9,2.5-10.7c-0.9-3.6-2.7-6.9-5.3-9.5
		c-2.4-2.5-5.1-4.7-8.1-6.5c-0.8-0.7-1.1-1.9-0.7-2.9c0.2-0.7,0.7-1.3,1.2-1.8c0.7-0.5,1.5-0.8,2.4-0.8c0.3,0,0.6,0,0.9,0.1
		c3.4,0.5,6.6,1.7,9.5,3.5c2.5,1.5,4.7,3.5,6.4,5.9c3.2,4.6,4.6,10.2,4.1,15.7c-0.2,2.8-0.9,5.6-2.1,8.2c-1.1,2.6-2.7,5-4.7,7.1
		C877.6-875.6,871.5-873.2,865.3-873.3z M749.8-926.2c-0.5,0-0.9-0.1-1.4-0.2c-0.9-0.2-1.6-0.8-1.9-1.6c-1.3-3.5-2.2-9.5,1.2-17.5
		c1.6-3.7,3.6-7.1,6.2-10.1c1.8-2.4,4.1-4.4,6.6-5.9c3.2-1.8,6.9-2.7,10.5-2.7c3.6,0,7.1,0.9,10.2,2.6c2.7,1.5,5,3.5,7,5.8
		c2,2.3,3.8,4.7,5.4,7.3c0.7,1,1.5,2.1,2.2,3.2c1.3,1.7,1.7,3.9,1.1,5.9c-0.7,2.1-2.3,3.7-4.4,4.5c-1,0.4-2.1,0.7-3.2,0.7
		c-1,0-2-0.2-2.9-0.6c-1.9-0.8-3.4-2.4-4.1-4.4c-0.8-2.1-1.9-4-3.2-5.8c-1.3-1.8-2.8-3.4-4.7-4.6c-2.5-1.7-5.7-2-8.4-0.6
		c-2.6,1.2-6.9,5-9.8,9.8c-2.3,3.4-3.4,7.4-3.2,11.4c0.1,0.8-0.2,1.6-0.8,2.2c-0.5,0.5-1.1,0.7-1.8,0.8
		C750.1-926.2,749.9-926.2,749.8-926.2z M894.7-940.3c-0.6,0-1.2-0.1-1.8-0.3c-1.1-0.3-2-0.9-2.8-1.7c-0.8-0.8-1.3-1.8-1.6-2.8
		c-0.5-2.7-2-5.1-4.1-6.8c-1.8-1.5-4.2-2.1-6.5-1.7c-2.7,0.6-5.2,2.1-7,4.2c-0.5,0.7-1,1.4-1.5,2.1l0,0.1c-0.8,1.4-1.7,2.7-2.9,3.8
		c-0.5,0.4-1.1,0.7-1.8,0.7c-0.3,0-0.5,0-0.8-0.1c-1.1-1-2-2.2-2.6-3.6c-0.4-1-0.6-2.1-0.5-3.1c0.2-2.3,1-4.4,2.3-6.2
		c1.7-2.4,3.8-4.5,6.3-6.1c2.1-1.5,4.4-2.6,6.9-3.3c1.3-0.3,2.6-0.4,3.9-0.4c4.1,0,8.2,1.3,11.5,3.8c4.6,3.2,7.9,8.1,9,13.7
		c0.3,1.4,0.1,2.8-0.4,4c-0.5,1.3-1.4,2.3-2.6,2.9C896.8-940.6,895.8-940.3,894.7-940.3z M731.7-967c-0.1,0-0.1,0-0.2,0
		c-0.4-0.1-0.8-0.2-1.1-0.5c-1.5-1.3-2.2-3.4-2.2-6.3c0.2-3.7,1.1-7.3,2.8-10.6c1.6-3.1,3.3-6.1,5.4-9c2-2.9,4.3-5.5,6.9-7.8
		c5.6-5.1,12.1-9.1,19.2-11.7c3.5-1.3,8.7-3,13.7-3c0.3,0,0.6,0,0.8,0c1.7,0.1,3.5,0.4,5.1,1c1.7,0.6,3.2,1.6,4.5,2.8
		c1.6,1.6,2.6,3.8,2.5,6.2c0,2.4-0.9,4.6-2.5,6.3c-1.5,1.5-3.4,2.5-5.4,3.1c-1.9,0.5-3.9,0.9-5.9,1c-1.9,0.2-3.8,0.5-5.7,0.8
		c-4.8,1-9.5,2.7-13.8,5c-4.4,2.4-9.4,5.3-12.9,9.2c-0.8,0.9-1.6,1.9-2.4,2.8l0,0c-0.7,0.9-1.4,1.7-2.1,2.5
		c-0.8,0.9-1.6,1.8-2.4,2.8c-0.3,0.4-0.5,0.8-0.7,1.2c-0.2,0.4-0.3,0.7-0.5,1c-0.3,0.6-0.6,1.1-0.9,1.6c-0.6,1-0.9,1.2-1.1,1.3
		C732.4-967.1,732.1-967,731.7-967L731.7-967z M902.9-969.2c-0.1,0-0.2,0-0.3,0c-0.4-0.1-0.7-0.2-1-0.5c-0.3-0.3-0.5-0.6-0.6-1
		c-0.9-4.5-2.7-8.8-5.2-12.7c-2.7-3.8-6.3-6.9-10.4-8.9c-4.7-2.2-9.5-3.8-14.6-4.9c-1.4-0.3-2.9-0.6-4.4-0.8l-0.1,0
		c-2.4-0.3-4.7-0.8-6.9-1.5c-2.2-0.7-4.2-2-5.7-3.8c-0.9-1.1-1.6-2.4-2-3.8c-0.4-1.3-0.5-2.8-0.2-4.1c0.4-2.7,2.1-5.1,4.6-6.3
		c2-1,4.2-1.5,6.4-1.5c5.4,0,11.2,2.5,15.5,4.3l0.3,0.1l0,0c0.4,0.2,0.8,0.3,1.1,0.5c6.7,2.6,12.7,6.7,17.7,11.8
		c4.4,4.7,7.5,10.5,9.1,16.8c1.3,5.8,0.7,11.1-1.8,15.3c-0.2,0.3-0.5,0.6-0.8,0.7C903.4-969.2,903.2-969.2,902.9-969.2L902.9-969.2z
		"/>
</g>
</svg>
</svg>
