<?xml version="1.0" encoding="UTF-8"?>
<svg id="Layer_1" data-name="Layer 1" xmlns="http://www.w3.org/2000/svg" viewBox="0 0 1366 1555">
  <defs>
    <style>
      .cls-1 {
        fill: none;
      }

      .cls-2 {
        fill: #fff;
      }
    </style>
  </defs>
  <svg y="-200">
    <g id="body_Tee_1" data-name="body Tee 1">
      <g id="_Skin-70" data-name=" Skin-70">
        <path id="_Skin-71" data-name=" Skin-71" class="cls-2" d="M1016.12,1412.84c-4.03-22.76-7.73-45.59-11.08-68.46-1.59-10.86-3.15-21.73-4.55-32.62-.98-7.63-2.47-16.35,2.72-22,7.3-7.95,13.94-14.76,14.83-26.15,.84-10.72-2.78-22.4-5.05-32.8-4.75-21.82-10.67-43.36-17.21-64.7-6.64-21.68-13.92-43.16-21.31-64.6-6.91-20.04-13.54-40.27-22.54-59.5-17.07-36.5-45.95-63.52-81.64-81.57-8.88-4.49-26.98-20.51-36.26-24.1-8.53-3.3-8.5,6.33-16.89,2.7-6.71-2.9-12.95-6.77-16.71-13.24-4.08-7.03-14.3-16.87-15.86-25.06-3.3-17.35,.28-32.12-12.11-45.18-10.99-11.6-25.77-19.54-41.06-23.81-33.64-9.38-78.49-2.82-98.79,28.43-9.69,14.93-13.08,32.97-26.16,45.15-11.42,10.64-8.86,17.91-23.66,23.39-.84,.31-23.55-4.56-24.38-4.25-16.18-3.47-31.65,6.24-46.49,11.86-22.11,8.43-43.24,19.25-63,32.27-39.92,26.15-74.11,60.12-102.3,98.55-28.42,38.75-50.47,82.18-66.17,127.58-3.81,11.03-7.23,22.18-10.26,33.46-1.69,6.31-3.5,12.85-1.44,19.3,1.68,5.28,5.43,9.21,9.83,12.39,5.96,4.3,17.92,7.09,17.69,15.73-.18,6.57-2.41,13.48-3.5,19.98-1.3,7.73-2.36,15.51-3.42,23.28-4.84,35.35-8.61,70.9-10.27,106.55-1.64,35.1-3,70.92-.57,106.01,.14,2.21,.81,4.35,1.96,6.23-.7,.34-.99,1.19-.64,1.89,.17,.34,.46,.6,.82,.72l2.72,.58c2,1.5,4.43,2.33,6.93,2.38,1.83,.06,3.66,.14,5.49,.23,19.3,4.03,38.6,7.85,58.15,10.73,23.77,3.51,47.61,6.41,71.52,8.69,49.13,4.78,97.88,3.19,147.08,.62,49.12-2.57,98.26-3.2,147.39-1.89,49.22,1.28,98.42,3.42,147.65,4.3,55,.98,109.91-.53,164.75-4.9,7.52-.6,12.17-6.58,10.69-14.05-8.89-44.74-18.95-89.19-26.91-134.12Z"/>
        <path id="_Skin-72" data-name=" Skin-72" class="cls-1" d="M1016.12,1412.84c-4.03-22.76-7.73-45.59-11.08-68.46-1.59-10.86-3.15-21.73-4.55-32.62-.98-7.63-2.47-16.35,2.72-22,7.3-7.95,13.94-14.76,14.83-26.15,.84-10.72-2.78-22.4-5.05-32.8-4.75-21.82-10.67-43.36-17.21-64.7-6.64-21.68-13.92-43.16-21.31-64.6-6.91-20.04-13.54-40.27-22.54-59.5-17.07-36.5-45.95-63.52-81.64-81.57-8.88-4.49-26.98-20.51-36.26-24.1-8.53-3.3-8.5,6.33-16.89,2.7-6.71-2.9-12.95-6.77-16.71-13.24-4.08-7.03-14.3-16.87-15.86-25.06-3.3-17.35,.28-32.12-12.11-45.18-10.99-11.6-25.77-19.54-41.06-23.81-33.64-9.38-78.49-2.82-98.79,28.43-9.69,14.93-13.08,32.97-26.16,45.15-11.42,10.64-8.86,17.91-23.66,23.39-.84,.31-23.55-4.56-24.38-4.25-16.18-3.47-31.65,6.24-46.49,11.86-22.11,8.43-43.24,19.25-63,32.27-39.92,26.15-74.11,60.12-102.3,98.55-28.42,38.75-50.47,82.18-66.17,127.58-3.81,11.03-7.23,22.18-10.26,33.46-1.69,6.31-3.5,12.85-1.44,19.3,1.68,5.28,5.43,9.21,9.83,12.39,5.96,4.3,17.92,7.09,17.69,15.73-.18,6.57-2.41,13.48-3.5,19.98-1.3,7.73-2.36,15.51-3.42,23.28-4.84,35.35-8.61,70.9-10.27,106.55-1.64,35.1-3,70.92-.57,106.01,.14,2.21,.81,4.35,1.96,6.23-.7,.34-.99,1.19-.64,1.89,.17,.34,.46,.6,.82,.72l2.72,.58c2,1.5,4.43,2.33,6.93,2.38,1.83,.06,3.66,.14,5.49,.23,19.3,4.03,38.6,7.85,58.15,10.73,23.77,3.51,47.61,6.41,71.52,8.69,49.13,4.78,97.88,3.19,147.08,.62,49.12-2.57,98.26-3.2,147.39-1.89,49.22,1.28,98.42,3.42,147.65,4.3,55,.98,109.91-.53,164.75-4.9,7.52-.6,12.17-6.58,10.69-14.05-8.89-44.74-18.95-89.19-26.91-134.12Z"/>
      </g>
      <path id="_Top-27" data-name=" Top-27" class="cls-2" d="M511.92,936.34l1.07-.41c14.52-5.67,29.63-14.82,45.42-11.44,.56-.21,10.83,1.89,17.87,3.21l-6.68,6.97-11.79,2.27c40.67,67.13,88.78,100.69,144.32,100.69,55.54,0,97.68-33.56,126.42-100.69l3.92-1.09c.53,.12,1.05,.29,1.55,.48,9.27,3.59,27.38,19.61,36.26,24.1,35.69,18.05,64.57,45.07,81.64,81.57,8.7,18.59,15.19,38.11,21.85,57.49l.69,2c7.39,21.44,14.67,42.92,21.31,64.6,6.25,20.41,11.94,41.02,16.58,61.86l.63,2.84c2.27,10.4,5.89,22.09,5.05,32.8-.27,3.72-1.26,7.35-2.91,10.69l-80.45,28.95,38.33,261.39c-35.11,1.51-70.25,1.93-105.42,1.27-49.23-.88-98.43-3.02-147.65-4.3-47.68-1.24-95.33-.68-142.93,1.66l-12.1,.62c-46.61,2.33-92.86,3.52-139.45-1.01l-3.18-.31h0v-38.23l16.37-212.91-82.94-15.61-81.42-39.55c-2.53-2.43-4.42-5.44-5.53-8.77-1.91-5.98-.5-12.03,1.06-17.9l.38-1.4c3.02-11.27,6.44-22.42,10.26-33.46,15.7-45.39,37.75-88.83,66.17-127.58,28.19-38.43,62.38-72.4,102.3-98.55,19.76-13.02,40.89-23.84,63-32.28Z"/>
      <path id="_Ink-24" data-name=" Ink-24" d="M422.57,1565.78c-.34,0-.68-.02-1.02-.06-2.18-.27-4.19-1.34-5.63-3-1.46-1.65-2.28-3.77-2.3-5.98-.04-8.36,.7-16.91,1.41-25.18h0c.3-3.49,.61-7.1,.86-10.62,.69-9.85,1.46-20.28,2.5-33.82,2.01-26.11,4.26-52.64,6.43-78.29h0c1.25-14.75,2.54-29.99,3.77-45.03,1.05-12.79,2.26-26.68,3.82-43.72-11.2-.39-22.35-1.65-33.35-3.76-10.94-2.12-21.74-4.9-32.33-8.33-10.04-3.22-20.32-7.05-31.41-11.72-9.37-3.95-19.37-8.51-30.58-13.95-.56,12.6-1.88,25.37-3.16,37.73l-.2,1.91c-4.24,40.97-7.4,77.1-9.67,110.46-1.1,16.16-2.02,33.42-3,55.96-.39,9.14-.72,18.4-.96,27.52-.08,3.1-.16,6.19-.22,9.18l-.14,7.01c-.11,4.35-.52,8.52-4.3,11.79-1.77,1.59-4.06,2.49-6.44,2.53-2.33-.02-4.56-.92-6.24-2.53-2.01-1.85-3.34-4.31-3.78-7.01-.39-2.67-.48-5.37-.28-8.06h0c.03-.69,.05-1.4,.07-2.09,.12-5.16,.27-10.45,.45-15.73,.34-10.41,.79-20.99,1.33-31.45,1.75-34.08,5.21-69.88,10.58-109.47l1.92-14.03c1.73-12.57,3.63-25.96,6.11-39.3,2.34-13.04,5.49-25.93,9.44-38.58-3.03-1.5-6.17-3.08-9.35-4.69-1.63-.82-3.3-1.65-4.91-2.44h0c-3.87-1.9-7.86-3.87-11.63-6.04-5.09-2.93-8.06-6.43-9.09-10.73-1.14-4.75,.18-9.79,1.46-14.66v-.02c.21-.76,.39-1.48,.58-2.21l.12-.47c1.26-5.17,2.68-10.6,4.22-16.15,6.07-21.73,13.52-43.06,22.29-63.85,17.45-41.75,40.24-81.06,67.8-116.94,12.42-16.17,26.05-31.38,40.77-45.5,7.5-7.14,15.25-13.89,23.05-20.06,7.99-6.33,16.3-12.24,24.9-17.72,8.4-5.35,17.11-10.21,26.08-14.54,8.97-4.33,18.22-8.06,27.68-11.17,9.03-3.08,18.35-5.25,27.81-6.47,4.45-.5,9.24-.85,15.06-1.1,.56-.02,1.15-.04,1.75-.04,3.36,.07,6.72,.32,10.05,.75h.04c1.15,.13,2.35,.26,3.51,.38,.23,.03,.4,.22,.42,.45,.02,.19-.11,.35-.3,.38-9.01,1.88-17.9,4.44-26.98,7.13l-3.82,1.13c-9.45,2.8-19.58,5.95-29.55,10.01-19.43,8.07-37.82,18.42-54.79,30.85-31.11,22.49-59.54,51.53-84.51,86.32-11.83,16.54-22.6,33.81-32.25,51.72-9.56,17.74-18.13,36-25.65,54.7-8.1,20.11-14.96,40.71-20.53,61.67-1.31,4.93-2.6,10.09-3.83,15.35-.08,.33-.21,.77-.37,1.28-.53,1.76-1.34,4.41-.68,5.62,.55,1,2.27,1.72,3.66,2.31,.51,.21,.99,.41,1.35,.6l4.56,2.36c8.88,4.58,23.68,12.1,25.2,12.86l2.32,1.14c22.28,10.92,40.95,18.64,58.76,24.28,10.08,3.22,20.34,5.82,30.74,7.77,10.42,1.95,20.98,3.08,31.58,3.38l.33-3.64c1.82-19.33,4.28-39.97,9.85-59.91,.08-.37,.4-.63,.77-.64,.5,.01,.91,.38,.98,.88,1.44,11.53,2.12,23.15,2.04,34.77,0,11.2-.46,22.41-1.03,34.85-1.29,28.37-2.9,57.19-4.46,85.06v.02c-.7,12.53-1.43,25.5-2.11,38.24-.78,14.4-1.73,29.03-2.65,43.18v.02c-.39,6.03-.8,12.27-1.19,18.46-.34,5.33-.62,10.79-.89,16.08v.02c-.78,15.18-1.59,30.88-3.78,46.01-.34,2.02-1.54,3.79-3.28,4.87-1.7,1.12-3.69,1.72-5.73,1.74Zm613.16-16.46c-.88-.01-1.74-.21-2.53-.58l-.63-.29c-3.27-1.53-6.07-3.11-7.31-7.05-.49-1.7-.85-3.44-1.1-5.19-.14-.84-.28-1.7-.44-2.52-.97-4.85-1.89-9.73-2.74-14.5-1.72-9.67-3.42-19.46-5.05-29.1l-1.53-9.09c-5.06-30.1-10.22-62.18-12.8-94.51-1.17-14.66-2.43-29.42-3.51-42.11l-.9-10.53c-.18-2.1-.37-4.24-.55-6.31v-.04c-.99-11.2-2.01-22.77-2.17-34.14l-4.53,1.61-22.11,7.82c-1.37,.48-2.81,1.08-4.34,1.72-3.99,1.66-8.5,3.55-12.56,3.55-.49,0-.98-.03-1.47-.09-2.53-.17-4.92-1.2-6.79-2.91,2.11,29.79,4.96,58.71,8.47,85.95,3.71,28.85,7.45,54.27,11.42,77.71,1.77,10.46,4.15,24.26,6.81,38.29,1.19,6.28,2.45,12.7,3.74,19.08,.2,.99,.41,1.99,.62,2.97,.46,2.15,.94,4.37,1.28,6.57,.57,3.62-.39,5.85-2.48,8.92-1.13,1.71-3.01,2.76-5.06,2.82-.96,0-1.89-.27-2.7-.78-1.59-.92-3.02-2.09-4.23-3.47-1.13-1.43-1.92-3.09-2.32-4.87-.67-2.6-1.16-5.31-1.64-7.93v-.03c-.21-1.15-.43-2.33-.66-3.48-1.36-6.91-2.7-13.98-3.99-21.02-2.78-15.16-5.26-30-7.38-44.13-3.83-25.53-7.06-51.85-9.61-78.24-2.48-25.68-4.37-52.13-5.63-78.63-1.17-24.62-1.63-50.05-1.4-77.74,.12-14.45,.61-27.49,1.49-39.87,.78-11.02,2.29-22.07,3.74-32.75v-.1c.33-2.3,.65-4.67,.96-7.01,.02-.21,.19-.36,.4-.36,.19,0,.35,.15,.36,.35,0,0,0,0,0,.01,.35,6.17,.78,12.44,1.2,18.51h0c.6,8.59,1.21,17.46,1.59,26.21,.38,8.71,.63,17.58,.87,26.16h0c.15,5.45,.31,11.08,.5,16.62,.65,19.13,1.57,38.05,2.71,56.24,1.82-2.04,4.42-3.22,7.16-3.26,.47,0,.94,.04,1.4,.11,3.14-.77,6.21-1.79,9.18-3.06,1.72-.67,3.34-1.31,4.92-1.84l16.73-5.59c8.33-2.78,17.3-5.76,26.42-8.69-6.83-22.98-12.36-47.92-17.92-80.84l-2.06-12.3c-1.95-11.6-4.11-24.02-6.69-36.22-2.8-13.3-5.8-24.96-9.17-35.64-3.85-12.25-8.71-24.16-14.52-35.61-5.83-11.44-12.61-22.37-20.27-32.68-7.65-10.21-15.97-19.89-24.91-29-8.01-8.25-16.84-16.61-27.78-26.29-9.49-8.4-19.53-16.46-29.25-24.25-6.95-5.58-14.14-11.35-21.08-17.2,.18,1.02,.2,2.05,.06,3.08-.89,6.45-2.38,12.81-4.44,18.99-2.07,6.18-4.66,12.17-7.74,17.91-3.09,5.75-6.63,11.24-10.6,16.42-14.28,18.68-33.57,32.91-55.62,41.05-7.79,2.9-15.84,5.07-24.03,6.5-8.23,1.43-16.56,2.15-24.91,2.14-8.54,0-17.07-.73-25.49-2.17-8.48-1.45-16.82-3.6-24.94-6.43-11.8-4.14-23.11-9.58-33.71-16.22-10.71-6.68-20.67-14.52-29.68-23.36-9-8.8-16.93-18.62-23.65-29.26-6.68-10.57-11.94-21.98-15.63-33.94-.07-.19-.04-.41,.08-.58,.14-.18,.36-.28,.59-.27,.25,0,.48,.11,.62,.31,.7,.96,1.4,1.92,2.13,2.9l.31,.43c-.06-.5,.24-.97,.72-1.13,19.46-7.51,35.12-17.3,46.53-29.1,6.26-6.44,11.62-13.7,15.94-21.58,2.08-3.76,3.88-7.67,5.37-11.69l.37-1.04c.2-.57,.41-1.16,.59-1.68,1.52-4.4,3.1-8.95,6.41-12.51,1.54-1.68,3.72-2.62,6-2.59,3.18,.05,6.16,1.58,8.06,4.14,1.55,2.1,1.96,4.82,1.09,7.28-3.31,10.05-7.85,19.64-13.52,28.57-2.84,4.41-6.02,8.59-9.52,12.5-3.55,3.96-7.43,7.6-11.61,10.88-7.15,5.69-15.06,10.34-23.52,13.81-8.39,3.44-17.36,5.23-26.42,5.29-1.83,0-3.68-.08-5.5-.23-.14-.01-.29-.05-.42-.11l1.77,2.39c5.72,7.74,13.34,17.86,21.63,27.56,7.52,8.92,15.69,17.28,24.45,24.99,7,6.09,14.48,11.61,22.37,16.51,7.86,4.88,16.11,9.09,24.68,12.59,8.51,3.47,17.33,6.16,26.34,8.02,8.99,1.86,18.15,2.8,27.34,2.81,10.53,0,21.02-1.29,31.23-3.87,9.33-2.38,18.31-5.95,26.73-10.62,8.45-4.66,16.29-10.37,23.32-16.98,7.01-6.57,13.12-14.04,18.16-22.23,5.04-8.18,8.84-17.07,11.25-26.37-.95,.42-1.98,.64-3.02,.64-.6,0-1.21-.07-1.79-.2-7.67-1.67-15.25-9.68-20.28-15.57-5.33-6.16-9.6-13.16-12.64-20.72-2.97-7.32-4.61-15.11-4.86-23-.12-3.95,.24-7.9,1.05-11.77,.8-3.82,2.17-7.49,4.07-10.9,.26-.53,.8-.87,1.4-.88,.99,.04,1.8,.8,1.92,1.78l.29,2.55c1.47,12.66,3.29,24.99,9.33,36.66,2.88,5.77,6.49,11.14,10.75,15.98,2.29,2.57,4.79,4.95,7.47,7.11,1.04,.83,2.18,1.57,3.29,2.3,1.74,1.05,3.36,2.28,4.84,3.67l.43,.46v-.08c.18-2.06,1.1-3.99,2.61-5.4,1.3-1.13,2.96-1.74,4.68-1.73,.1,0,.2,0,.31,0,3.04,.26,6.02,1.05,8.8,2.31l.14,.07c21.2,10.17,42.49,23.92,65.1,42.03,20.76,16.51,39.02,35.95,54.2,57.7,15.14,21.77,26.69,45.83,34.21,71.26,6.92,23.49,11.16,48.02,15.27,71.74l.05,.27c.31,1.8,.62,3.6,.94,5.4l2.78,15.92c1.92,10.92,4.22,23.61,7.23,36,2.77,11.87,6.52,23.49,11.21,34.74,1.26,2.59,1.39,5.59,.35,8.28-1.14,2.46-3.25,4.33-5.82,5.17-6.56,2.47-13.77,5.1-22.68,8.29,2.68,11.51,4.64,23.45,6.52,35v.04c.73,4.43,1.48,9.02,2.26,13.48,3.34,19.19,7.16,38.64,10.85,57.44v.03c2.88,14.59,5.84,29.68,8.56,44.56,1.6,8.76,3.15,17.68,4.65,26.31,1.48,8.52,3.01,17.33,4.59,25.99,.94,5.14,1.94,10.49,2.83,15.21l.08,.43c.58,3.11,1.19,6.34,1.78,9.5,.55,2.98,1.08,6.01,1.59,8.94,.25,1.43,.53,3.05,.81,4.64l.14,.75c.04,.18,.07,.37,.11,.55,.43,2.21,.88,4.49,.27,6.7-.67,2.44-2.45,4.24-4.17,5.99l-.02,.02c-.2,.2-.4,.4-.59,.6-.84,.86-2,1.34-3.2,1.31Z"/>
    </g>
    <g id="head_Shaved_2" data-name="head Shaved 2">
      <g id="_Skin-118" data-name=" Skin-118">
        <path id="_Skin-119" data-name=" Skin-119" class="cls-2" d="M876.95,541.57c-7.08-25.5-6.07-28.25-16.61-52.61-34.98-70.75-268.74-47.06-292.6,23.56-12.94,38.31-9.9,92.27-13.27,125.5-1.03,17.61-2.06,35.23-3.09,52.84-.36,6.08-.73,12.17-1.1,18.25-.73,11.84-1.43,23.68-2.1,35.52-4.4,36.49,13.94,40.2,45.39,39.12,8.31,20.06,21.78,36.81,38.42,50.43-4.01,10.92,10.54,16.58,18.4,20.94,42.73,23.86,95.22,38.42,142.56,25,13.91-3.94,71.34-17.6,89-59.86,8.67-20.76,26.3-128.24,3.05-224.93l-8.05-53.77Z"/>
        <path id="_Skin-120" data-name=" Skin-120" class="cls-1" d="M876.95,541.57c-7.08-25.5-6.07-28.25-16.61-52.61-34.98-70.75-268.74-47.06-292.6,23.56-12.94,38.31-9.9,92.27-13.27,125.5-1.03,17.61-2.06,35.23-3.09,52.84-.36,6.08-.73,12.17-1.1,18.25-.73,11.84-1.43,23.68-2.1,35.52-4.4,36.49,13.94,40.2,45.39,39.12,8.31,20.06,21.78,36.81,38.42,50.43-4.01,10.92,10.54,16.58,18.4,20.94,42.73,23.86,95.22,38.42,142.56,25,13.91-3.94,71.34-17.6,89-59.86,8.67-20.76,26.3-128.24,3.05-224.93l-8.05-53.77Z"/>
      </g>
      <path id="_Ink-40" data-name=" Ink-40" d="M767.44,892.02c-11.4,0-22.76-1.19-33.91-3.53-6.36-1.34-12.6-3.23-18.63-5.66-6.22-2.48-11.46-6.11-17.43-10.79-1.3-1.1-1.82-2.86-1.32-4.49,.21-.89,.64-1.72,1.24-2.41,.58-.68,1.38-1.15,2.25-1.33,.82-.17,1.64-.34,2.44-.5,1.57-.33,3.2-.67,4.81-.96,.18-.03,.36-.05,.54-.05,1.16,.04,2.25,.59,2.97,1.5,.58,.66,.82,1.54,.67,2.4l4.68,1.21c1.28,.33,2.98,.77,4.68,1.23l2.33,.64c6.65,1.88,13.4,3.39,20.21,4.52,7.49,1.2,15.06,1.8,22.64,1.78,6.52,0,13.04-.42,19.51-1.23,11.88-1.44,23.53-4.35,34.69-8.65,11.18-4.27,21.58-10.34,30.79-17.99,8.93-7.44,16.32-16.56,21.74-26.84,3.31-6.55,5.74-13.5,7.24-20.68,1.5-7.18,2.64-14.43,3.4-21.73,2.4-20.99,3.44-42.11,3.1-63.23-.22-19.09-1.37-39.78-3.52-63.23-2.02-22-4.83-44.07-7.32-62.75-.4-2.99-.82-6.04-1.22-8.98v-.06s0-.01,0-.01c-1.03-7.57-2.1-15.4-3.01-23.11-2.87-.76-5.57-2.06-7.95-3.85-1.44-1.01-2.5-2.47-3.02-4.15-2.59-.49-4.9-1.95-6.47-4.07l-.22-.3c-4.58-6.62-12.65-10.29-19.18-12.75-3.74-1.41-7.59-2.68-11.32-3.9l-1.72-.57c-1.25-.42-2.55-.9-3.81-1.36-3.31-1.38-6.76-2.37-10.3-2.96-.91-.11-1.83-.16-2.75-.15-1.82,0-3.68,.17-5.48,.34h-.02c-1.81,.17-3.68,.34-5.52,.34-.85,0-1.7-.04-2.55-.13-4.86-.38-9.43-2.46-12.9-5.88-1.25-1.25-2.33-2.66-3.19-4.21-4.9,.99-9.9,1.46-14.9,1.4-5.03,0-10.21-.36-15.21-.7h-.08c-5.04-.35-10.25-.72-15.41-.72-2.07,0-3.98,.06-5.84,.17-5.32,.34-10.42,2.08-15.36,3.77-5.48,1.87-11.15,3.81-17.1,3.81h-.46c-3.07-.02-6.04-1.11-8.39-3.08-9.43,1.8-18.9,5.01-28.05,8.11h-.04c-1.32,.46-2.68,.92-4,1.36-5.83,1.96-11.62,4.34-17.22,6.64-4.09,1.68-8.31,3.42-12.52,4.98t-.01,.02c-.48,1.65-1.5,3.08-2.9,4.07-1.37,.92-2.99,1.4-4.64,1.38-.6,0-1.19-.06-1.78-.16-7.2-1.28-13.9-4.35-20.37-7.32-5.67-2.59-11.53-5.28-17.67-6.73-.69,2.52-1.4,5.06-2.09,7.53-2.91,10.45-5.93,21.25-8.08,32.13-2.66,13.59-4.61,27.31-5.83,41.1-1.22,13.42-1.86,27.44-1.89,41.68,0,6.09,.12,12.65,.41,21.26,.04,1.24,.12,2.54,.21,3.9,.31,5.03,.67,10.72-1.02,15.23l-.19,.48h-.01c-.19,.55-.7,.93-1.28,.94-.32,0-.61-.14-.82-.38-3.58-4.16-4.73-10.45-5.74-16.01-.13-.69-.25-1.35-.37-2.01-1.18-6.2-2.09-12.86-2.93-21.58-.7-7.2-1.13-14.52-1.29-21.74-.16-7.18-.05-14.51,.32-21.79,.7-14.63,2.31-29.2,4.8-43.63,2.46-14.45,6.16-28.65,11.07-42.46-.1,0-.18,.01-.27,.01-.87,0-2.12-.42-3.14-2.43-.64-1.34-1.04-2.78-1.16-4.26-.39-5.09,.41-10.43,1.26-15.46l.9-5.24c.73-4.94,1.88-9.82,3.43-14.57,4.07-11.53,9.82-22.39,17.09-32.23,7.36-9.99,16.14-18.84,26.07-26.28,9.93-7.44,20.86-13.43,32.48-17.79,.71-.28,1.47-.42,2.24-.42,.62,0,1.24,.1,1.82,.3,21.3-11.38,43.84-20.26,67.17-26.49,6.4-1.72,13.98-3.67,21.71-5.05,1.76-.32,3.55-.49,5.34-.5,5.83,0,10.02,2.11,12.45,6.28,.77,1.3,1.31,2.72,1.59,4.2,10.58-2.35,21.39-3.53,32.23-3.51,7.71,0,15.41,.57,23.04,1.67,2.25,.36,4.17,1.84,5.08,3.93,1.31,2.65,1.28,5.76-.07,8.38-.23,.4-.49,.84-.77,1.26,5.84,.48,11.62,1.49,17.27,3.01,2.5,.8,4.56,2.6,5.69,4.96,.95,1.77,1.09,3.86,.37,5.73-.15,.36-.32,.72-.47,1.08h0s-.02,.06-.02,.06c4.5,.75,8.9,2.03,13.1,3.8,4.27,1.81,8.3,4.14,11.99,6.94,.94,.71,1.75,1.56,2.42,2.53,3-.33,6.01-.5,9.02-.5,13.98,.03,27.74,3.53,40.04,10.18,2.27,1.34,3.88,3.57,4.43,6.16,.62,2.29,.24,4.74-1.05,6.74-.92,1.31-1.84,2.5-2.82,3.65,3.25,1.17,6.3,2.8,9.08,4.85,2.84,2.13,5.25,4.78,7.1,7.81,2.12,3.49,3.5,7.37,4.07,11.41,.59,3.99,.31,8.06-.81,11.93,5.04,5.19,7.12,12.59,5.53,19.65-1.29,6.04-5.38,11.11-11.01,13.65,1.06,3.37,.2,7.05-2.24,9.6-3.71,3.86-8.2,6.88-13.16,8.88-.02,1.33-.35,2.63-.97,3.8-2.3,4.27-5.7,7.84-9.85,10.34-4.18,2.59-8.9,4.18-13.8,4.62,3.3,13.85,6.03,28.01,8.54,41.33,2.36,12.49,4.41,24.92,6.11,36.93,1.77,12.57,3.21,25.08,4.27,37.18l.27,3.07c1.92,21.28,2.74,42.64,2.45,64-.22,11.13-.85,21.92-1.87,32.06-1.05,10.58-2.64,21.1-4.76,31.52-1.35,6.52-3.39,12.89-6.08,18.98-2.66,6.02-5.91,11.76-9.71,17.14-3.8,5.39-8.09,10.41-12.82,15.02-4.76,4.64-9.91,8.86-15.4,12.61-11.27,7.62-23.63,13.49-36.67,17.39-13.02,3.94-26.48,6.22-40.06,6.79-2.36,.11-4.77,.16-7.15,.16Zm-120.38-36.61c-2.83,0-6.06-1.06-9.87-3.24-3-1.79-5.89-3.78-8.63-5.95l-.82-.62c-7.12-5.19-13.62-11.17-19.4-17.82-5.86-6.78-10.75-14.34-14.53-22.47-2.08-4.51-3.54-9.28-4.32-14.19-4.85,2.05-10.07,3.1-15.33,3.07-8.2,.04-16.23-2.36-23.06-6.9-6.65-4.53-11.6-11.18-14.7-19.74-2.7-7.97-4.01-16.33-3.88-24.74v-.98c.02-4.15,.34-8.29,.95-12.39,.62-4.18,1.64-8.3,3.07-12.28,3.2-8.74,8.19-15.29,14.84-19.46,2.42-1.47,5.04-2.57,7.78-3.29,3-.82,6.09-1.23,9.2-1.25,3.69-.08,7.35,.69,10.69,2.24,3.25,1.54,5.82,4.22,7.2,7.55,.08,.17,.06,.37-.05,.53-.15,.21-.39,.34-.65,.35-.05,0-.1,0-.15-.02l-1.31-.33c-2.57-.72-5.22-1.12-7.88-1.2-2.3,0-4.57,.44-6.7,1.31-4.68,1.76-8.81,4.72-11.98,8.59-1.74,2.29-3.17,4.82-4.22,7.5-1.05,2.68-1.82,5.47-2.3,8.31-.9,5.72-1.13,11.52-.69,17.3l.03,.54c.2,5.21,1.22,10.36,3.01,15.26,.92,2.4,2.2,4.65,3.8,6.66,1.63,2.02,3.67,3.67,5.98,4.85,4.14,2.09,8.69,2.27,12.62,2.27,.69,0,1.38,0,2.06-.01h.81s.51,0,.51,0c5.93-.08,11.83,.75,17.5,2.48,1.68,.56,2.94,1.96,3.33,3.68,.36,1.51-.12,3.1-1.26,4.15-.88,.83-1.82,1.6-2.8,2.31,3.52,3.75,6.17,6.71,8.6,9.61,4.75,5.67,9.8,11.14,15.01,16.28,5.04,5.07,10.48,9.74,16.26,13.96,2.23,1.59,4.67,3.03,7.02,4.42,4.08,2.42,8.31,4.92,11.65,8.29,1.58,1.54,2.44,3.67,2.36,5.88-.13,2.17-.96,4.25-2.36,5.91-1.76,2.3-4.5,3.63-7.39,3.59Zm-48.22-107.86c-3.01-.06-5.92-1.06-8.33-2.86-1.77-1.39-3.38-2.95-4.83-4.67-1.38-1.64-2.92-3.14-4.59-4.49-3.46-2.47-7.63-3.76-11.88-3.68-4.2-.03-8.34,1.11-11.93,3.29-.19,.13-.45,.08-.58-.11,0-.01-.01-.02-.02-.03-.1-.15-.11-.34-.04-.5,1.01-2.08,2.31-4.02,3.86-5.73,1.5-1.66,3.24-3.09,5.15-4.25,3.95-2.36,8.47-3.58,13.07-3.54h.55c4.7,.1,9.36,1.6,14.68,4.7l.47,.28c1.04,.62,2.18,1.2,3.38,1.82h0c1.95,.94,3.83,2.03,5.62,3.24,1.74,1.16,3.15,2.74,4.1,4.59,1.54,3.26,1.11,6.56-1.14,8.83-1.98,2.02-4.71,3.15-7.54,3.11Z"/>
    </g>
    <g id="facial-hair_Full_2" data-name="facial-hair Full 2">
      <path id="_Ink-3" data-name=" Ink-3" d="M791.06,920.52h0c-7.21-.04-14.39-.7-21.49-1.98-15.22-2.81-30.02-7.51-44.07-14.01-16.03-4.92-31.68-10.97-46.85-18.12-7.79-3.64-16.04-7.57-23.82-12.1-7.77-4.36-14.95-9.7-21.37-15.88-2.96-2.95-5.63-6.18-7.98-9.65-2.33-3.45-4.39-7.07-6.16-10.84-3.49-7.59-6.21-15.51-8.12-23.65-.6-2.43-1.18-4.93-1.71-7.43-.55-1.4-.98-2.85-1.29-4.33-1.08-5.01-2.08-10.12-2.97-15.2-1.76-9.98-3.19-20.18-4.26-30.32s-1.76-20.52-2.06-30.9c-.05-1.76-.15-3.58-.26-5.5-.21-3.61-.42-7.35-.28-11.01,.05-3.54,.66-7.06,1.83-10.41,1.76-4.67,5.73-7.75,10.12-7.85h.28c2.54,.05,4.99,1,6.89,2.69,2.82,2.38,10.12,17.37,17.86,33.23,7.27,14.91,14.79,30.33,18.98,36.05,8.81,12.08,18.81,23.25,29.86,33.32,.18,.11,.37,.22,.56,.35,15.06-3.63,28.76-11.53,39.43-22.76,3.18-3.36,6.22-6.96,9.15-10.43,5.98-7.08,12.15-14.39,19.82-20.05,2.79-2.07,5.81-3.82,9-5.2,3.19-1.38,6.56-2.33,10-2.81,1.86-.25,3.73-.36,5.61-.35,3.27,0,6.59,.31,9.8,.61h.01c3.21,.3,6.53,.61,9.81,.61,1.07,0,2.07-.03,3.05-.1,1.61-.1,3.21-.25,4.77-.39,2.98-.27,5.79-.52,8.64-.52,4.22-.11,8.42,.71,12.29,2.4,6.99,3.14,12.4,8.74,17.63,14.16l.45,.47c3.71,3.86,7.74,7.39,12.06,10.56,4.24,3.09,8.77,5.77,13.53,7.99h.12c1.35-.04,2.64,.54,3.5,1.58,.51,.21,1.03,.41,1.59,.63,1.45-1.73,4.98-4.26,7.56-6.1,1.05-.75,1.96-1.41,2.42-1.79,1.03-.83,2.32-1.27,3.64-1.26,1.42-.04,2.8,.51,3.81,1.51,.81,.89,1.21,2.08,1.09,3.28l-1.93,30c-.19,2.94-2.57,21.68-3.41,28.17-.68,5.25-1.58,10.31-2.66,15.05-1.12,4.93-2.53,9.79-4.24,14.55-1.7,4.74-3.74,9.35-6.11,13.79-2.4,4.48-5.17,8.74-8.28,12.76-6.8,8.69-15.41,15.8-25.23,20.84-6.76,4.93-14.19,8.87-22.06,11.7-4.57,1.63-9.28,2.82-14.08,3.57-4.78,.73-9.62,1.09-14.46,1.08Zm19.6-135.03c-8.69,0-18.3,1.55-29.37,4.73-8.33,2.39-16.58,5.48-24.56,8.47-8.57,3.21-17.43,6.52-26.4,8.98-6,1.71-12.1,3.03-18.26,3.96,.96,1.13,1.93,2.39,2.96,3.84,8.84,5.04,18.04,9.4,27.53,13.06,1.36,.51,2.69,1,4.04,1.47,2.06-.57,4.2-1.28,6.54-2.15,4.06-1.92,8.06-4.33,11.92-6.67,4.68-3,9.6-5.63,14.69-7.86,3.95-1.59,8.05-2.78,12.23-3.57,4.16-.78,8.39-1.17,12.62-1.17,11.28,.02,22.4,2.67,32.49,7.73,.71,.26,1.41,.53,2.12,.79,2.69,1.01,5.47,2.05,8.24,2.96,2.23,.75,4.5,1.38,6.8,1.9,4.96-5.56,8.9-11.96,11.62-18.9-4.51-.41-8.9-1.61-13-3.53-3.23-1.39-6.38-3.11-9.42-4.76-3.99-2.31-8.16-4.3-12.46-5.97-3.27-1.16-6.65-2.01-10.08-2.54-3.4-.53-6.83-.79-10.27-.78h0Z"/>
    </g>
    <g id="face_Calm" data-name="face Calm">
      <path id="_Ink-4" data-name=" Ink-4" d="M791.66,801.59c-7.5,.04-14.84-2.13-21.11-6.24-3.26-2.08-6.2-4.62-8.73-7.54-2.22-2.53-4.01-5.4-5.32-8.5-1.29-3.05-1.94-6.34-1.9-9.66,0-.7,.26-1.37,.71-1.9,.46-.53,1.08-.9,1.77-1.06,.26-.06,.52-.09,.78-.09,.44,0,.88,.09,1.29,.27,.6,.27,1.08,.74,1.36,1.34,.63,.83,1.47,1.92,2.31,2.98,2.8,3.64,6.01,6.93,9.58,9.81,3.5,2.74,7.58,4.66,11.92,5.61,1.8,.4,3.64,.6,5.48,.6,3.16,0,6.29-.58,9.25-1.67,5.02-1.88,9.48-5.01,12.95-9.1,1.29-1.62,3.23-2.58,5.29-2.62h.05c2.13,.06,4.15,.96,5.63,2.49,1.56,1.52,2.49,3.56,2.63,5.73,.07,2.1-.71,4.13-2.18,5.63-2.71,2.9-5.79,5.41-9.18,7.48-3.38,2.07-7.01,3.67-10.81,4.77-3.82,1.11-7.77,1.68-11.75,1.69Zm5.52-75.62h0c-5.42-.07-10.78-.92-15.82-2.51-6.65-2.1-12.9-4.89-18.6-8.31-1.32-.81-2.24-1.96-2.6-3.25-.31-1.22-.18-2.48,.37-3.65,.62-1.38,1.7-2.61,3.13-3.56,1.35-.94,3.08-1.47,4.88-1.5,1.34,0,2.66,.33,3.78,.91,.39,.24,.8,.49,1.23,.75l.04,.03c3.69,2.34,7.58,4.47,11.65,6.37,5.26,2.36,9.83,3.5,13.96,3.5,2.02,.01,4.03-.3,5.9-.91,2.08-.71,3.95-1.75,5.49-3.06,2.97-3.03,4.14-6.92,3.2-10.67-1.12-3.59-3.47-6.86-6.8-9.46-3.04-2.53-6.51-4.73-10.29-6.54-1.06-.71-1.41-1.88-.86-2.89,.29-.71,.84-1.34,1.59-1.8,.87-.53,1.94-.8,3.04-.79,.37,0,.73,.03,1.09,.08,4.28,.54,8.4,1.71,12.13,3.45,3.2,1.52,5.98,3.53,8.16,5.92,4.05,4.59,5.9,10.16,5.21,15.72-.31,2.85-1.21,5.63-2.67,8.25-1.45,2.63-3.49,5.03-6.02,7.09-5.55,4.49-13.22,6.96-21.18,6.84Zm-89.33-38.43c-.47,0-.94-.07-1.39-.2-.85-.22-1.56-.82-1.9-1.64-1.33-3.54-2.22-9.46,1.17-17.53,1.56-3.66,3.64-7.07,6.17-10.12,1.84-2.36,4.09-4.37,6.63-5.95,3.23-1.77,6.85-2.7,10.54-2.72,3.55,0,7.05,.9,10.16,2.62,2.66,1.5,5.03,3.46,7.02,5.77,1.96,2.3,3.78,4.72,5.45,7.25,.72,1.04,1.46,2.12,2.21,3.17,1.33,1.67,1.73,3.9,1.07,5.94-.75,2.05-2.33,3.69-4.36,4.5-1.02,.43-2.11,.65-3.21,.66-.98,0-1.96-.19-2.86-.57-1.91-.83-3.4-2.41-4.13-4.36-.85-2.06-1.92-4.01-3.21-5.83-1.25-1.82-2.83-3.39-4.67-4.62-2.49-1.72-5.72-1.97-8.45-.64-2.57,1.17-6.89,5-9.83,9.8-2.26,3.38-3.39,7.39-3.22,11.45,.08,.82-.23,1.63-.84,2.18-.51,.45-1.15,.74-1.82,.81-.18,.02-.36,.04-.53,.04Zm144.96-14.12c-.61,0-1.22-.11-1.8-.29-1.06-.32-2.03-.9-2.82-1.68-.79-.77-1.33-1.76-1.57-2.83-.52-2.67-1.96-5.07-4.07-6.78-1.82-1.48-4.19-2.1-6.5-1.71-2.73,.58-5.2,2.05-6.99,4.19-.55,.67-1.04,1.39-1.47,2.14l-.04,.07c-.77,1.41-1.74,2.7-2.9,3.81-.5,.43-1.14,.67-1.8,.68-.27,0-.54-.04-.8-.12-1.09-1.02-1.97-2.25-2.58-3.61-.4-.99-.58-2.05-.51-3.11,.17-2.25,.96-4.41,2.27-6.25,1.7-2.4,3.82-4.48,6.26-6.12,2.09-1.51,4.44-2.61,6.93-3.26,1.29-.28,2.61-.42,3.93-.42,4.14,.03,8.16,1.34,11.52,3.75,4.64,3.24,7.85,8.15,8.95,13.7,.26,1.36,.14,2.76-.37,4.05-.5,1.27-1.44,2.31-2.65,2.94-.91,.54-1.94,.83-3,.86Zm-163-26.68c-.07,0-.14,0-.22-.01-.39-.06-.76-.24-1.06-.51-1.49-1.26-2.22-3.39-2.16-6.32,.2-3.69,1.15-7.31,2.79-10.63,1.55-3.12,3.34-6.12,5.36-8.97,1.99-2.85,4.3-5.48,6.87-7.83,5.6-5.09,12.13-9.06,19.22-11.7,3.48-1.3,8.7-3.02,13.7-3.02,.28,0,.57,0,.85,.02,1.74,.05,3.46,.38,5.1,.97,1.69,.63,3.23,1.59,4.54,2.82,1.65,1.62,2.55,3.84,2.51,6.15,.03,2.35-.88,4.62-2.53,6.29-1.51,1.47-3.35,2.54-5.37,3.14-1.92,.54-3.88,.89-5.87,1.05-1.92,.18-3.83,.46-5.72,.84-4.81,1.04-9.46,2.74-13.81,5.04-4.39,2.38-9.35,5.33-12.94,9.17-.85,.9-1.65,1.86-2.42,2.79l-.02,.03c-.72,.86-1.4,1.67-2.13,2.47-.81,.88-1.55,1.77-2.44,2.84-.25,.39-.48,.8-.69,1.22-.18,.37-.35,.71-.52,1.04-.32,.61-.63,1.14-.92,1.58-.57,.97-.87,1.2-1.11,1.3-.31,.15-.66,.24-1.01,.25h0Zm171.17-2.19c-.11,0-.22,0-.32-.03-.37-.06-.71-.23-.99-.48-.28-.26-.47-.59-.55-.96-.91-4.52-2.68-8.82-5.22-12.67-2.67-3.8-6.26-6.86-10.43-8.89-4.65-2.19-9.54-3.83-14.57-4.9-1.4-.33-2.91-.55-4.37-.77h-.07c-2.35-.28-4.67-.78-6.93-1.49-2.22-.71-4.2-2.05-5.69-3.84-.91-1.13-1.58-2.44-1.97-3.84-.37-1.35-.45-2.75-.24-4.13,.43-2.72,2.15-5.06,4.61-6.28,2-1,4.21-1.51,6.44-1.47,5.38,0,11.21,2.49,15.46,4.32l.34,.14h.01c.38,.17,.76,.33,1.13,.49,6.67,2.64,12.7,6.67,17.7,11.81,4.41,4.74,7.54,10.52,9.1,16.81,1.35,5.83,.71,11.12-1.84,15.3-.19,.32-.48,.58-.83,.73-.24,.11-.51,.16-.77,.16h0Z"/>
    </g>
    <path d="M563.58,532.03c12.42-18.03,33.29,15.06,37.86,24.52s19.15,30.05,9.36,32.25-17.11,10.61-21.95,8.9,10.82,82.37,2.49,83.83-24.95,16.72-34.14-8.91-6.04-122.57,6.38-140.6Z"/>
  </svg>
</svg>
